M48
;DRILL file {KiCad 4.0.5} date 01/25/17 19:51:48
;FORMAT={-:-/ absolute / metric / decimal}
FMAT,2
METRIC,TZ
T1C0.800
T2C0.900
T3C1.000
T4C1.016
T5C1.143
T6C1.300
T7C2.750
T8C3.048
%
G90
G05
M71
T1
X21.352Y-63.208
X21.399Y-60.16
X22.911Y-57.112
X26.352Y-63.208
X26.479Y-60.16
X27.911Y-57.112
X30.29Y-60.16
X30.29Y-63.208
X32.703Y-29.553
X35.369Y-60.16
X35.369Y-63.208
X36.203Y-29.553
X42.029Y-29.553
X45.529Y-29.553
X49.721Y-40.221
X49.721Y-43.523
X49.974Y-28.156
X49.974Y-33.617
X51.974Y-28.156
X51.974Y-33.617
X54.8Y-40.221
X54.8Y-43.523
X54.851Y-48.616
X54.851Y-56.236
X57.391Y-48.616
X57.391Y-56.236
X57.467Y-25.997
X57.467Y-33.617
X58.737Y-40.221
X58.737Y-43.523
X59.931Y-48.616
X59.931Y-56.236
X60.008Y-25.997
X60.008Y-33.617
X62.471Y-48.616
X62.471Y-56.236
X62.547Y-25.997
X62.547Y-33.617
X63.817Y-40.221
X63.817Y-43.523
X65.087Y-25.997
X65.087Y-33.617
X66.865Y-50.381
X66.865Y-54.445
X66.865Y-58.509
X67.627Y-25.997
X67.627Y-33.617
X70.167Y-25.997
X70.167Y-33.617
X70.99Y-37.986
X71.945Y-50.381
X71.945Y-54.445
X71.945Y-58.509
X72.326Y-42.634
X72.326Y-45.809
X72.707Y-25.997
X72.707Y-33.617
X75.248Y-25.997
X75.248Y-33.617
X75.87Y-37.986
X77.326Y-42.634
X77.326Y-45.809
X77.787Y-25.997
X77.787Y-33.617
T2
X75.248Y-54.445
X75.374Y-50.381
X75.374Y-58.509
X77.787Y-54.445
X77.914Y-50.381
X77.914Y-58.509
T3
X26.607Y-26.759
X26.607Y-29.299
X26.607Y-32.474
X26.607Y-35.014
X26.607Y-37.554
X26.607Y-40.729
X26.607Y-43.269
X26.607Y-45.809
X26.607Y-48.73
X26.607Y-51.27
X26.607Y-53.81
T4
X20.383Y-36.157
X20.383Y-38.951
X20.383Y-41.618
X20.383Y-44.412
X23.177Y-34.76
X23.177Y-37.554
X23.177Y-40.221
X23.177Y-43.015
X23.177Y-45.682
X25.59Y-19.266
X25.59Y-21.806
X28.13Y-19.266
X28.13Y-21.806
X30.67Y-19.266
X30.67Y-21.806
X33.21Y-19.266
X33.21Y-21.806
X35.75Y-19.266
X35.75Y-21.806
X38.291Y-19.266
X38.291Y-21.806
X40.831Y-19.266
X40.831Y-21.806
X43.37Y-19.266
X43.37Y-21.806
X45.91Y-19.266
X45.91Y-21.806
X48.45Y-19.266
X48.45Y-21.806
X50.99Y-19.266
X50.99Y-21.806
X53.53Y-19.266
X53.53Y-21.806
X56.07Y-19.266
X56.07Y-21.806
X58.61Y-19.266
X58.61Y-21.806
X61.15Y-19.266
X61.15Y-21.806
X63.691Y-19.266
X63.691Y-21.806
X66.23Y-19.266
X66.23Y-21.806
X68.77Y-19.266
X68.77Y-21.806
X71.31Y-19.266
X71.31Y-21.806
X73.85Y-19.266
X73.85Y-21.806
T5
X32.982Y-49.733
X32.982Y-52.273
X32.982Y-54.813
T6
X32.703Y-37.427
X32.703Y-43.142
X43.878Y-64.122
X45.402Y-37.427
X45.402Y-43.142
X48.878Y-64.122
X53.878Y-64.122
X58.878Y-64.122
T7
X20.752Y-20.517
X20.752Y-69.517
X78.752Y-20.517
X78.752Y-69.517
T8
X21.78Y-27.775
X21.78Y-52.794
T0
M30
