G04 #@! TF.FileFunction,Legend,Top*
%FSLAX46Y46*%
G04 Gerber Fmt 4.6, Leading zero omitted, Abs format (unit mm)*
G04 Created by KiCad (PCBNEW 4.0.5) date 01/25/17 19:42:49*
%MOMM*%
%LPD*%
G01*
G04 APERTURE LIST*
%ADD10C,0.200000*%
%ADD11C,0.250000*%
%ADD12C,0.125000*%
%ADD13C,0.031750*%
%ADD14C,0.150000*%
%ADD15C,0.120000*%
%ADD16C,0.010000*%
G04 APERTURE END LIST*
D10*
D11*
X20835881Y-34924976D02*
X20835881Y-34734500D01*
X20788262Y-34639261D01*
X20740643Y-34591642D01*
X20597786Y-34496404D01*
X20407310Y-34448785D01*
X20026357Y-34448785D01*
X19931119Y-34496404D01*
X19883500Y-34544023D01*
X19835881Y-34639261D01*
X19835881Y-34829738D01*
X19883500Y-34924976D01*
X19931119Y-34972595D01*
X20026357Y-35020214D01*
X20264452Y-35020214D01*
X20359690Y-34972595D01*
X20407310Y-34924976D01*
X20454929Y-34829738D01*
X20454929Y-34639261D01*
X20407310Y-34544023D01*
X20359690Y-34496404D01*
X20264452Y-34448785D01*
X22820381Y-32845404D02*
X22820381Y-33321595D01*
X23296571Y-33369214D01*
X23248952Y-33321595D01*
X23201333Y-33226357D01*
X23201333Y-32988261D01*
X23248952Y-32893023D01*
X23296571Y-32845404D01*
X23391810Y-32797785D01*
X23629905Y-32797785D01*
X23725143Y-32845404D01*
X23772762Y-32893023D01*
X23820381Y-32988261D01*
X23820381Y-33226357D01*
X23772762Y-33321595D01*
X23725143Y-33369214D01*
X19899381Y-45783523D02*
X19899381Y-45974000D01*
X19947000Y-46069238D01*
X19994619Y-46116857D01*
X20137476Y-46212095D01*
X20327952Y-46259714D01*
X20708905Y-46259714D01*
X20804143Y-46212095D01*
X20851762Y-46164476D01*
X20899381Y-46069238D01*
X20899381Y-45878761D01*
X20851762Y-45783523D01*
X20804143Y-45735904D01*
X20708905Y-45688285D01*
X20470810Y-45688285D01*
X20375571Y-45735904D01*
X20327952Y-45783523D01*
X20280333Y-45878761D01*
X20280333Y-46069238D01*
X20327952Y-46164476D01*
X20375571Y-46212095D01*
X20470810Y-46259714D01*
X23693381Y-46894785D02*
X23693381Y-47466214D01*
X23693381Y-47180500D02*
X22693381Y-47180500D01*
X22836238Y-47275738D01*
X22931476Y-47370976D01*
X22979095Y-47466214D01*
D12*
X24858643Y-71526048D02*
X25075309Y-72176048D01*
X25291976Y-71526048D01*
X25756262Y-72145095D02*
X25694357Y-72176048D01*
X25570548Y-72176048D01*
X25508643Y-72145095D01*
X25477691Y-72083190D01*
X25477691Y-71835571D01*
X25508643Y-71773667D01*
X25570548Y-71742714D01*
X25694357Y-71742714D01*
X25756262Y-71773667D01*
X25787214Y-71835571D01*
X25787214Y-71897476D01*
X25477691Y-71959381D01*
X26065786Y-72176048D02*
X26065786Y-71742714D01*
X26065786Y-71866524D02*
X26096738Y-71804619D01*
X26127691Y-71773667D01*
X26189595Y-71742714D01*
X26251500Y-71742714D01*
X26437215Y-72145095D02*
X26499119Y-72176048D01*
X26622929Y-72176048D01*
X26684834Y-72145095D01*
X26715786Y-72083190D01*
X26715786Y-72052238D01*
X26684834Y-71990333D01*
X26622929Y-71959381D01*
X26530072Y-71959381D01*
X26468167Y-71928429D01*
X26437215Y-71866524D01*
X26437215Y-71835571D01*
X26468167Y-71773667D01*
X26530072Y-71742714D01*
X26622929Y-71742714D01*
X26684834Y-71773667D01*
X26994357Y-72176048D02*
X26994357Y-71742714D01*
X26994357Y-71526048D02*
X26963405Y-71557000D01*
X26994357Y-71587952D01*
X27025309Y-71557000D01*
X26994357Y-71526048D01*
X26994357Y-71587952D01*
X27396738Y-72176048D02*
X27334833Y-72145095D01*
X27303881Y-72114143D01*
X27272929Y-72052238D01*
X27272929Y-71866524D01*
X27303881Y-71804619D01*
X27334833Y-71773667D01*
X27396738Y-71742714D01*
X27489595Y-71742714D01*
X27551500Y-71773667D01*
X27582452Y-71804619D01*
X27613405Y-71866524D01*
X27613405Y-72052238D01*
X27582452Y-72114143D01*
X27551500Y-72145095D01*
X27489595Y-72176048D01*
X27396738Y-72176048D01*
X27891976Y-71742714D02*
X27891976Y-72176048D01*
X27891976Y-71804619D02*
X27922928Y-71773667D01*
X27984833Y-71742714D01*
X28077690Y-71742714D01*
X28139595Y-71773667D01*
X28170547Y-71835571D01*
X28170547Y-72176048D01*
X28480071Y-72114143D02*
X28511023Y-72145095D01*
X28480071Y-72176048D01*
X28449119Y-72145095D01*
X28480071Y-72114143D01*
X28480071Y-72176048D01*
X28480071Y-71773667D02*
X28511023Y-71804619D01*
X28480071Y-71835571D01*
X28449119Y-71804619D01*
X28480071Y-71773667D01*
X28480071Y-71835571D01*
X29284833Y-72176048D02*
X29284833Y-71526048D01*
X29532452Y-71526048D01*
X29594357Y-71557000D01*
X29625309Y-71587952D01*
X29656261Y-71649857D01*
X29656261Y-71742714D01*
X29625309Y-71804619D01*
X29594357Y-71835571D01*
X29532452Y-71866524D01*
X29284833Y-71866524D01*
X30275309Y-72176048D02*
X29903881Y-72176048D01*
X30089595Y-72176048D02*
X30089595Y-71526048D01*
X30027690Y-71618905D01*
X29965785Y-71680810D01*
X29903881Y-71711762D01*
X30522929Y-71990333D02*
X30832452Y-71990333D01*
X30461024Y-72176048D02*
X30677690Y-71526048D01*
X30894357Y-72176048D01*
X24836310Y-71002095D02*
X24929167Y-71033048D01*
X25083929Y-71033048D01*
X25145833Y-71002095D01*
X25176786Y-70971143D01*
X25207738Y-70909238D01*
X25207738Y-70847333D01*
X25176786Y-70785429D01*
X25145833Y-70754476D01*
X25083929Y-70723524D01*
X24960119Y-70692571D01*
X24898214Y-70661619D01*
X24867262Y-70630667D01*
X24836310Y-70568762D01*
X24836310Y-70506857D01*
X24867262Y-70444952D01*
X24898214Y-70414000D01*
X24960119Y-70383048D01*
X25114881Y-70383048D01*
X25207738Y-70414000D01*
X25486310Y-71033048D02*
X25486310Y-70383048D01*
X25857738Y-71033048D02*
X25579167Y-70661619D01*
X25857738Y-70383048D02*
X25486310Y-70754476D01*
X26136310Y-70383048D02*
X26136310Y-70909238D01*
X26167262Y-70971143D01*
X26198215Y-71002095D01*
X26260119Y-71033048D01*
X26383929Y-71033048D01*
X26445834Y-71002095D01*
X26476786Y-70971143D01*
X26507738Y-70909238D01*
X26507738Y-70383048D01*
X26817262Y-70971143D02*
X26848214Y-71002095D01*
X26817262Y-71033048D01*
X26786310Y-71002095D01*
X26817262Y-70971143D01*
X26817262Y-71033048D01*
X26817262Y-70630667D02*
X26848214Y-70661619D01*
X26817262Y-70692571D01*
X26786310Y-70661619D01*
X26817262Y-70630667D01*
X26817262Y-70692571D01*
X27529167Y-70383048D02*
X27900595Y-70383048D01*
X27714881Y-71033048D02*
X27714881Y-70383048D01*
X28333929Y-70692571D02*
X28426786Y-70723524D01*
X28457738Y-70754476D01*
X28488690Y-70816381D01*
X28488690Y-70909238D01*
X28457738Y-70971143D01*
X28426786Y-71002095D01*
X28364881Y-71033048D01*
X28117262Y-71033048D01*
X28117262Y-70383048D01*
X28333929Y-70383048D01*
X28395833Y-70414000D01*
X28426786Y-70444952D01*
X28457738Y-70506857D01*
X28457738Y-70568762D01*
X28426786Y-70630667D01*
X28395833Y-70661619D01*
X28333929Y-70692571D01*
X28117262Y-70692571D01*
X28767262Y-71033048D02*
X28767262Y-70383048D01*
X28922024Y-70383048D01*
X29014881Y-70414000D01*
X29076786Y-70475905D01*
X29107738Y-70537810D01*
X29138690Y-70661619D01*
X29138690Y-70754476D01*
X29107738Y-70878286D01*
X29076786Y-70940190D01*
X29014881Y-71002095D01*
X28922024Y-71033048D01*
X28767262Y-71033048D01*
D10*
X38862000Y-69596000D02*
X38862000Y-69659500D01*
X24384000Y-69596000D02*
X38862000Y-69596000D01*
X38862000Y-72644000D02*
X38862000Y-69977000D01*
X24384000Y-72644000D02*
X38862000Y-72644000D01*
X24384000Y-69786500D02*
X24384000Y-72644000D01*
X29806900Y-25323800D02*
X27724100Y-25323800D01*
X29806900Y-30962600D02*
X30200600Y-30962600D01*
X29806900Y-25311100D02*
X29806900Y-30962600D01*
X31203900Y-31051500D02*
X31203900Y-55245000D01*
X24409400Y-70040500D02*
X24409400Y-69748400D01*
X38849300Y-70040500D02*
X24409400Y-70040500D01*
X38849300Y-69850000D02*
X38849300Y-70040500D01*
X74155300Y-72301100D02*
X74155300Y-71767700D01*
X62357000Y-72301100D02*
X74155300Y-72301100D01*
X62357000Y-71907400D02*
X62357000Y-72339200D01*
X74180700Y-71970900D02*
X74180700Y-72021700D01*
D11*
X80113167Y-51563448D02*
X80113167Y-51087257D01*
X80398881Y-51658686D02*
X79398881Y-51325353D01*
X80398881Y-50992019D01*
X80303643Y-50087257D02*
X80351262Y-50134876D01*
X80398881Y-50277733D01*
X80398881Y-50372971D01*
X80351262Y-50515829D01*
X80256024Y-50611067D01*
X80160786Y-50658686D01*
X79970310Y-50706305D01*
X79827452Y-50706305D01*
X79636976Y-50658686D01*
X79541738Y-50611067D01*
X79446500Y-50515829D01*
X79398881Y-50372971D01*
X79398881Y-50277733D01*
X79446500Y-50134876D01*
X79494119Y-50087257D01*
X79398881Y-49801543D02*
X79398881Y-49230114D01*
X80398881Y-49515829D02*
X79398881Y-49515829D01*
X80513181Y-59904143D02*
X79513181Y-59904143D01*
X79513181Y-59523190D01*
X79560800Y-59427952D01*
X79608419Y-59380333D01*
X79703657Y-59332714D01*
X79846514Y-59332714D01*
X79941752Y-59380333D01*
X79989371Y-59427952D01*
X80036990Y-59523190D01*
X80036990Y-59904143D01*
X79513181Y-58713667D02*
X79513181Y-58523190D01*
X79560800Y-58427952D01*
X79656038Y-58332714D01*
X79846514Y-58285095D01*
X80179848Y-58285095D01*
X80370324Y-58332714D01*
X80465562Y-58427952D01*
X80513181Y-58523190D01*
X80513181Y-58713667D01*
X80465562Y-58808905D01*
X80370324Y-58904143D01*
X80179848Y-58951762D01*
X79846514Y-58951762D01*
X79656038Y-58904143D01*
X79560800Y-58808905D01*
X79513181Y-58713667D01*
X79513181Y-57951762D02*
X80513181Y-57713667D01*
X79798895Y-57523190D01*
X80513181Y-57332714D01*
X79513181Y-57094619D01*
X80481443Y-55562357D02*
X80529062Y-55609976D01*
X80576681Y-55752833D01*
X80576681Y-55848071D01*
X80529062Y-55990929D01*
X80433824Y-56086167D01*
X80338586Y-56133786D01*
X80148110Y-56181405D01*
X80005252Y-56181405D01*
X79814776Y-56133786D01*
X79719538Y-56086167D01*
X79624300Y-55990929D01*
X79576681Y-55848071D01*
X79576681Y-55752833D01*
X79624300Y-55609976D01*
X79671919Y-55562357D01*
X80290967Y-55181405D02*
X80290967Y-54705214D01*
X80576681Y-55276643D02*
X79576681Y-54943310D01*
X80576681Y-54609976D01*
X80576681Y-54276643D02*
X79576681Y-54276643D01*
X80576681Y-53705214D01*
X79576681Y-53705214D01*
X80576681Y-53229024D02*
X79576681Y-53229024D01*
X79576681Y-52848071D01*
X79624300Y-52752833D01*
X79671919Y-52705214D01*
X79767157Y-52657595D01*
X79910014Y-52657595D01*
X80005252Y-52705214D01*
X80052871Y-52752833D01*
X80100490Y-52848071D01*
X80100490Y-53229024D01*
D10*
X62357000Y-68097400D02*
X62357000Y-71970900D01*
X62357000Y-62128400D02*
X62357000Y-68097400D01*
X73025000Y-69811900D02*
X73025000Y-70827900D01*
X72898000Y-70827900D02*
X73025000Y-70827900D01*
X69088000Y-68351400D02*
X69088000Y-69430900D01*
X71818500Y-68351400D02*
X71818500Y-69430900D01*
X38862000Y-69875400D02*
X38862000Y-69494400D01*
X37973000Y-64858900D02*
X38862000Y-64858900D01*
X74168000Y-67462400D02*
X74168000Y-71970900D01*
X76517500Y-65112900D02*
X74168000Y-67462400D01*
X80391000Y-65112900D02*
X76517500Y-65112900D01*
X80391000Y-62128400D02*
X80391000Y-65112900D01*
X62293500Y-62128400D02*
X80391000Y-62128400D01*
X73025000Y-69811900D02*
X70421500Y-69811900D01*
X70421500Y-70827900D02*
X72961500Y-70827900D01*
X70421500Y-69811900D02*
X70421500Y-70827900D01*
X71818500Y-69430900D02*
X69088000Y-69430900D01*
X69151500Y-68351400D02*
X71818500Y-68351400D01*
X72580500Y-68859400D02*
G75*
G03X72580500Y-68859400I-127000J0D01*
G01*
X69850000Y-68859400D02*
G75*
G03X69850000Y-68859400I-127000J0D01*
G01*
X71247000Y-68859400D02*
G75*
G03X71247000Y-68859400I-127000J0D01*
G01*
X71247000Y-70319900D02*
G75*
G03X71247000Y-70319900I-127000J0D01*
G01*
X69850000Y-70319900D02*
G75*
G03X69850000Y-70319900I-127000J0D01*
G01*
X72580500Y-70319900D02*
G75*
G03X72580500Y-70319900I-127000J0D01*
G01*
D11*
X62928833Y-70899281D02*
X62928833Y-69899281D01*
X63166928Y-69899281D01*
X63309786Y-69946900D01*
X63405024Y-70042138D01*
X63452643Y-70137376D01*
X63500262Y-70327852D01*
X63500262Y-70470710D01*
X63452643Y-70661186D01*
X63405024Y-70756424D01*
X63309786Y-70851662D01*
X63166928Y-70899281D01*
X62928833Y-70899281D01*
X64309786Y-70851662D02*
X64214548Y-70899281D01*
X64024071Y-70899281D01*
X63928833Y-70851662D01*
X63881214Y-70756424D01*
X63881214Y-70375471D01*
X63928833Y-70280233D01*
X64024071Y-70232614D01*
X64214548Y-70232614D01*
X64309786Y-70280233D01*
X64357405Y-70375471D01*
X64357405Y-70470710D01*
X63881214Y-70565948D01*
X64643119Y-70232614D02*
X65024071Y-70232614D01*
X64785976Y-70899281D02*
X64785976Y-70042138D01*
X64833595Y-69946900D01*
X64928833Y-69899281D01*
X65024071Y-69899281D01*
X65785977Y-70899281D02*
X65785977Y-70375471D01*
X65738358Y-70280233D01*
X65643120Y-70232614D01*
X65452643Y-70232614D01*
X65357405Y-70280233D01*
X65785977Y-70851662D02*
X65690739Y-70899281D01*
X65452643Y-70899281D01*
X65357405Y-70851662D01*
X65309786Y-70756424D01*
X65309786Y-70661186D01*
X65357405Y-70565948D01*
X65452643Y-70518329D01*
X65690739Y-70518329D01*
X65785977Y-70470710D01*
X66690739Y-70232614D02*
X66690739Y-70899281D01*
X66262167Y-70232614D02*
X66262167Y-70756424D01*
X66309786Y-70851662D01*
X66405024Y-70899281D01*
X66547882Y-70899281D01*
X66643120Y-70851662D01*
X66690739Y-70804043D01*
X67309786Y-70899281D02*
X67214548Y-70851662D01*
X67166929Y-70756424D01*
X67166929Y-69899281D01*
X67547882Y-70232614D02*
X67928834Y-70232614D01*
X67690739Y-69899281D02*
X67690739Y-70756424D01*
X67738358Y-70851662D01*
X67833596Y-70899281D01*
X67928834Y-70899281D01*
X68262168Y-70804043D02*
X68309787Y-70851662D01*
X68262168Y-70899281D01*
X68214549Y-70851662D01*
X68262168Y-70804043D01*
X68262168Y-70899281D01*
X68262168Y-70280233D02*
X68309787Y-70327852D01*
X68262168Y-70375471D01*
X68214549Y-70327852D01*
X68262168Y-70280233D01*
X68262168Y-70375471D01*
X63166929Y-68184781D02*
X63357406Y-68184781D01*
X63452644Y-68232400D01*
X63547882Y-68327638D01*
X63595501Y-68518114D01*
X63595501Y-68851448D01*
X63547882Y-69041924D01*
X63452644Y-69137162D01*
X63357406Y-69184781D01*
X63166929Y-69184781D01*
X63071691Y-69137162D01*
X62976453Y-69041924D01*
X62928834Y-68851448D01*
X62928834Y-68518114D01*
X62976453Y-68327638D01*
X63071691Y-68232400D01*
X63166929Y-68184781D01*
X64024072Y-69184781D02*
X64024072Y-68184781D01*
X64262167Y-68184781D01*
X64405025Y-68232400D01*
X64500263Y-68327638D01*
X64547882Y-68422876D01*
X64595501Y-68613352D01*
X64595501Y-68756210D01*
X64547882Y-68946686D01*
X64500263Y-69041924D01*
X64405025Y-69137162D01*
X64262167Y-69184781D01*
X64024072Y-69184781D01*
X65357406Y-68660971D02*
X65500263Y-68708590D01*
X65547882Y-68756210D01*
X65595501Y-68851448D01*
X65595501Y-68994305D01*
X65547882Y-69089543D01*
X65500263Y-69137162D01*
X65405025Y-69184781D01*
X65024072Y-69184781D01*
X65024072Y-68184781D01*
X65357406Y-68184781D01*
X65452644Y-68232400D01*
X65500263Y-68280019D01*
X65547882Y-68375257D01*
X65547882Y-68470495D01*
X65500263Y-68565733D01*
X65452644Y-68613352D01*
X65357406Y-68660971D01*
X65024072Y-68660971D01*
X66024072Y-68803829D02*
X66785977Y-68803829D01*
X67262167Y-69184781D02*
X67262167Y-68184781D01*
X67738357Y-69184781D02*
X67738357Y-68184781D01*
X68214547Y-69089543D02*
X68262166Y-69137162D01*
X68214547Y-69184781D01*
X68166928Y-69137162D01*
X68214547Y-69089543D01*
X68214547Y-69184781D01*
X68214547Y-68565733D02*
X68262166Y-68613352D01*
X68214547Y-68660971D01*
X68166928Y-68613352D01*
X68214547Y-68565733D01*
X68214547Y-68660971D01*
X72183667Y-66533781D02*
X72802715Y-66533781D01*
X72469381Y-66914733D01*
X72612239Y-66914733D01*
X72707477Y-66962352D01*
X72755096Y-67009971D01*
X72802715Y-67105210D01*
X72802715Y-67343305D01*
X72755096Y-67438543D01*
X72707477Y-67486162D01*
X72612239Y-67533781D01*
X72326524Y-67533781D01*
X72231286Y-67486162D01*
X72183667Y-67438543D01*
X70770786Y-66565519D02*
X70818405Y-66517900D01*
X70913643Y-66470281D01*
X71151739Y-66470281D01*
X71246977Y-66517900D01*
X71294596Y-66565519D01*
X71342215Y-66660757D01*
X71342215Y-66755995D01*
X71294596Y-66898852D01*
X70723167Y-67470281D01*
X71342215Y-67470281D01*
X70008715Y-67470281D02*
X69437286Y-67470281D01*
X69723000Y-67470281D02*
X69723000Y-66470281D01*
X69627762Y-66613138D01*
X69532524Y-66708376D01*
X69437286Y-66755995D01*
X63969072Y-63452043D02*
X63921453Y-63499662D01*
X63778596Y-63547281D01*
X63683358Y-63547281D01*
X63540500Y-63499662D01*
X63445262Y-63404424D01*
X63397643Y-63309186D01*
X63350024Y-63118710D01*
X63350024Y-62975852D01*
X63397643Y-62785376D01*
X63445262Y-62690138D01*
X63540500Y-62594900D01*
X63683358Y-62547281D01*
X63778596Y-62547281D01*
X63921453Y-62594900D01*
X63969072Y-62642519D01*
X64350024Y-63261567D02*
X64826215Y-63261567D01*
X64254786Y-63547281D02*
X64588119Y-62547281D01*
X64921453Y-63547281D01*
X65254786Y-63547281D02*
X65254786Y-62547281D01*
X65826215Y-63547281D01*
X65826215Y-62547281D01*
X67064310Y-63547281D02*
X67064310Y-62547281D01*
X67302405Y-62547281D01*
X67445263Y-62594900D01*
X67540501Y-62690138D01*
X67588120Y-62785376D01*
X67635739Y-62975852D01*
X67635739Y-63118710D01*
X67588120Y-63309186D01*
X67540501Y-63404424D01*
X67445263Y-63499662D01*
X67302405Y-63547281D01*
X67064310Y-63547281D01*
X68397644Y-63023471D02*
X68540501Y-63071090D01*
X68588120Y-63118710D01*
X68635739Y-63213948D01*
X68635739Y-63356805D01*
X68588120Y-63452043D01*
X68540501Y-63499662D01*
X68445263Y-63547281D01*
X68064310Y-63547281D01*
X68064310Y-62547281D01*
X68397644Y-62547281D01*
X68492882Y-62594900D01*
X68540501Y-62642519D01*
X68588120Y-62737757D01*
X68588120Y-62832995D01*
X68540501Y-62928233D01*
X68492882Y-62975852D01*
X68397644Y-63023471D01*
X68064310Y-63023471D01*
X69111929Y-63547281D02*
X69302405Y-63547281D01*
X69397644Y-63499662D01*
X69445263Y-63452043D01*
X69540501Y-63309186D01*
X69588120Y-63118710D01*
X69588120Y-62737757D01*
X69540501Y-62642519D01*
X69492882Y-62594900D01*
X69397644Y-62547281D01*
X69207167Y-62547281D01*
X69111929Y-62594900D01*
X69064310Y-62642519D01*
X69016691Y-62737757D01*
X69016691Y-62975852D01*
X69064310Y-63071090D01*
X69111929Y-63118710D01*
X69207167Y-63166329D01*
X69397644Y-63166329D01*
X69492882Y-63118710D01*
X69540501Y-63071090D01*
X69588120Y-62975852D01*
X70778596Y-62880614D02*
X70778596Y-63880614D01*
X70778596Y-62928233D02*
X70873834Y-62880614D01*
X71064311Y-62880614D01*
X71159549Y-62928233D01*
X71207168Y-62975852D01*
X71254787Y-63071090D01*
X71254787Y-63356805D01*
X71207168Y-63452043D01*
X71159549Y-63499662D01*
X71064311Y-63547281D01*
X70873834Y-63547281D01*
X70778596Y-63499662D01*
X71683358Y-63547281D02*
X71683358Y-62880614D01*
X71683358Y-62547281D02*
X71635739Y-62594900D01*
X71683358Y-62642519D01*
X71730977Y-62594900D01*
X71683358Y-62547281D01*
X71683358Y-62642519D01*
X72159548Y-62880614D02*
X72159548Y-63547281D01*
X72159548Y-62975852D02*
X72207167Y-62928233D01*
X72302405Y-62880614D01*
X72445263Y-62880614D01*
X72540501Y-62928233D01*
X72588120Y-63023471D01*
X72588120Y-63547281D01*
X73064310Y-63166329D02*
X73826215Y-63166329D01*
X74445262Y-63547281D02*
X74350024Y-63499662D01*
X74302405Y-63452043D01*
X74254786Y-63356805D01*
X74254786Y-63071090D01*
X74302405Y-62975852D01*
X74350024Y-62928233D01*
X74445262Y-62880614D01*
X74588120Y-62880614D01*
X74683358Y-62928233D01*
X74730977Y-62975852D01*
X74778596Y-63071090D01*
X74778596Y-63356805D01*
X74730977Y-63452043D01*
X74683358Y-63499662D01*
X74588120Y-63547281D01*
X74445262Y-63547281D01*
X75635739Y-62880614D02*
X75635739Y-63547281D01*
X75207167Y-62880614D02*
X75207167Y-63404424D01*
X75254786Y-63499662D01*
X75350024Y-63547281D01*
X75492882Y-63547281D01*
X75588120Y-63499662D01*
X75635739Y-63452043D01*
X75969072Y-62880614D02*
X76350024Y-62880614D01*
X76111929Y-62547281D02*
X76111929Y-63404424D01*
X76159548Y-63499662D01*
X76254786Y-63547281D01*
X76350024Y-63547281D01*
X76730977Y-63499662D02*
X76730977Y-63547281D01*
X76683358Y-63642519D01*
X76635739Y-63690138D01*
X76683358Y-62928233D02*
X76730977Y-62975852D01*
X76683358Y-63023471D01*
X76635739Y-62975852D01*
X76683358Y-62928233D01*
X76683358Y-63023471D01*
X65016691Y-64297281D02*
X65016691Y-65011567D01*
X64969071Y-65154424D01*
X64873833Y-65249662D01*
X64730976Y-65297281D01*
X64635738Y-65297281D01*
X65492881Y-65297281D02*
X65492881Y-64297281D01*
X65873834Y-64297281D01*
X65969072Y-64344900D01*
X66016691Y-64392519D01*
X66064310Y-64487757D01*
X66064310Y-64630614D01*
X66016691Y-64725852D01*
X65969072Y-64773471D01*
X65873834Y-64821090D01*
X65492881Y-64821090D01*
X67016691Y-65297281D02*
X66445262Y-65297281D01*
X66730976Y-65297281D02*
X66730976Y-64297281D01*
X66635738Y-64440138D01*
X66540500Y-64535376D01*
X66445262Y-64582995D01*
X67492881Y-65249662D02*
X67492881Y-65297281D01*
X67445262Y-65392519D01*
X67397643Y-65440138D01*
X68969072Y-64297281D02*
X68969072Y-65011567D01*
X68921452Y-65154424D01*
X68826214Y-65249662D01*
X68683357Y-65297281D01*
X68588119Y-65297281D01*
X69445262Y-65297281D02*
X69445262Y-64297281D01*
X69826215Y-64297281D01*
X69921453Y-64344900D01*
X69969072Y-64392519D01*
X70016691Y-64487757D01*
X70016691Y-64630614D01*
X69969072Y-64725852D01*
X69921453Y-64773471D01*
X69826215Y-64821090D01*
X69445262Y-64821090D01*
X70350024Y-64297281D02*
X70969072Y-64297281D01*
X70635738Y-64678233D01*
X70778596Y-64678233D01*
X70873834Y-64725852D01*
X70921453Y-64773471D01*
X70969072Y-64868710D01*
X70969072Y-65106805D01*
X70921453Y-65202043D01*
X70873834Y-65249662D01*
X70778596Y-65297281D01*
X70492881Y-65297281D01*
X70397643Y-65249662D01*
X70350024Y-65202043D01*
X71445262Y-65249662D02*
X71445262Y-65297281D01*
X71397643Y-65392519D01*
X71350024Y-65440138D01*
X72921453Y-64297281D02*
X72921453Y-65011567D01*
X72873833Y-65154424D01*
X72778595Y-65249662D01*
X72635738Y-65297281D01*
X72540500Y-65297281D01*
X73397643Y-65297281D02*
X73397643Y-64297281D01*
X73778596Y-64297281D01*
X73873834Y-64344900D01*
X73921453Y-64392519D01*
X73969072Y-64487757D01*
X73969072Y-64630614D01*
X73921453Y-64725852D01*
X73873834Y-64773471D01*
X73778596Y-64821090D01*
X73397643Y-64821090D01*
X74826215Y-64630614D02*
X74826215Y-65297281D01*
X74588119Y-64249662D02*
X74350024Y-64963948D01*
X74969072Y-64963948D01*
X75350024Y-65202043D02*
X75397643Y-65249662D01*
X75350024Y-65297281D01*
X75302405Y-65249662D01*
X75350024Y-65202043D01*
X75350024Y-65297281D01*
X75350024Y-64678233D02*
X75397643Y-64725852D01*
X75350024Y-64773471D01*
X75302405Y-64725852D01*
X75350024Y-64678233D01*
X75350024Y-64773471D01*
D10*
X46355000Y-72288400D02*
X45847000Y-72288400D01*
X46355000Y-68224400D02*
X46355000Y-72288400D01*
X51371500Y-72288400D02*
X51435000Y-72288400D01*
X51371500Y-68160900D02*
X51371500Y-72288400D01*
X56388000Y-72288400D02*
X56070500Y-72288400D01*
X56388000Y-68097400D02*
X56388000Y-72288400D01*
X61404500Y-72288400D02*
X61404500Y-68160900D01*
X41338500Y-72288400D02*
X61404500Y-72288400D01*
X41338500Y-68160900D02*
X41338500Y-72288400D01*
X24384000Y-64985900D02*
X24511000Y-64985900D01*
X24384000Y-69875400D02*
X24384000Y-64985900D01*
X38862000Y-64922400D02*
X38862000Y-69430900D01*
X24384000Y-64858900D02*
X37909500Y-64858900D01*
D11*
X25265167Y-67232281D02*
X25265167Y-67946567D01*
X25217547Y-68089424D01*
X25122309Y-68184662D01*
X24979452Y-68232281D01*
X24884214Y-68232281D01*
X25741357Y-68232281D02*
X25741357Y-67232281D01*
X26122310Y-67232281D01*
X26217548Y-67279900D01*
X26265167Y-67327519D01*
X26312786Y-67422757D01*
X26312786Y-67565614D01*
X26265167Y-67660852D01*
X26217548Y-67708471D01*
X26122310Y-67756090D01*
X25741357Y-67756090D01*
X26693738Y-67327519D02*
X26741357Y-67279900D01*
X26836595Y-67232281D01*
X27074691Y-67232281D01*
X27169929Y-67279900D01*
X27217548Y-67327519D01*
X27265167Y-67422757D01*
X27265167Y-67517995D01*
X27217548Y-67660852D01*
X26646119Y-68232281D01*
X27265167Y-68232281D01*
D13*
X25074667Y-70059852D02*
X25074667Y-70150567D01*
X25027047Y-70168710D01*
X24931809Y-70180805D01*
X24788952Y-70186852D01*
X24693714Y-70186852D01*
X25550857Y-70186852D02*
X25550857Y-70059852D01*
X25931810Y-70059852D01*
X26027048Y-70065900D01*
X26074667Y-70071948D01*
X26122286Y-70084043D01*
X26122286Y-70102186D01*
X26074667Y-70114281D01*
X26027048Y-70120329D01*
X25931810Y-70126376D01*
X25550857Y-70126376D01*
X26503238Y-70071948D02*
X26550857Y-70065900D01*
X26646095Y-70059852D01*
X26884191Y-70059852D01*
X26979429Y-70065900D01*
X27027048Y-70071948D01*
X27074667Y-70084043D01*
X27074667Y-70096138D01*
X27027048Y-70114281D01*
X26455619Y-70186852D01*
X27074667Y-70186852D01*
D11*
X34242571Y-67994281D02*
X34433048Y-67994281D01*
X34528286Y-68041900D01*
X34623524Y-68137138D01*
X34671143Y-68327614D01*
X34671143Y-68660948D01*
X34623524Y-68851424D01*
X34528286Y-68946662D01*
X34433048Y-68994281D01*
X34242571Y-68994281D01*
X34147333Y-68946662D01*
X34052095Y-68851424D01*
X34004476Y-68660948D01*
X34004476Y-68327614D01*
X34052095Y-68137138D01*
X34147333Y-68041900D01*
X34242571Y-67994281D01*
X35099714Y-68994281D02*
X35099714Y-67994281D01*
X35480667Y-67994281D01*
X35575905Y-68041900D01*
X35623524Y-68089519D01*
X35671143Y-68184757D01*
X35671143Y-68327614D01*
X35623524Y-68422852D01*
X35575905Y-68470471D01*
X35480667Y-68518090D01*
X35099714Y-68518090D01*
X36099714Y-68470471D02*
X36433048Y-68470471D01*
X36575905Y-68994281D02*
X36099714Y-68994281D01*
X36099714Y-67994281D01*
X36575905Y-67994281D01*
X37004476Y-68994281D02*
X37004476Y-67994281D01*
X37575905Y-68994281D01*
X37575905Y-67994281D01*
D10*
X35496500Y-67017900D02*
G75*
G03X35496500Y-67017900I-127000J0D01*
G01*
X36258500Y-67017900D02*
G75*
G03X36258500Y-67017900I-127000J0D01*
G01*
X31369000Y-67017900D02*
X30607000Y-67017900D01*
D11*
X29884834Y-68994281D02*
X29313405Y-68994281D01*
X29599119Y-68994281D02*
X29599119Y-67994281D01*
X29503881Y-68137138D01*
X29408643Y-68232376D01*
X29313405Y-68279995D01*
X30265786Y-68089519D02*
X30313405Y-68041900D01*
X30408643Y-67994281D01*
X30646739Y-67994281D01*
X30741977Y-68041900D01*
X30789596Y-68089519D01*
X30837215Y-68184757D01*
X30837215Y-68279995D01*
X30789596Y-68422852D01*
X30218167Y-68994281D01*
X30837215Y-68994281D01*
X31456262Y-67994281D02*
X31551501Y-67994281D01*
X31646739Y-68041900D01*
X31694358Y-68089519D01*
X31741977Y-68184757D01*
X31789596Y-68375233D01*
X31789596Y-68613329D01*
X31741977Y-68803805D01*
X31694358Y-68899043D01*
X31646739Y-68946662D01*
X31551501Y-68994281D01*
X31456262Y-68994281D01*
X31361024Y-68946662D01*
X31313405Y-68899043D01*
X31265786Y-68803805D01*
X31218167Y-68613329D01*
X31218167Y-68375233D01*
X31265786Y-68184757D01*
X31313405Y-68089519D01*
X31361024Y-68041900D01*
X31456262Y-67994281D01*
X32789596Y-68994281D02*
X32456262Y-68518090D01*
X32218167Y-68994281D02*
X32218167Y-67994281D01*
X32599120Y-67994281D01*
X32694358Y-68041900D01*
X32741977Y-68089519D01*
X32789596Y-68184757D01*
X32789596Y-68327614D01*
X32741977Y-68422852D01*
X32694358Y-68470471D01*
X32599120Y-68518090D01*
X32218167Y-68518090D01*
D10*
X31877000Y-67525900D02*
X31877000Y-66636900D01*
X30099000Y-67525900D02*
X31877000Y-67525900D01*
X30099000Y-66636900D02*
X30099000Y-67525900D01*
X31877000Y-66636900D02*
X30099000Y-66636900D01*
X31496000Y-67017900D02*
G75*
G03X31496000Y-67017900I-127000J0D01*
G01*
X30734000Y-67017900D02*
G75*
G03X30734000Y-67017900I-127000J0D01*
G01*
D11*
X25495953Y-66105043D02*
X25448334Y-66152662D01*
X25305477Y-66200281D01*
X25210239Y-66200281D01*
X25067381Y-66152662D01*
X24972143Y-66057424D01*
X24924524Y-65962186D01*
X24876905Y-65771710D01*
X24876905Y-65628852D01*
X24924524Y-65438376D01*
X24972143Y-65343138D01*
X25067381Y-65247900D01*
X25210239Y-65200281D01*
X25305477Y-65200281D01*
X25448334Y-65247900D01*
X25495953Y-65295519D01*
X25876905Y-65914567D02*
X26353096Y-65914567D01*
X25781667Y-66200281D02*
X26115000Y-65200281D01*
X26448334Y-66200281D01*
X26781667Y-66200281D02*
X26781667Y-65200281D01*
X27353096Y-66200281D01*
X27353096Y-65200281D01*
X28448334Y-65200281D02*
X29019763Y-65200281D01*
X28734048Y-66200281D02*
X28734048Y-65200281D01*
X29734049Y-66152662D02*
X29638811Y-66200281D01*
X29448334Y-66200281D01*
X29353096Y-66152662D01*
X29305477Y-66057424D01*
X29305477Y-65676471D01*
X29353096Y-65581233D01*
X29448334Y-65533614D01*
X29638811Y-65533614D01*
X29734049Y-65581233D01*
X29781668Y-65676471D01*
X29781668Y-65771710D01*
X29305477Y-65866948D01*
X30210239Y-66200281D02*
X30210239Y-65533614D01*
X30210239Y-65724090D02*
X30257858Y-65628852D01*
X30305477Y-65581233D01*
X30400715Y-65533614D01*
X30495954Y-65533614D01*
X30829287Y-66200281D02*
X30829287Y-65533614D01*
X30829287Y-65628852D02*
X30876906Y-65581233D01*
X30972144Y-65533614D01*
X31115002Y-65533614D01*
X31210240Y-65581233D01*
X31257859Y-65676471D01*
X31257859Y-66200281D01*
X31257859Y-65676471D02*
X31305478Y-65581233D01*
X31400716Y-65533614D01*
X31543573Y-65533614D01*
X31638811Y-65581233D01*
X31686430Y-65676471D01*
X31686430Y-66200281D01*
X32162620Y-66200281D02*
X32162620Y-65533614D01*
X32162620Y-65200281D02*
X32115001Y-65247900D01*
X32162620Y-65295519D01*
X32210239Y-65247900D01*
X32162620Y-65200281D01*
X32162620Y-65295519D01*
X32638810Y-65533614D02*
X32638810Y-66200281D01*
X32638810Y-65628852D02*
X32686429Y-65581233D01*
X32781667Y-65533614D01*
X32924525Y-65533614D01*
X33019763Y-65581233D01*
X33067382Y-65676471D01*
X33067382Y-66200281D01*
X33972144Y-66200281D02*
X33972144Y-65676471D01*
X33924525Y-65581233D01*
X33829287Y-65533614D01*
X33638810Y-65533614D01*
X33543572Y-65581233D01*
X33972144Y-66152662D02*
X33876906Y-66200281D01*
X33638810Y-66200281D01*
X33543572Y-66152662D01*
X33495953Y-66057424D01*
X33495953Y-65962186D01*
X33543572Y-65866948D01*
X33638810Y-65819329D01*
X33876906Y-65819329D01*
X33972144Y-65771710D01*
X34305477Y-65533614D02*
X34686429Y-65533614D01*
X34448334Y-65200281D02*
X34448334Y-66057424D01*
X34495953Y-66152662D01*
X34591191Y-66200281D01*
X34686429Y-66200281D01*
X35019763Y-66200281D02*
X35019763Y-65533614D01*
X35019763Y-65200281D02*
X34972144Y-65247900D01*
X35019763Y-65295519D01*
X35067382Y-65247900D01*
X35019763Y-65200281D01*
X35019763Y-65295519D01*
X35638810Y-66200281D02*
X35543572Y-66152662D01*
X35495953Y-66105043D01*
X35448334Y-66009805D01*
X35448334Y-65724090D01*
X35495953Y-65628852D01*
X35543572Y-65581233D01*
X35638810Y-65533614D01*
X35781668Y-65533614D01*
X35876906Y-65581233D01*
X35924525Y-65628852D01*
X35972144Y-65724090D01*
X35972144Y-66009805D01*
X35924525Y-66105043D01*
X35876906Y-66152662D01*
X35781668Y-66200281D01*
X35638810Y-66200281D01*
X36400715Y-65533614D02*
X36400715Y-66200281D01*
X36400715Y-65628852D02*
X36448334Y-65581233D01*
X36543572Y-65533614D01*
X36686430Y-65533614D01*
X36781668Y-65581233D01*
X36829287Y-65676471D01*
X36829287Y-66200281D01*
X37305477Y-66105043D02*
X37353096Y-66152662D01*
X37305477Y-66200281D01*
X37257858Y-66152662D01*
X37305477Y-66105043D01*
X37305477Y-66200281D01*
X37305477Y-65581233D02*
X37353096Y-65628852D01*
X37305477Y-65676471D01*
X37257858Y-65628852D01*
X37305477Y-65581233D01*
X37305477Y-65676471D01*
D10*
X28003500Y-55206900D02*
X26606500Y-55206900D01*
X31051500Y-31076900D02*
X27876500Y-31076900D01*
X31051500Y-38950900D02*
X28003500Y-38950900D01*
X31051500Y-47205900D02*
X28003500Y-47205900D01*
X31051500Y-55206900D02*
X27876500Y-55206900D01*
D11*
X30702215Y-54389281D02*
X30130786Y-54389281D01*
X30416500Y-54389281D02*
X30416500Y-53389281D01*
X30321262Y-53532138D01*
X30226024Y-53627376D01*
X30130786Y-53674995D01*
X30003786Y-50817519D02*
X30051405Y-50769900D01*
X30146643Y-50722281D01*
X30384739Y-50722281D01*
X30479977Y-50769900D01*
X30527596Y-50817519D01*
X30575215Y-50912757D01*
X30575215Y-51007995D01*
X30527596Y-51150852D01*
X29956167Y-51722281D01*
X30575215Y-51722281D01*
X29956167Y-48055281D02*
X30575215Y-48055281D01*
X30241881Y-48436233D01*
X30384739Y-48436233D01*
X30479977Y-48483852D01*
X30527596Y-48531471D01*
X30575215Y-48626710D01*
X30575215Y-48864805D01*
X30527596Y-48960043D01*
X30479977Y-49007662D01*
X30384739Y-49055281D01*
X30099024Y-49055281D01*
X30003786Y-49007662D01*
X29956167Y-48960043D01*
X29956167Y-45388281D02*
X30575215Y-45388281D01*
X30241881Y-45769233D01*
X30384739Y-45769233D01*
X30479977Y-45816852D01*
X30527596Y-45864471D01*
X30575215Y-45959710D01*
X30575215Y-46197805D01*
X30527596Y-46293043D01*
X30479977Y-46340662D01*
X30384739Y-46388281D01*
X30099024Y-46388281D01*
X30003786Y-46340662D01*
X29956167Y-46293043D01*
X30003786Y-42816519D02*
X30051405Y-42768900D01*
X30146643Y-42721281D01*
X30384739Y-42721281D01*
X30479977Y-42768900D01*
X30527596Y-42816519D01*
X30575215Y-42911757D01*
X30575215Y-43006995D01*
X30527596Y-43149852D01*
X29956167Y-43721281D01*
X30575215Y-43721281D01*
X30575215Y-41181281D02*
X30003786Y-41181281D01*
X30289500Y-41181281D02*
X30289500Y-40181281D01*
X30194262Y-40324138D01*
X30099024Y-40419376D01*
X30003786Y-40466995D01*
X29956167Y-37006281D02*
X30575215Y-37006281D01*
X30241881Y-37387233D01*
X30384739Y-37387233D01*
X30479977Y-37434852D01*
X30527596Y-37482471D01*
X30575215Y-37577710D01*
X30575215Y-37815805D01*
X30527596Y-37911043D01*
X30479977Y-37958662D01*
X30384739Y-38006281D01*
X30099024Y-38006281D01*
X30003786Y-37958662D01*
X29956167Y-37911043D01*
X30003786Y-34561519D02*
X30051405Y-34513900D01*
X30146643Y-34466281D01*
X30384739Y-34466281D01*
X30479977Y-34513900D01*
X30527596Y-34561519D01*
X30575215Y-34656757D01*
X30575215Y-34751995D01*
X30527596Y-34894852D01*
X29956167Y-35466281D01*
X30575215Y-35466281D01*
X30575215Y-32799281D02*
X30003786Y-32799281D01*
X30289500Y-32799281D02*
X30289500Y-31799281D01*
X30194262Y-31942138D01*
X30099024Y-32037376D01*
X30003786Y-32084995D01*
X28471881Y-52103233D02*
X29186167Y-52103233D01*
X29329024Y-52150853D01*
X29424262Y-52246091D01*
X29471881Y-52388948D01*
X29471881Y-52484186D01*
X29471881Y-51627043D02*
X28471881Y-51627043D01*
X28471881Y-51246090D01*
X28519500Y-51150852D01*
X28567119Y-51103233D01*
X28662357Y-51055614D01*
X28805214Y-51055614D01*
X28900452Y-51103233D01*
X28948071Y-51150852D01*
X28995690Y-51246090D01*
X28995690Y-51627043D01*
X28805214Y-50198471D02*
X29471881Y-50198471D01*
X28424262Y-50436567D02*
X29138548Y-50674662D01*
X29138548Y-50055614D01*
X28344881Y-43975233D02*
X29059167Y-43975233D01*
X29202024Y-44022853D01*
X29297262Y-44118091D01*
X29344881Y-44260948D01*
X29344881Y-44356186D01*
X29344881Y-43499043D02*
X28344881Y-43499043D01*
X28344881Y-43118090D01*
X28392500Y-43022852D01*
X28440119Y-42975233D01*
X28535357Y-42927614D01*
X28678214Y-42927614D01*
X28773452Y-42975233D01*
X28821071Y-43022852D01*
X28868690Y-43118090D01*
X28868690Y-43499043D01*
X28344881Y-42594281D02*
X28344881Y-41975233D01*
X28725833Y-42308567D01*
X28725833Y-42165709D01*
X28773452Y-42070471D01*
X28821071Y-42022852D01*
X28916310Y-41975233D01*
X29154405Y-41975233D01*
X29249643Y-42022852D01*
X29297262Y-42070471D01*
X29344881Y-42165709D01*
X29344881Y-42451424D01*
X29297262Y-42546662D01*
X29249643Y-42594281D01*
X28344881Y-35847233D02*
X29059167Y-35847233D01*
X29202024Y-35894853D01*
X29297262Y-35990091D01*
X29344881Y-36132948D01*
X29344881Y-36228186D01*
X29344881Y-35371043D02*
X28344881Y-35371043D01*
X28344881Y-34990090D01*
X28392500Y-34894852D01*
X28440119Y-34847233D01*
X28535357Y-34799614D01*
X28678214Y-34799614D01*
X28773452Y-34847233D01*
X28821071Y-34894852D01*
X28868690Y-34990090D01*
X28868690Y-35371043D01*
X29344881Y-33847233D02*
X29344881Y-34418662D01*
X29344881Y-34132948D02*
X28344881Y-34132948D01*
X28487738Y-34228186D01*
X28582976Y-34323424D01*
X28630595Y-34418662D01*
X28344881Y-28862233D02*
X29059167Y-28862233D01*
X29202024Y-28909853D01*
X29297262Y-29005091D01*
X29344881Y-29147948D01*
X29344881Y-29243186D01*
X29344881Y-28386043D02*
X28344881Y-28386043D01*
X28344881Y-28005090D01*
X28392500Y-27909852D01*
X28440119Y-27862233D01*
X28535357Y-27814614D01*
X28678214Y-27814614D01*
X28773452Y-27862233D01*
X28821071Y-27909852D01*
X28868690Y-28005090D01*
X28868690Y-28386043D01*
X28440119Y-27433662D02*
X28392500Y-27386043D01*
X28344881Y-27290805D01*
X28344881Y-27052709D01*
X28392500Y-26957471D01*
X28440119Y-26909852D01*
X28535357Y-26862233D01*
X28630595Y-26862233D01*
X28773452Y-26909852D01*
X29344881Y-27481281D01*
X29344881Y-26862233D01*
X57880405Y-70518281D02*
X57308976Y-70518281D01*
X57594690Y-70518281D02*
X57594690Y-69518281D01*
X57499452Y-69661138D01*
X57404214Y-69756376D01*
X57308976Y-69803995D01*
X58261357Y-69613519D02*
X58308976Y-69565900D01*
X58404214Y-69518281D01*
X58642310Y-69518281D01*
X58737548Y-69565900D01*
X58785167Y-69613519D01*
X58832786Y-69708757D01*
X58832786Y-69803995D01*
X58785167Y-69946852D01*
X58213738Y-70518281D01*
X58832786Y-70518281D01*
X59118500Y-69518281D02*
X59451833Y-70518281D01*
X59785167Y-69518281D01*
X60118500Y-70137329D02*
X60880405Y-70137329D01*
X60499453Y-70518281D02*
X60499453Y-69756376D01*
X52736881Y-70423043D02*
X52689262Y-70470662D01*
X52546405Y-70518281D01*
X52451167Y-70518281D01*
X52308309Y-70470662D01*
X52213071Y-70375424D01*
X52165452Y-70280186D01*
X52117833Y-70089710D01*
X52117833Y-69946852D01*
X52165452Y-69756376D01*
X52213071Y-69661138D01*
X52308309Y-69565900D01*
X52451167Y-69518281D01*
X52546405Y-69518281D01*
X52689262Y-69565900D01*
X52736881Y-69613519D01*
X53117833Y-70232567D02*
X53594024Y-70232567D01*
X53022595Y-70518281D02*
X53355928Y-69518281D01*
X53689262Y-70518281D01*
X54022595Y-70518281D02*
X54022595Y-69518281D01*
X54594024Y-70518281D01*
X54594024Y-69518281D01*
X55546405Y-70518281D02*
X55070214Y-70518281D01*
X55070214Y-69518281D01*
X47537834Y-70423043D02*
X47490215Y-70470662D01*
X47347358Y-70518281D01*
X47252120Y-70518281D01*
X47109262Y-70470662D01*
X47014024Y-70375424D01*
X46966405Y-70280186D01*
X46918786Y-70089710D01*
X46918786Y-69946852D01*
X46966405Y-69756376D01*
X47014024Y-69661138D01*
X47109262Y-69565900D01*
X47252120Y-69518281D01*
X47347358Y-69518281D01*
X47490215Y-69565900D01*
X47537834Y-69613519D01*
X47918786Y-70232567D02*
X48394977Y-70232567D01*
X47823548Y-70518281D02*
X48156881Y-69518281D01*
X48490215Y-70518281D01*
X48823548Y-70518281D02*
X48823548Y-69518281D01*
X49394977Y-70518281D01*
X49394977Y-69518281D01*
X49871167Y-70518281D02*
X49871167Y-69518281D01*
X49871167Y-69994471D02*
X50442596Y-69994471D01*
X50442596Y-70518281D02*
X50442596Y-69518281D01*
X43116596Y-69565900D02*
X43021358Y-69518281D01*
X42878501Y-69518281D01*
X42735643Y-69565900D01*
X42640405Y-69661138D01*
X42592786Y-69756376D01*
X42545167Y-69946852D01*
X42545167Y-70089710D01*
X42592786Y-70280186D01*
X42640405Y-70375424D01*
X42735643Y-70470662D01*
X42878501Y-70518281D01*
X42973739Y-70518281D01*
X43116596Y-70470662D01*
X43164215Y-70423043D01*
X43164215Y-70089710D01*
X42973739Y-70089710D01*
X43592786Y-70518281D02*
X43592786Y-69518281D01*
X44164215Y-70518281D01*
X44164215Y-69518281D01*
X44640405Y-70518281D02*
X44640405Y-69518281D01*
X44878500Y-69518281D01*
X45021358Y-69565900D01*
X45116596Y-69661138D01*
X45164215Y-69756376D01*
X45211834Y-69946852D01*
X45211834Y-70089710D01*
X45164215Y-70280186D01*
X45116596Y-70375424D01*
X45021358Y-70470662D01*
X44878500Y-70518281D01*
X44640405Y-70518281D01*
D10*
X80708500Y-35648900D02*
G75*
G03X80708500Y-35648900I-1778000J0D01*
G01*
X78930500Y-38188900D02*
X78930500Y-33108900D01*
X76390500Y-35648900D02*
X81470500Y-35648900D01*
X23854112Y-69516900D02*
G75*
G03X23854112Y-69516900I-3101612J0D01*
G01*
X22252500Y-69516900D02*
G75*
G03X22252500Y-69516900I-1500000J0D01*
G01*
X81854112Y-69516900D02*
G75*
G03X81854112Y-69516900I-3101612J0D01*
G01*
X80252500Y-69516900D02*
G75*
G03X80252500Y-69516900I-1500000J0D01*
G01*
X23858945Y-20516900D02*
G75*
G03X23858945Y-20516900I-3106445J0D01*
G01*
X81854112Y-20516900D02*
G75*
G03X81854112Y-20516900I-3101612J0D01*
G01*
X80252500Y-20516900D02*
G75*
G03X80252500Y-20516900I-1500000J0D01*
G01*
X22333639Y-20516900D02*
G75*
G03X22333639Y-20516900I-1581139J0D01*
G01*
X49752500Y-20516900D02*
X49752500Y-19766900D01*
X49752500Y-20516900D02*
X50752500Y-20516900D01*
X49752500Y-20516900D02*
X49002500Y-20516900D01*
X49752500Y-20266900D02*
X49752500Y-21266900D01*
D14*
X34632900Y-57099200D02*
X31203900Y-57099200D01*
X34632900Y-47447200D02*
X31203900Y-47447200D01*
X35775900Y-57607200D02*
X35775900Y-46939200D01*
X34759900Y-54051200D02*
X36029900Y-54051200D01*
X34759900Y-50495200D02*
X36029900Y-50495200D01*
X34632900Y-46939200D02*
X34632900Y-57607200D01*
X31203900Y-57607200D02*
X31203900Y-46939200D01*
X36029900Y-46939200D02*
X31203900Y-46939200D01*
X36029900Y-57607200D02*
X31203900Y-57607200D01*
X36029900Y-57607200D02*
X36029900Y-46939200D01*
D15*
X43877500Y-40091900D02*
X43877500Y-34761900D01*
X43877500Y-34761900D02*
X34227500Y-34761900D01*
X34227500Y-34761900D02*
X34227500Y-40091900D01*
X34227500Y-40091900D02*
X43877500Y-40091900D01*
X43922500Y-37426900D02*
X43877500Y-37426900D01*
X34182500Y-37426900D02*
X34227500Y-37426900D01*
X42388000Y-40091900D02*
X42388000Y-34761900D01*
X43877500Y-45806900D02*
X43877500Y-40476900D01*
X43877500Y-40476900D02*
X34227500Y-40476900D01*
X34227500Y-40476900D02*
X34227500Y-45806900D01*
X34227500Y-45806900D02*
X43877500Y-45806900D01*
X43922500Y-43141900D02*
X43877500Y-43141900D01*
X34182500Y-43141900D02*
X34227500Y-43141900D01*
X42388000Y-45806900D02*
X42388000Y-40476900D01*
X53371363Y-32635500D02*
G75*
G03X48577064Y-32636900I-2396863J-981400D01*
G01*
X53371363Y-34598300D02*
G75*
G02X48577064Y-34596900I-2396863J981400D01*
G01*
X53371363Y-34598300D02*
G75*
G03X53371936Y-32636900I-2396863J981400D01*
G01*
X50974500Y-31066900D02*
X50974500Y-36166900D01*
X51014500Y-31066900D02*
X51014500Y-32636900D01*
X51014500Y-34596900D02*
X51014500Y-36166900D01*
X51054500Y-31067900D02*
X51054500Y-32636900D01*
X51054500Y-34596900D02*
X51054500Y-36165900D01*
X51094500Y-31068900D02*
X51094500Y-32636900D01*
X51094500Y-34596900D02*
X51094500Y-36164900D01*
X51134500Y-31070900D02*
X51134500Y-32636900D01*
X51134500Y-34596900D02*
X51134500Y-36162900D01*
X51174500Y-31073900D02*
X51174500Y-32636900D01*
X51174500Y-34596900D02*
X51174500Y-36159900D01*
X51214500Y-31077900D02*
X51214500Y-32636900D01*
X51214500Y-34596900D02*
X51214500Y-36155900D01*
X51254500Y-31081900D02*
X51254500Y-32636900D01*
X51254500Y-34596900D02*
X51254500Y-36151900D01*
X51294500Y-31085900D02*
X51294500Y-32636900D01*
X51294500Y-34596900D02*
X51294500Y-36147900D01*
X51334500Y-31091900D02*
X51334500Y-32636900D01*
X51334500Y-34596900D02*
X51334500Y-36141900D01*
X51374500Y-31097900D02*
X51374500Y-32636900D01*
X51374500Y-34596900D02*
X51374500Y-36135900D01*
X51414500Y-31103900D02*
X51414500Y-32636900D01*
X51414500Y-34596900D02*
X51414500Y-36129900D01*
X51454500Y-31110900D02*
X51454500Y-32636900D01*
X51454500Y-34596900D02*
X51454500Y-36122900D01*
X51494500Y-31118900D02*
X51494500Y-32636900D01*
X51494500Y-34596900D02*
X51494500Y-36114900D01*
X51534500Y-31127900D02*
X51534500Y-32636900D01*
X51534500Y-34596900D02*
X51534500Y-36105900D01*
X51574500Y-31136900D02*
X51574500Y-32636900D01*
X51574500Y-34596900D02*
X51574500Y-36096900D01*
X51614500Y-31146900D02*
X51614500Y-32636900D01*
X51614500Y-34596900D02*
X51614500Y-36086900D01*
X51654500Y-31156900D02*
X51654500Y-32636900D01*
X51654500Y-34596900D02*
X51654500Y-36076900D01*
X51695500Y-31168900D02*
X51695500Y-32636900D01*
X51695500Y-34596900D02*
X51695500Y-36064900D01*
X51735500Y-31180900D02*
X51735500Y-32636900D01*
X51735500Y-34596900D02*
X51735500Y-36052900D01*
X51775500Y-31192900D02*
X51775500Y-32636900D01*
X51775500Y-34596900D02*
X51775500Y-36040900D01*
X51815500Y-31206900D02*
X51815500Y-32636900D01*
X51815500Y-34596900D02*
X51815500Y-36026900D01*
X51855500Y-31220900D02*
X51855500Y-32636900D01*
X51855500Y-34596900D02*
X51855500Y-36012900D01*
X51895500Y-31234900D02*
X51895500Y-32636900D01*
X51895500Y-34596900D02*
X51895500Y-35998900D01*
X51935500Y-31250900D02*
X51935500Y-32636900D01*
X51935500Y-34596900D02*
X51935500Y-35982900D01*
X51975500Y-31266900D02*
X51975500Y-32636900D01*
X51975500Y-34596900D02*
X51975500Y-35966900D01*
X52015500Y-31283900D02*
X52015500Y-32636900D01*
X52015500Y-34596900D02*
X52015500Y-35949900D01*
X52055500Y-31301900D02*
X52055500Y-32636900D01*
X52055500Y-34596900D02*
X52055500Y-35931900D01*
X52095500Y-31320900D02*
X52095500Y-32636900D01*
X52095500Y-34596900D02*
X52095500Y-35912900D01*
X52135500Y-31340900D02*
X52135500Y-32636900D01*
X52135500Y-34596900D02*
X52135500Y-35892900D01*
X52175500Y-31360900D02*
X52175500Y-32636900D01*
X52175500Y-34596900D02*
X52175500Y-35872900D01*
X52215500Y-31382900D02*
X52215500Y-32636900D01*
X52215500Y-34596900D02*
X52215500Y-35850900D01*
X52255500Y-31404900D02*
X52255500Y-32636900D01*
X52255500Y-34596900D02*
X52255500Y-35828900D01*
X52295500Y-31427900D02*
X52295500Y-32636900D01*
X52295500Y-34596900D02*
X52295500Y-35805900D01*
X52335500Y-31451900D02*
X52335500Y-32636900D01*
X52335500Y-34596900D02*
X52335500Y-35781900D01*
X52375500Y-31476900D02*
X52375500Y-32636900D01*
X52375500Y-34596900D02*
X52375500Y-35756900D01*
X52415500Y-31503900D02*
X52415500Y-32636900D01*
X52415500Y-34596900D02*
X52415500Y-35729900D01*
X52455500Y-31530900D02*
X52455500Y-32636900D01*
X52455500Y-34596900D02*
X52455500Y-35702900D01*
X52495500Y-31558900D02*
X52495500Y-32636900D01*
X52495500Y-34596900D02*
X52495500Y-35674900D01*
X52535500Y-31588900D02*
X52535500Y-32636900D01*
X52535500Y-34596900D02*
X52535500Y-35644900D01*
X52575500Y-31619900D02*
X52575500Y-32636900D01*
X52575500Y-34596900D02*
X52575500Y-35613900D01*
X52615500Y-31651900D02*
X52615500Y-32636900D01*
X52615500Y-34596900D02*
X52615500Y-35581900D01*
X52655500Y-31684900D02*
X52655500Y-32636900D01*
X52655500Y-34596900D02*
X52655500Y-35548900D01*
X52695500Y-31719900D02*
X52695500Y-32636900D01*
X52695500Y-34596900D02*
X52695500Y-35513900D01*
X52735500Y-31755900D02*
X52735500Y-32636900D01*
X52735500Y-34596900D02*
X52735500Y-35477900D01*
X52775500Y-31793900D02*
X52775500Y-32636900D01*
X52775500Y-34596900D02*
X52775500Y-35439900D01*
X52815500Y-31833900D02*
X52815500Y-32636900D01*
X52815500Y-34596900D02*
X52815500Y-35399900D01*
X52855500Y-31874900D02*
X52855500Y-32636900D01*
X52855500Y-34596900D02*
X52855500Y-35358900D01*
X52895500Y-31917900D02*
X52895500Y-32636900D01*
X52895500Y-34596900D02*
X52895500Y-35315900D01*
X52935500Y-31962900D02*
X52935500Y-32636900D01*
X52935500Y-34596900D02*
X52935500Y-35270900D01*
X52975500Y-32010900D02*
X52975500Y-35222900D01*
X53015500Y-32060900D02*
X53015500Y-35172900D01*
X53055500Y-32112900D02*
X53055500Y-35120900D01*
X53095500Y-32168900D02*
X53095500Y-35064900D01*
X53135500Y-32226900D02*
X53135500Y-35006900D01*
X53175500Y-32289900D02*
X53175500Y-34943900D01*
X53215500Y-32355900D02*
X53215500Y-34877900D01*
X53255500Y-32427900D02*
X53255500Y-34805900D01*
X53295500Y-32504900D02*
X53295500Y-34728900D01*
X53335500Y-32588900D02*
X53335500Y-34644900D01*
X53375500Y-32682900D02*
X53375500Y-34550900D01*
X53415500Y-32787900D02*
X53415500Y-34445900D01*
X53455500Y-32909900D02*
X53455500Y-34323900D01*
X53495500Y-33057900D02*
X53495500Y-34175900D01*
X53535500Y-33262900D02*
X53535500Y-33970900D01*
X47774500Y-33616900D02*
X48974500Y-33616900D01*
X48374500Y-32966900D02*
X48374500Y-34266900D01*
X38542500Y-29552900D02*
G75*
G03X38542500Y-29552900I-4090000J0D01*
G01*
X34452500Y-25502900D02*
X34452500Y-33602900D01*
X34492500Y-25502900D02*
X34492500Y-33602900D01*
X34532500Y-25502900D02*
X34532500Y-33602900D01*
X34572500Y-25503900D02*
X34572500Y-33601900D01*
X34612500Y-25505900D02*
X34612500Y-33599900D01*
X34652500Y-25506900D02*
X34652500Y-33598900D01*
X34692500Y-25509900D02*
X34692500Y-33595900D01*
X34732500Y-25511900D02*
X34732500Y-33593900D01*
X34772500Y-25514900D02*
X34772500Y-33590900D01*
X34812500Y-25517900D02*
X34812500Y-33587900D01*
X34852500Y-25521900D02*
X34852500Y-33583900D01*
X34892500Y-25525900D02*
X34892500Y-33579900D01*
X34932500Y-25530900D02*
X34932500Y-33574900D01*
X34972500Y-25535900D02*
X34972500Y-33569900D01*
X35012500Y-25540900D02*
X35012500Y-33564900D01*
X35052500Y-25546900D02*
X35052500Y-33558900D01*
X35092500Y-25552900D02*
X35092500Y-33552900D01*
X35132500Y-25558900D02*
X35132500Y-33546900D01*
X35173500Y-25565900D02*
X35173500Y-33539900D01*
X35213500Y-25573900D02*
X35213500Y-33531900D01*
X35253500Y-25581900D02*
X35253500Y-28572900D01*
X35253500Y-30532900D02*
X35253500Y-33523900D01*
X35293500Y-25589900D02*
X35293500Y-28572900D01*
X35293500Y-30532900D02*
X35293500Y-33515900D01*
X35333500Y-25597900D02*
X35333500Y-28572900D01*
X35333500Y-30532900D02*
X35333500Y-33507900D01*
X35373500Y-25606900D02*
X35373500Y-28572900D01*
X35373500Y-30532900D02*
X35373500Y-33498900D01*
X35413500Y-25616900D02*
X35413500Y-28572900D01*
X35413500Y-30532900D02*
X35413500Y-33488900D01*
X35453500Y-25626900D02*
X35453500Y-28572900D01*
X35453500Y-30532900D02*
X35453500Y-33478900D01*
X35493500Y-25636900D02*
X35493500Y-28572900D01*
X35493500Y-30532900D02*
X35493500Y-33468900D01*
X35533500Y-25647900D02*
X35533500Y-28572900D01*
X35533500Y-30532900D02*
X35533500Y-33457900D01*
X35573500Y-25658900D02*
X35573500Y-28572900D01*
X35573500Y-30532900D02*
X35573500Y-33446900D01*
X35613500Y-25669900D02*
X35613500Y-28572900D01*
X35613500Y-30532900D02*
X35613500Y-33435900D01*
X35653500Y-25682900D02*
X35653500Y-28572900D01*
X35653500Y-30532900D02*
X35653500Y-33422900D01*
X35693500Y-25694900D02*
X35693500Y-28572900D01*
X35693500Y-30532900D02*
X35693500Y-33410900D01*
X35733500Y-25707900D02*
X35733500Y-28572900D01*
X35733500Y-30532900D02*
X35733500Y-33397900D01*
X35773500Y-25720900D02*
X35773500Y-28572900D01*
X35773500Y-30532900D02*
X35773500Y-33384900D01*
X35813500Y-25734900D02*
X35813500Y-28572900D01*
X35813500Y-30532900D02*
X35813500Y-33370900D01*
X35853500Y-25749900D02*
X35853500Y-28572900D01*
X35853500Y-30532900D02*
X35853500Y-33355900D01*
X35893500Y-25763900D02*
X35893500Y-28572900D01*
X35893500Y-30532900D02*
X35893500Y-33341900D01*
X35933500Y-25779900D02*
X35933500Y-28572900D01*
X35933500Y-30532900D02*
X35933500Y-33325900D01*
X35973500Y-25794900D02*
X35973500Y-28572900D01*
X35973500Y-30532900D02*
X35973500Y-33310900D01*
X36013500Y-25811900D02*
X36013500Y-28572900D01*
X36013500Y-30532900D02*
X36013500Y-33293900D01*
X36053500Y-25827900D02*
X36053500Y-28572900D01*
X36053500Y-30532900D02*
X36053500Y-33277900D01*
X36093500Y-25845900D02*
X36093500Y-28572900D01*
X36093500Y-30532900D02*
X36093500Y-33259900D01*
X36133500Y-25862900D02*
X36133500Y-28572900D01*
X36133500Y-30532900D02*
X36133500Y-33242900D01*
X36173500Y-25881900D02*
X36173500Y-28572900D01*
X36173500Y-30532900D02*
X36173500Y-33223900D01*
X36213500Y-25900900D02*
X36213500Y-28572900D01*
X36213500Y-30532900D02*
X36213500Y-33204900D01*
X36253500Y-25919900D02*
X36253500Y-28572900D01*
X36253500Y-30532900D02*
X36253500Y-33185900D01*
X36293500Y-25939900D02*
X36293500Y-28572900D01*
X36293500Y-30532900D02*
X36293500Y-33165900D01*
X36333500Y-25959900D02*
X36333500Y-28572900D01*
X36333500Y-30532900D02*
X36333500Y-33145900D01*
X36373500Y-25980900D02*
X36373500Y-28572900D01*
X36373500Y-30532900D02*
X36373500Y-33124900D01*
X36413500Y-26002900D02*
X36413500Y-28572900D01*
X36413500Y-30532900D02*
X36413500Y-33102900D01*
X36453500Y-26024900D02*
X36453500Y-28572900D01*
X36453500Y-30532900D02*
X36453500Y-33080900D01*
X36493500Y-26047900D02*
X36493500Y-28572900D01*
X36493500Y-30532900D02*
X36493500Y-33057900D01*
X36533500Y-26070900D02*
X36533500Y-28572900D01*
X36533500Y-30532900D02*
X36533500Y-33034900D01*
X36573500Y-26094900D02*
X36573500Y-28572900D01*
X36573500Y-30532900D02*
X36573500Y-33010900D01*
X36613500Y-26118900D02*
X36613500Y-28572900D01*
X36613500Y-30532900D02*
X36613500Y-32986900D01*
X36653500Y-26144900D02*
X36653500Y-28572900D01*
X36653500Y-30532900D02*
X36653500Y-32960900D01*
X36693500Y-26169900D02*
X36693500Y-28572900D01*
X36693500Y-30532900D02*
X36693500Y-32935900D01*
X36733500Y-26196900D02*
X36733500Y-28572900D01*
X36733500Y-30532900D02*
X36733500Y-32908900D01*
X36773500Y-26223900D02*
X36773500Y-28572900D01*
X36773500Y-30532900D02*
X36773500Y-32881900D01*
X36813500Y-26251900D02*
X36813500Y-28572900D01*
X36813500Y-30532900D02*
X36813500Y-32853900D01*
X36853500Y-26280900D02*
X36853500Y-28572900D01*
X36853500Y-30532900D02*
X36853500Y-32824900D01*
X36893500Y-26309900D02*
X36893500Y-28572900D01*
X36893500Y-30532900D02*
X36893500Y-32795900D01*
X36933500Y-26339900D02*
X36933500Y-28572900D01*
X36933500Y-30532900D02*
X36933500Y-32765900D01*
X36973500Y-26370900D02*
X36973500Y-28572900D01*
X36973500Y-30532900D02*
X36973500Y-32734900D01*
X37013500Y-26402900D02*
X37013500Y-28572900D01*
X37013500Y-30532900D02*
X37013500Y-32702900D01*
X37053500Y-26434900D02*
X37053500Y-28572900D01*
X37053500Y-30532900D02*
X37053500Y-32670900D01*
X37093500Y-26468900D02*
X37093500Y-28572900D01*
X37093500Y-30532900D02*
X37093500Y-32636900D01*
X37133500Y-26502900D02*
X37133500Y-28572900D01*
X37133500Y-30532900D02*
X37133500Y-32602900D01*
X37173500Y-26537900D02*
X37173500Y-28572900D01*
X37173500Y-30532900D02*
X37173500Y-32567900D01*
X37213500Y-26573900D02*
X37213500Y-32531900D01*
X37253500Y-26610900D02*
X37253500Y-32494900D01*
X37293500Y-26648900D02*
X37293500Y-32456900D01*
X37333500Y-26687900D02*
X37333500Y-32417900D01*
X37373500Y-26728900D02*
X37373500Y-32376900D01*
X37413500Y-26769900D02*
X37413500Y-32335900D01*
X37453500Y-26812900D02*
X37453500Y-32292900D01*
X37493500Y-26855900D02*
X37493500Y-32249900D01*
X37533500Y-26900900D02*
X37533500Y-32204900D01*
X37573500Y-26947900D02*
X37573500Y-32157900D01*
X37613500Y-26995900D02*
X37613500Y-32109900D01*
X37653500Y-27044900D02*
X37653500Y-32060900D01*
X37693500Y-27095900D02*
X37693500Y-32009900D01*
X37733500Y-27148900D02*
X37733500Y-31956900D01*
X37773500Y-27203900D02*
X37773500Y-31901900D01*
X37813500Y-27259900D02*
X37813500Y-31845900D01*
X37853500Y-27318900D02*
X37853500Y-31786900D01*
X37893500Y-27379900D02*
X37893500Y-31725900D01*
X37933500Y-27443900D02*
X37933500Y-31661900D01*
X37973500Y-27509900D02*
X37973500Y-31595900D01*
X38013500Y-27578900D02*
X38013500Y-31526900D01*
X38053500Y-27650900D02*
X38053500Y-31454900D01*
X38093500Y-27726900D02*
X38093500Y-31378900D01*
X38133500Y-27807900D02*
X38133500Y-31297900D01*
X38173500Y-27892900D02*
X38173500Y-31212900D01*
X38213500Y-27982900D02*
X38213500Y-31122900D01*
X38253500Y-28079900D02*
X38253500Y-31025900D01*
X38293500Y-28183900D02*
X38293500Y-30921900D01*
X38333500Y-28298900D02*
X38333500Y-30806900D01*
X38373500Y-28425900D02*
X38373500Y-30679900D01*
X38413500Y-28569900D02*
X38413500Y-30535900D01*
X38453500Y-28738900D02*
X38453500Y-30366900D01*
X38493500Y-28954900D02*
X38493500Y-30150900D01*
X38533500Y-29306900D02*
X38533500Y-29798900D01*
X30502500Y-29552900D02*
X31702500Y-29552900D01*
X31102500Y-28902900D02*
X31102500Y-30202900D01*
D14*
X56378500Y-68222300D02*
X56378500Y-68722300D01*
X60878500Y-64222300D02*
G75*
G03X60878500Y-64222300I-2000000J0D01*
G01*
X55878500Y-64222300D02*
G75*
G03X55878500Y-64222300I-2000000J0D01*
G01*
X51378500Y-68222300D02*
X51378500Y-68722300D01*
X46378500Y-68222300D02*
X46378500Y-68722300D01*
X50878500Y-64222300D02*
G75*
G03X50878500Y-64222300I-2000000J0D01*
G01*
X45878500Y-64222300D02*
G75*
G03X45878500Y-64222300I-2000000J0D01*
G01*
X41378500Y-66722300D02*
X61378500Y-66722300D01*
X41378500Y-61822300D02*
X61378500Y-61822300D01*
X41378500Y-68222300D02*
X61378500Y-68222300D01*
X41378500Y-68722300D02*
X61378500Y-68722300D01*
X61378500Y-68722300D02*
X61378500Y-58922300D01*
X61378500Y-58922300D02*
X41378500Y-58922300D01*
X41378500Y-58922300D02*
X41378500Y-68722300D01*
D15*
X53371363Y-27174500D02*
G75*
G03X48577064Y-27175900I-2396863J-981400D01*
G01*
X53371363Y-29137300D02*
G75*
G02X48577064Y-29135900I-2396863J981400D01*
G01*
X53371363Y-29137300D02*
G75*
G03X53371936Y-27175900I-2396863J981400D01*
G01*
X50974500Y-25605900D02*
X50974500Y-30705900D01*
X51014500Y-25605900D02*
X51014500Y-27175900D01*
X51014500Y-29135900D02*
X51014500Y-30705900D01*
X51054500Y-25606900D02*
X51054500Y-27175900D01*
X51054500Y-29135900D02*
X51054500Y-30704900D01*
X51094500Y-25607900D02*
X51094500Y-27175900D01*
X51094500Y-29135900D02*
X51094500Y-30703900D01*
X51134500Y-25609900D02*
X51134500Y-27175900D01*
X51134500Y-29135900D02*
X51134500Y-30701900D01*
X51174500Y-25612900D02*
X51174500Y-27175900D01*
X51174500Y-29135900D02*
X51174500Y-30698900D01*
X51214500Y-25616900D02*
X51214500Y-27175900D01*
X51214500Y-29135900D02*
X51214500Y-30694900D01*
X51254500Y-25620900D02*
X51254500Y-27175900D01*
X51254500Y-29135900D02*
X51254500Y-30690900D01*
X51294500Y-25624900D02*
X51294500Y-27175900D01*
X51294500Y-29135900D02*
X51294500Y-30686900D01*
X51334500Y-25630900D02*
X51334500Y-27175900D01*
X51334500Y-29135900D02*
X51334500Y-30680900D01*
X51374500Y-25636900D02*
X51374500Y-27175900D01*
X51374500Y-29135900D02*
X51374500Y-30674900D01*
X51414500Y-25642900D02*
X51414500Y-27175900D01*
X51414500Y-29135900D02*
X51414500Y-30668900D01*
X51454500Y-25649900D02*
X51454500Y-27175900D01*
X51454500Y-29135900D02*
X51454500Y-30661900D01*
X51494500Y-25657900D02*
X51494500Y-27175900D01*
X51494500Y-29135900D02*
X51494500Y-30653900D01*
X51534500Y-25666900D02*
X51534500Y-27175900D01*
X51534500Y-29135900D02*
X51534500Y-30644900D01*
X51574500Y-25675900D02*
X51574500Y-27175900D01*
X51574500Y-29135900D02*
X51574500Y-30635900D01*
X51614500Y-25685900D02*
X51614500Y-27175900D01*
X51614500Y-29135900D02*
X51614500Y-30625900D01*
X51654500Y-25695900D02*
X51654500Y-27175900D01*
X51654500Y-29135900D02*
X51654500Y-30615900D01*
X51695500Y-25707900D02*
X51695500Y-27175900D01*
X51695500Y-29135900D02*
X51695500Y-30603900D01*
X51735500Y-25719900D02*
X51735500Y-27175900D01*
X51735500Y-29135900D02*
X51735500Y-30591900D01*
X51775500Y-25731900D02*
X51775500Y-27175900D01*
X51775500Y-29135900D02*
X51775500Y-30579900D01*
X51815500Y-25745900D02*
X51815500Y-27175900D01*
X51815500Y-29135900D02*
X51815500Y-30565900D01*
X51855500Y-25759900D02*
X51855500Y-27175900D01*
X51855500Y-29135900D02*
X51855500Y-30551900D01*
X51895500Y-25773900D02*
X51895500Y-27175900D01*
X51895500Y-29135900D02*
X51895500Y-30537900D01*
X51935500Y-25789900D02*
X51935500Y-27175900D01*
X51935500Y-29135900D02*
X51935500Y-30521900D01*
X51975500Y-25805900D02*
X51975500Y-27175900D01*
X51975500Y-29135900D02*
X51975500Y-30505900D01*
X52015500Y-25822900D02*
X52015500Y-27175900D01*
X52015500Y-29135900D02*
X52015500Y-30488900D01*
X52055500Y-25840900D02*
X52055500Y-27175900D01*
X52055500Y-29135900D02*
X52055500Y-30470900D01*
X52095500Y-25859900D02*
X52095500Y-27175900D01*
X52095500Y-29135900D02*
X52095500Y-30451900D01*
X52135500Y-25879900D02*
X52135500Y-27175900D01*
X52135500Y-29135900D02*
X52135500Y-30431900D01*
X52175500Y-25899900D02*
X52175500Y-27175900D01*
X52175500Y-29135900D02*
X52175500Y-30411900D01*
X52215500Y-25921900D02*
X52215500Y-27175900D01*
X52215500Y-29135900D02*
X52215500Y-30389900D01*
X52255500Y-25943900D02*
X52255500Y-27175900D01*
X52255500Y-29135900D02*
X52255500Y-30367900D01*
X52295500Y-25966900D02*
X52295500Y-27175900D01*
X52295500Y-29135900D02*
X52295500Y-30344900D01*
X52335500Y-25990900D02*
X52335500Y-27175900D01*
X52335500Y-29135900D02*
X52335500Y-30320900D01*
X52375500Y-26015900D02*
X52375500Y-27175900D01*
X52375500Y-29135900D02*
X52375500Y-30295900D01*
X52415500Y-26042900D02*
X52415500Y-27175900D01*
X52415500Y-29135900D02*
X52415500Y-30268900D01*
X52455500Y-26069900D02*
X52455500Y-27175900D01*
X52455500Y-29135900D02*
X52455500Y-30241900D01*
X52495500Y-26097900D02*
X52495500Y-27175900D01*
X52495500Y-29135900D02*
X52495500Y-30213900D01*
X52535500Y-26127900D02*
X52535500Y-27175900D01*
X52535500Y-29135900D02*
X52535500Y-30183900D01*
X52575500Y-26158900D02*
X52575500Y-27175900D01*
X52575500Y-29135900D02*
X52575500Y-30152900D01*
X52615500Y-26190900D02*
X52615500Y-27175900D01*
X52615500Y-29135900D02*
X52615500Y-30120900D01*
X52655500Y-26223900D02*
X52655500Y-27175900D01*
X52655500Y-29135900D02*
X52655500Y-30087900D01*
X52695500Y-26258900D02*
X52695500Y-27175900D01*
X52695500Y-29135900D02*
X52695500Y-30052900D01*
X52735500Y-26294900D02*
X52735500Y-27175900D01*
X52735500Y-29135900D02*
X52735500Y-30016900D01*
X52775500Y-26332900D02*
X52775500Y-27175900D01*
X52775500Y-29135900D02*
X52775500Y-29978900D01*
X52815500Y-26372900D02*
X52815500Y-27175900D01*
X52815500Y-29135900D02*
X52815500Y-29938900D01*
X52855500Y-26413900D02*
X52855500Y-27175900D01*
X52855500Y-29135900D02*
X52855500Y-29897900D01*
X52895500Y-26456900D02*
X52895500Y-27175900D01*
X52895500Y-29135900D02*
X52895500Y-29854900D01*
X52935500Y-26501900D02*
X52935500Y-27175900D01*
X52935500Y-29135900D02*
X52935500Y-29809900D01*
X52975500Y-26549900D02*
X52975500Y-29761900D01*
X53015500Y-26599900D02*
X53015500Y-29711900D01*
X53055500Y-26651900D02*
X53055500Y-29659900D01*
X53095500Y-26707900D02*
X53095500Y-29603900D01*
X53135500Y-26765900D02*
X53135500Y-29545900D01*
X53175500Y-26828900D02*
X53175500Y-29482900D01*
X53215500Y-26894900D02*
X53215500Y-29416900D01*
X53255500Y-26966900D02*
X53255500Y-29344900D01*
X53295500Y-27043900D02*
X53295500Y-29267900D01*
X53335500Y-27127900D02*
X53335500Y-29183900D01*
X53375500Y-27221900D02*
X53375500Y-29089900D01*
X53415500Y-27326900D02*
X53415500Y-28984900D01*
X53455500Y-27448900D02*
X53455500Y-28862900D01*
X53495500Y-27596900D02*
X53495500Y-28714900D01*
X53535500Y-27801900D02*
X53535500Y-28509900D01*
X47774500Y-28155900D02*
X48974500Y-28155900D01*
X48374500Y-27505900D02*
X48374500Y-28805900D01*
X21350800Y-55801900D02*
X29470800Y-55801900D01*
X21350800Y-58421900D02*
X29470800Y-58421900D01*
X21350800Y-55801900D02*
X21350800Y-58421900D01*
X29470800Y-55801900D02*
X29470800Y-58421900D01*
X27912500Y-64517900D02*
X19792500Y-64517900D01*
X27912500Y-61897900D02*
X19792500Y-61897900D01*
X27912500Y-64517900D02*
X27912500Y-61897900D01*
X19792500Y-64517900D02*
X19792500Y-61897900D01*
X70766500Y-41323900D02*
X78886500Y-41323900D01*
X70766500Y-43943900D02*
X78886500Y-43943900D01*
X70766500Y-41323900D02*
X70766500Y-43943900D01*
X78886500Y-41323900D02*
X78886500Y-43943900D01*
X70766500Y-44498900D02*
X78886500Y-44498900D01*
X70766500Y-47118900D02*
X78886500Y-47118900D01*
X70766500Y-44498900D02*
X70766500Y-47118900D01*
X78886500Y-44498900D02*
X78886500Y-47118900D01*
X78316835Y-57430292D02*
G75*
G03X75084500Y-57273384I-1672335J-1078608D01*
G01*
X78316835Y-59587508D02*
G75*
G02X75084500Y-59744416I-1672335J1078608D01*
G01*
X77685630Y-57429063D02*
G75*
G03X75603539Y-57428900I-1041130J-1079837D01*
G01*
X77685630Y-59588737D02*
G75*
G02X75603539Y-59588900I-1041130J1079837D01*
G01*
X75084500Y-57272900D02*
X75084500Y-57428900D01*
X75084500Y-59588900D02*
X75084500Y-59744900D01*
X78189835Y-53366292D02*
G75*
G03X74957500Y-53209384I-1672335J-1078608D01*
G01*
X78189835Y-55523508D02*
G75*
G02X74957500Y-55680416I-1672335J1078608D01*
G01*
X77558630Y-53365063D02*
G75*
G03X75476539Y-53364900I-1041130J-1079837D01*
G01*
X77558630Y-55524737D02*
G75*
G02X75476539Y-55524900I-1041130J1079837D01*
G01*
X74957500Y-53208900D02*
X74957500Y-53364900D01*
X74957500Y-55524900D02*
X74957500Y-55680900D01*
X78316835Y-49302292D02*
G75*
G03X75084500Y-49145384I-1672335J-1078608D01*
G01*
X78316835Y-51459508D02*
G75*
G02X75084500Y-51616416I-1672335J1078608D01*
G01*
X77685630Y-49301063D02*
G75*
G03X75603539Y-49300900I-1041130J-1079837D01*
G01*
X77685630Y-51460737D02*
G75*
G02X75603539Y-51460900I-1041130J1079837D01*
G01*
X75084500Y-49144900D02*
X75084500Y-49300900D01*
X75084500Y-51460900D02*
X75084500Y-51616900D01*
D14*
X24955500Y-25234900D02*
X18351500Y-25234900D01*
X18351500Y-25234900D02*
X18351500Y-55206900D01*
X18351500Y-55206900D02*
X24955500Y-55206900D01*
X24955500Y-55206900D02*
X24955500Y-25234900D01*
D15*
X25216500Y-33743900D02*
X25216500Y-38943900D01*
X25216500Y-38943900D02*
X27996500Y-38943900D01*
X27996500Y-38943900D02*
X27996500Y-33743900D01*
X27996500Y-33743900D02*
X25216500Y-33743900D01*
X25216500Y-32473900D02*
X25216500Y-31083900D01*
X25216500Y-31083900D02*
X26606500Y-31083900D01*
X25216500Y-28028900D02*
X25216500Y-30688900D01*
X25216500Y-30688900D02*
X27996500Y-30688900D01*
X27996500Y-30688900D02*
X27996500Y-28028900D01*
X27996500Y-28028900D02*
X25216500Y-28028900D01*
X25216500Y-26758900D02*
X25216500Y-25368900D01*
X25216500Y-25368900D02*
X26606500Y-25368900D01*
X25216500Y-41998900D02*
X25216500Y-47198900D01*
X25216500Y-47198900D02*
X27996500Y-47198900D01*
X27996500Y-47198900D02*
X27996500Y-41998900D01*
X27996500Y-41998900D02*
X25216500Y-41998900D01*
X25216500Y-40728900D02*
X25216500Y-39338900D01*
X25216500Y-39338900D02*
X26606500Y-39338900D01*
X27996500Y-52539900D02*
X27996500Y-47339900D01*
X27996500Y-47339900D02*
X25216500Y-47339900D01*
X25216500Y-47339900D02*
X25216500Y-52539900D01*
X25216500Y-52539900D02*
X27996500Y-52539900D01*
X27996500Y-53809900D02*
X27996500Y-55199900D01*
X27996500Y-55199900D02*
X26606500Y-55199900D01*
X57027500Y-38890900D02*
X65527500Y-38890900D01*
X57027500Y-41550900D02*
X65527500Y-41550900D01*
X57027500Y-38890900D02*
X57027500Y-41550900D01*
X65527500Y-38890900D02*
X65527500Y-41550900D01*
X65527500Y-44852900D02*
X57027500Y-44852900D01*
X65527500Y-42192900D02*
X57027500Y-42192900D01*
X65527500Y-44852900D02*
X65527500Y-42192900D01*
X57027500Y-44852900D02*
X57027500Y-42192900D01*
X48010500Y-38890900D02*
X56510500Y-38890900D01*
X48010500Y-41550900D02*
X56510500Y-41550900D01*
X48010500Y-38890900D02*
X48010500Y-41550900D01*
X56510500Y-38890900D02*
X56510500Y-41550900D01*
X48010500Y-42192900D02*
X56510500Y-42192900D01*
X48010500Y-44852900D02*
X56510500Y-44852900D01*
X48010500Y-42192900D02*
X48010500Y-44852900D01*
X56510500Y-42192900D02*
X56510500Y-44852900D01*
X65155500Y-57178900D02*
X73655500Y-57178900D01*
X65155500Y-59838900D02*
X73655500Y-59838900D01*
X65155500Y-57178900D02*
X65155500Y-59838900D01*
X73655500Y-57178900D02*
X73655500Y-59838900D01*
X37079500Y-61489900D02*
X28579500Y-61489900D01*
X37079500Y-58829900D02*
X28579500Y-58829900D01*
X37079500Y-61489900D02*
X37079500Y-58829900D01*
X28579500Y-61489900D02*
X28579500Y-58829900D01*
X19689500Y-58829900D02*
X28189500Y-58829900D01*
X19689500Y-61489900D02*
X28189500Y-61489900D01*
X19689500Y-58829900D02*
X19689500Y-61489900D01*
X28189500Y-58829900D02*
X28189500Y-61489900D01*
X65155500Y-53114900D02*
X73655500Y-53114900D01*
X65155500Y-55774900D02*
X73655500Y-55774900D01*
X65155500Y-53114900D02*
X65155500Y-55774900D01*
X73655500Y-53114900D02*
X73655500Y-55774900D01*
X28579500Y-61877900D02*
X37079500Y-61877900D01*
X28579500Y-64537900D02*
X37079500Y-64537900D01*
X28579500Y-61877900D02*
X28579500Y-64537900D01*
X37079500Y-61877900D02*
X37079500Y-64537900D01*
X65155500Y-49050900D02*
X73655500Y-49050900D01*
X65155500Y-51710900D02*
X73655500Y-51710900D01*
X65155500Y-49050900D02*
X65155500Y-51710900D01*
X73655500Y-49050900D02*
X73655500Y-51710900D01*
X56077500Y-28806900D02*
G75*
G02X56077500Y-30806900I0J-1000000D01*
G01*
X56077500Y-30806900D02*
X56077500Y-32576900D01*
X56077500Y-32576900D02*
X79177500Y-32576900D01*
X79177500Y-32576900D02*
X79177500Y-27036900D01*
X79177500Y-27036900D02*
X56077500Y-27036900D01*
X56077500Y-27036900D02*
X56077500Y-28806900D01*
X63861300Y-53425600D02*
G75*
G02X63861300Y-51425600I0J1000000D01*
G01*
X63861300Y-51425600D02*
X63861300Y-49655600D01*
X63861300Y-49655600D02*
X53461300Y-49655600D01*
X53461300Y-49655600D02*
X53461300Y-55195600D01*
X53461300Y-55195600D02*
X63861300Y-55195600D01*
X63861300Y-55195600D02*
X63861300Y-53425600D01*
X76629800Y-35460700D02*
G75*
G02X76629800Y-40510700I0J-2525000D01*
G01*
X70229800Y-35460700D02*
G75*
G03X70229800Y-40510700I0J-2525000D01*
G01*
X76629800Y-40510700D02*
X70229800Y-40510700D01*
X76629800Y-35460700D02*
X70229800Y-35460700D01*
X47869500Y-29552900D02*
G75*
G03X47869500Y-29552900I-4090000J0D01*
G01*
X43779500Y-33602900D02*
X43779500Y-25502900D01*
X43739500Y-33602900D02*
X43739500Y-25502900D01*
X43699500Y-33602900D02*
X43699500Y-25502900D01*
X43659500Y-33601900D02*
X43659500Y-25503900D01*
X43619500Y-33599900D02*
X43619500Y-25505900D01*
X43579500Y-33598900D02*
X43579500Y-25506900D01*
X43539500Y-33595900D02*
X43539500Y-25509900D01*
X43499500Y-33593900D02*
X43499500Y-25511900D01*
X43459500Y-33590900D02*
X43459500Y-25514900D01*
X43419500Y-33587900D02*
X43419500Y-25517900D01*
X43379500Y-33583900D02*
X43379500Y-25521900D01*
X43339500Y-33579900D02*
X43339500Y-25525900D01*
X43299500Y-33574900D02*
X43299500Y-25530900D01*
X43259500Y-33569900D02*
X43259500Y-25535900D01*
X43219500Y-33564900D02*
X43219500Y-25540900D01*
X43179500Y-33558900D02*
X43179500Y-25546900D01*
X43139500Y-33552900D02*
X43139500Y-25552900D01*
X43099500Y-33546900D02*
X43099500Y-25558900D01*
X43058500Y-33539900D02*
X43058500Y-25565900D01*
X43018500Y-33531900D02*
X43018500Y-25573900D01*
X42978500Y-33523900D02*
X42978500Y-30532900D01*
X42978500Y-28572900D02*
X42978500Y-25581900D01*
X42938500Y-33515900D02*
X42938500Y-30532900D01*
X42938500Y-28572900D02*
X42938500Y-25589900D01*
X42898500Y-33507900D02*
X42898500Y-30532900D01*
X42898500Y-28572900D02*
X42898500Y-25597900D01*
X42858500Y-33498900D02*
X42858500Y-30532900D01*
X42858500Y-28572900D02*
X42858500Y-25606900D01*
X42818500Y-33488900D02*
X42818500Y-30532900D01*
X42818500Y-28572900D02*
X42818500Y-25616900D01*
X42778500Y-33478900D02*
X42778500Y-30532900D01*
X42778500Y-28572900D02*
X42778500Y-25626900D01*
X42738500Y-33468900D02*
X42738500Y-30532900D01*
X42738500Y-28572900D02*
X42738500Y-25636900D01*
X42698500Y-33457900D02*
X42698500Y-30532900D01*
X42698500Y-28572900D02*
X42698500Y-25647900D01*
X42658500Y-33446900D02*
X42658500Y-30532900D01*
X42658500Y-28572900D02*
X42658500Y-25658900D01*
X42618500Y-33435900D02*
X42618500Y-30532900D01*
X42618500Y-28572900D02*
X42618500Y-25669900D01*
X42578500Y-33422900D02*
X42578500Y-30532900D01*
X42578500Y-28572900D02*
X42578500Y-25682900D01*
X42538500Y-33410900D02*
X42538500Y-30532900D01*
X42538500Y-28572900D02*
X42538500Y-25694900D01*
X42498500Y-33397900D02*
X42498500Y-30532900D01*
X42498500Y-28572900D02*
X42498500Y-25707900D01*
X42458500Y-33384900D02*
X42458500Y-30532900D01*
X42458500Y-28572900D02*
X42458500Y-25720900D01*
X42418500Y-33370900D02*
X42418500Y-30532900D01*
X42418500Y-28572900D02*
X42418500Y-25734900D01*
X42378500Y-33355900D02*
X42378500Y-30532900D01*
X42378500Y-28572900D02*
X42378500Y-25749900D01*
X42338500Y-33341900D02*
X42338500Y-30532900D01*
X42338500Y-28572900D02*
X42338500Y-25763900D01*
X42298500Y-33325900D02*
X42298500Y-30532900D01*
X42298500Y-28572900D02*
X42298500Y-25779900D01*
X42258500Y-33310900D02*
X42258500Y-30532900D01*
X42258500Y-28572900D02*
X42258500Y-25794900D01*
X42218500Y-33293900D02*
X42218500Y-30532900D01*
X42218500Y-28572900D02*
X42218500Y-25811900D01*
X42178500Y-33277900D02*
X42178500Y-30532900D01*
X42178500Y-28572900D02*
X42178500Y-25827900D01*
X42138500Y-33259900D02*
X42138500Y-30532900D01*
X42138500Y-28572900D02*
X42138500Y-25845900D01*
X42098500Y-33242900D02*
X42098500Y-30532900D01*
X42098500Y-28572900D02*
X42098500Y-25862900D01*
X42058500Y-33223900D02*
X42058500Y-30532900D01*
X42058500Y-28572900D02*
X42058500Y-25881900D01*
X42018500Y-33204900D02*
X42018500Y-30532900D01*
X42018500Y-28572900D02*
X42018500Y-25900900D01*
X41978500Y-33185900D02*
X41978500Y-30532900D01*
X41978500Y-28572900D02*
X41978500Y-25919900D01*
X41938500Y-33165900D02*
X41938500Y-30532900D01*
X41938500Y-28572900D02*
X41938500Y-25939900D01*
X41898500Y-33145900D02*
X41898500Y-30532900D01*
X41898500Y-28572900D02*
X41898500Y-25959900D01*
X41858500Y-33124900D02*
X41858500Y-30532900D01*
X41858500Y-28572900D02*
X41858500Y-25980900D01*
X41818500Y-33102900D02*
X41818500Y-30532900D01*
X41818500Y-28572900D02*
X41818500Y-26002900D01*
X41778500Y-33080900D02*
X41778500Y-30532900D01*
X41778500Y-28572900D02*
X41778500Y-26024900D01*
X41738500Y-33057900D02*
X41738500Y-30532900D01*
X41738500Y-28572900D02*
X41738500Y-26047900D01*
X41698500Y-33034900D02*
X41698500Y-30532900D01*
X41698500Y-28572900D02*
X41698500Y-26070900D01*
X41658500Y-33010900D02*
X41658500Y-30532900D01*
X41658500Y-28572900D02*
X41658500Y-26094900D01*
X41618500Y-32986900D02*
X41618500Y-30532900D01*
X41618500Y-28572900D02*
X41618500Y-26118900D01*
X41578500Y-32960900D02*
X41578500Y-30532900D01*
X41578500Y-28572900D02*
X41578500Y-26144900D01*
X41538500Y-32935900D02*
X41538500Y-30532900D01*
X41538500Y-28572900D02*
X41538500Y-26169900D01*
X41498500Y-32908900D02*
X41498500Y-30532900D01*
X41498500Y-28572900D02*
X41498500Y-26196900D01*
X41458500Y-32881900D02*
X41458500Y-30532900D01*
X41458500Y-28572900D02*
X41458500Y-26223900D01*
X41418500Y-32853900D02*
X41418500Y-30532900D01*
X41418500Y-28572900D02*
X41418500Y-26251900D01*
X41378500Y-32824900D02*
X41378500Y-30532900D01*
X41378500Y-28572900D02*
X41378500Y-26280900D01*
X41338500Y-32795900D02*
X41338500Y-30532900D01*
X41338500Y-28572900D02*
X41338500Y-26309900D01*
X41298500Y-32765900D02*
X41298500Y-30532900D01*
X41298500Y-28572900D02*
X41298500Y-26339900D01*
X41258500Y-32734900D02*
X41258500Y-30532900D01*
X41258500Y-28572900D02*
X41258500Y-26370900D01*
X41218500Y-32702900D02*
X41218500Y-30532900D01*
X41218500Y-28572900D02*
X41218500Y-26402900D01*
X41178500Y-32670900D02*
X41178500Y-30532900D01*
X41178500Y-28572900D02*
X41178500Y-26434900D01*
X41138500Y-32636900D02*
X41138500Y-30532900D01*
X41138500Y-28572900D02*
X41138500Y-26468900D01*
X41098500Y-32602900D02*
X41098500Y-30532900D01*
X41098500Y-28572900D02*
X41098500Y-26502900D01*
X41058500Y-32567900D02*
X41058500Y-30532900D01*
X41058500Y-28572900D02*
X41058500Y-26537900D01*
X41018500Y-32531900D02*
X41018500Y-26573900D01*
X40978500Y-32494900D02*
X40978500Y-26610900D01*
X40938500Y-32456900D02*
X40938500Y-26648900D01*
X40898500Y-32417900D02*
X40898500Y-26687900D01*
X40858500Y-32376900D02*
X40858500Y-26728900D01*
X40818500Y-32335900D02*
X40818500Y-26769900D01*
X40778500Y-32292900D02*
X40778500Y-26812900D01*
X40738500Y-32249900D02*
X40738500Y-26855900D01*
X40698500Y-32204900D02*
X40698500Y-26900900D01*
X40658500Y-32157900D02*
X40658500Y-26947900D01*
X40618500Y-32109900D02*
X40618500Y-26995900D01*
X40578500Y-32060900D02*
X40578500Y-27044900D01*
X40538500Y-32009900D02*
X40538500Y-27095900D01*
X40498500Y-31956900D02*
X40498500Y-27148900D01*
X40458500Y-31901900D02*
X40458500Y-27203900D01*
X40418500Y-31845900D02*
X40418500Y-27259900D01*
X40378500Y-31786900D02*
X40378500Y-27318900D01*
X40338500Y-31725900D02*
X40338500Y-27379900D01*
X40298500Y-31661900D02*
X40298500Y-27443900D01*
X40258500Y-31595900D02*
X40258500Y-27509900D01*
X40218500Y-31526900D02*
X40218500Y-27578900D01*
X40178500Y-31454900D02*
X40178500Y-27650900D01*
X40138500Y-31378900D02*
X40138500Y-27726900D01*
X40098500Y-31297900D02*
X40098500Y-27807900D01*
X40058500Y-31212900D02*
X40058500Y-27892900D01*
X40018500Y-31122900D02*
X40018500Y-27982900D01*
X39978500Y-31025900D02*
X39978500Y-28079900D01*
X39938500Y-30921900D02*
X39938500Y-28183900D01*
X39898500Y-30806900D02*
X39898500Y-28298900D01*
X39858500Y-30679900D02*
X39858500Y-28425900D01*
X39818500Y-30535900D02*
X39818500Y-28569900D01*
X39778500Y-30366900D02*
X39778500Y-28738900D01*
X39738500Y-30150900D02*
X39738500Y-28954900D01*
X39698500Y-29798900D02*
X39698500Y-29306900D01*
X47729500Y-29552900D02*
X46529500Y-29552900D01*
X47129500Y-30202900D02*
X47129500Y-28902900D01*
D16*
G36*
X65632094Y-45249158D02*
X65664619Y-45261736D01*
X65714193Y-45286712D01*
X65785374Y-45325876D01*
X65790916Y-45328988D01*
X65856474Y-45366476D01*
X65911798Y-45399319D01*
X65951455Y-45424205D01*
X65970012Y-45437820D01*
X65970531Y-45438487D01*
X65966048Y-45457390D01*
X65945486Y-45499605D01*
X65910183Y-45562832D01*
X65861480Y-45644772D01*
X65800718Y-45743122D01*
X65729236Y-45855585D01*
X65711445Y-45883165D01*
X65665093Y-45959699D01*
X65631342Y-46025556D01*
X65613153Y-46074782D01*
X65611286Y-46084507D01*
X65612115Y-46127312D01*
X65621394Y-46195209D01*
X65637968Y-46283843D01*
X65660680Y-46388859D01*
X65688373Y-46505902D01*
X65719890Y-46630616D01*
X65754075Y-46758645D01*
X65789771Y-46885634D01*
X65825821Y-47007228D01*
X65861068Y-47119072D01*
X65894356Y-47216810D01*
X65924528Y-47296087D01*
X65945561Y-47343122D01*
X65970337Y-47393225D01*
X65993730Y-47441168D01*
X65994997Y-47443793D01*
X66033699Y-47492220D01*
X66090184Y-47524828D01*
X66155939Y-47540454D01*
X66222451Y-47537937D01*
X66281205Y-47516114D01*
X66314258Y-47487382D01*
X66361859Y-47408583D01*
X66396739Y-47310378D01*
X66415877Y-47202779D01*
X66418588Y-47141780D01*
X66407670Y-47027935D01*
X66375624Y-46933660D01*
X66320726Y-46854379D01*
X66303607Y-46836733D01*
X66252661Y-46787235D01*
X66249163Y-46437362D01*
X66245664Y-46087489D01*
X66334818Y-45952531D01*
X66376654Y-45891445D01*
X66416945Y-45836493D01*
X66449943Y-45795336D01*
X66464126Y-45780192D01*
X66504281Y-45742810D01*
X66558665Y-45772098D01*
X66593039Y-45793084D01*
X66611846Y-45809378D01*
X66613049Y-45812307D01*
X66625903Y-45824728D01*
X66647896Y-45833977D01*
X66669150Y-45842313D01*
X66701694Y-45858149D01*
X66748322Y-45883033D01*
X66811829Y-45918509D01*
X66895008Y-45966123D01*
X67000653Y-46027422D01*
X67058062Y-46060932D01*
X67125594Y-46101071D01*
X67169885Y-46129659D01*
X67194855Y-46150039D01*
X67204423Y-46165553D01*
X67202508Y-46179546D01*
X67200911Y-46182796D01*
X67185376Y-46203266D01*
X67152136Y-46241665D01*
X67105062Y-46293696D01*
X67048028Y-46355066D01*
X66998700Y-46407090D01*
X66885030Y-46530567D01*
X66796105Y-46637591D01*
X66731134Y-46729240D01*
X66689321Y-46806588D01*
X66675217Y-46845866D01*
X66669392Y-46880249D01*
X66663375Y-46938899D01*
X66657696Y-47015117D01*
X66652884Y-47102202D01*
X66650619Y-47157268D01*
X66647459Y-47252464D01*
X66646069Y-47322062D01*
X66646858Y-47371409D01*
X66650235Y-47405854D01*
X66656608Y-47430743D01*
X66666387Y-47451425D01*
X66674067Y-47464053D01*
X66718421Y-47512726D01*
X66775574Y-47546645D01*
X66835708Y-47561438D01*
X66880773Y-47556086D01*
X66921576Y-47532930D01*
X66972724Y-47491462D01*
X67027042Y-47438912D01*
X67077357Y-47382516D01*
X67116494Y-47329505D01*
X67130905Y-47303889D01*
X67152491Y-47268814D01*
X67191753Y-47215389D01*
X67245102Y-47147789D01*
X67308952Y-47070190D01*
X67379715Y-46986768D01*
X67453804Y-46901698D01*
X67527632Y-46819155D01*
X67597611Y-46743316D01*
X67660155Y-46678356D01*
X67709260Y-46630669D01*
X67763779Y-46583032D01*
X67809642Y-46547908D01*
X67841811Y-46528949D01*
X67852489Y-46526864D01*
X67868853Y-46535274D01*
X67909671Y-46557846D01*
X67972586Y-46593224D01*
X68055244Y-46640054D01*
X68155289Y-46696981D01*
X68270366Y-46762649D01*
X68398119Y-46835703D01*
X68536194Y-46914788D01*
X68682234Y-46998548D01*
X68833884Y-47085629D01*
X68988790Y-47174676D01*
X69144595Y-47264332D01*
X69298944Y-47353243D01*
X69449482Y-47440054D01*
X69593854Y-47523409D01*
X69729704Y-47601954D01*
X69854677Y-47674333D01*
X69966417Y-47739190D01*
X70062570Y-47795171D01*
X70140779Y-47840920D01*
X70198689Y-47875083D01*
X70233946Y-47896304D01*
X70244165Y-47902963D01*
X70230402Y-47904280D01*
X70187104Y-47905559D01*
X70115714Y-47906796D01*
X70017673Y-47907983D01*
X69894422Y-47909115D01*
X69747403Y-47910186D01*
X69578057Y-47911189D01*
X69387826Y-47912119D01*
X69178151Y-47912968D01*
X68950473Y-47913732D01*
X68706235Y-47914403D01*
X68446877Y-47914976D01*
X68173841Y-47915444D01*
X67888568Y-47915802D01*
X67592500Y-47916042D01*
X67287079Y-47916159D01*
X67158924Y-47916171D01*
X64058970Y-47916171D01*
X64280053Y-47532847D01*
X64326856Y-47451680D01*
X64387102Y-47347166D01*
X64458778Y-47222801D01*
X64539869Y-47082082D01*
X64628362Y-46928503D01*
X64722240Y-46765562D01*
X64819491Y-46596754D01*
X64918100Y-46425575D01*
X65016053Y-46255521D01*
X65040825Y-46212512D01*
X65131152Y-46055857D01*
X65217289Y-45906803D01*
X65297942Y-45767568D01*
X65371816Y-45640371D01*
X65437617Y-45527432D01*
X65494050Y-45430968D01*
X65539821Y-45353200D01*
X65573635Y-45296346D01*
X65594198Y-45262625D01*
X65599953Y-45254040D01*
X65612058Y-45247189D01*
X65632094Y-45249158D01*
X65632094Y-45249158D01*
G37*
X65632094Y-45249158D02*
X65664619Y-45261736D01*
X65714193Y-45286712D01*
X65785374Y-45325876D01*
X65790916Y-45328988D01*
X65856474Y-45366476D01*
X65911798Y-45399319D01*
X65951455Y-45424205D01*
X65970012Y-45437820D01*
X65970531Y-45438487D01*
X65966048Y-45457390D01*
X65945486Y-45499605D01*
X65910183Y-45562832D01*
X65861480Y-45644772D01*
X65800718Y-45743122D01*
X65729236Y-45855585D01*
X65711445Y-45883165D01*
X65665093Y-45959699D01*
X65631342Y-46025556D01*
X65613153Y-46074782D01*
X65611286Y-46084507D01*
X65612115Y-46127312D01*
X65621394Y-46195209D01*
X65637968Y-46283843D01*
X65660680Y-46388859D01*
X65688373Y-46505902D01*
X65719890Y-46630616D01*
X65754075Y-46758645D01*
X65789771Y-46885634D01*
X65825821Y-47007228D01*
X65861068Y-47119072D01*
X65894356Y-47216810D01*
X65924528Y-47296087D01*
X65945561Y-47343122D01*
X65970337Y-47393225D01*
X65993730Y-47441168D01*
X65994997Y-47443793D01*
X66033699Y-47492220D01*
X66090184Y-47524828D01*
X66155939Y-47540454D01*
X66222451Y-47537937D01*
X66281205Y-47516114D01*
X66314258Y-47487382D01*
X66361859Y-47408583D01*
X66396739Y-47310378D01*
X66415877Y-47202779D01*
X66418588Y-47141780D01*
X66407670Y-47027935D01*
X66375624Y-46933660D01*
X66320726Y-46854379D01*
X66303607Y-46836733D01*
X66252661Y-46787235D01*
X66249163Y-46437362D01*
X66245664Y-46087489D01*
X66334818Y-45952531D01*
X66376654Y-45891445D01*
X66416945Y-45836493D01*
X66449943Y-45795336D01*
X66464126Y-45780192D01*
X66504281Y-45742810D01*
X66558665Y-45772098D01*
X66593039Y-45793084D01*
X66611846Y-45809378D01*
X66613049Y-45812307D01*
X66625903Y-45824728D01*
X66647896Y-45833977D01*
X66669150Y-45842313D01*
X66701694Y-45858149D01*
X66748322Y-45883033D01*
X66811829Y-45918509D01*
X66895008Y-45966123D01*
X67000653Y-46027422D01*
X67058062Y-46060932D01*
X67125594Y-46101071D01*
X67169885Y-46129659D01*
X67194855Y-46150039D01*
X67204423Y-46165553D01*
X67202508Y-46179546D01*
X67200911Y-46182796D01*
X67185376Y-46203266D01*
X67152136Y-46241665D01*
X67105062Y-46293696D01*
X67048028Y-46355066D01*
X66998700Y-46407090D01*
X66885030Y-46530567D01*
X66796105Y-46637591D01*
X66731134Y-46729240D01*
X66689321Y-46806588D01*
X66675217Y-46845866D01*
X66669392Y-46880249D01*
X66663375Y-46938899D01*
X66657696Y-47015117D01*
X66652884Y-47102202D01*
X66650619Y-47157268D01*
X66647459Y-47252464D01*
X66646069Y-47322062D01*
X66646858Y-47371409D01*
X66650235Y-47405854D01*
X66656608Y-47430743D01*
X66666387Y-47451425D01*
X66674067Y-47464053D01*
X66718421Y-47512726D01*
X66775574Y-47546645D01*
X66835708Y-47561438D01*
X66880773Y-47556086D01*
X66921576Y-47532930D01*
X66972724Y-47491462D01*
X67027042Y-47438912D01*
X67077357Y-47382516D01*
X67116494Y-47329505D01*
X67130905Y-47303889D01*
X67152491Y-47268814D01*
X67191753Y-47215389D01*
X67245102Y-47147789D01*
X67308952Y-47070190D01*
X67379715Y-46986768D01*
X67453804Y-46901698D01*
X67527632Y-46819155D01*
X67597611Y-46743316D01*
X67660155Y-46678356D01*
X67709260Y-46630669D01*
X67763779Y-46583032D01*
X67809642Y-46547908D01*
X67841811Y-46528949D01*
X67852489Y-46526864D01*
X67868853Y-46535274D01*
X67909671Y-46557846D01*
X67972586Y-46593224D01*
X68055244Y-46640054D01*
X68155289Y-46696981D01*
X68270366Y-46762649D01*
X68398119Y-46835703D01*
X68536194Y-46914788D01*
X68682234Y-46998548D01*
X68833884Y-47085629D01*
X68988790Y-47174676D01*
X69144595Y-47264332D01*
X69298944Y-47353243D01*
X69449482Y-47440054D01*
X69593854Y-47523409D01*
X69729704Y-47601954D01*
X69854677Y-47674333D01*
X69966417Y-47739190D01*
X70062570Y-47795171D01*
X70140779Y-47840920D01*
X70198689Y-47875083D01*
X70233946Y-47896304D01*
X70244165Y-47902963D01*
X70230402Y-47904280D01*
X70187104Y-47905559D01*
X70115714Y-47906796D01*
X70017673Y-47907983D01*
X69894422Y-47909115D01*
X69747403Y-47910186D01*
X69578057Y-47911189D01*
X69387826Y-47912119D01*
X69178151Y-47912968D01*
X68950473Y-47913732D01*
X68706235Y-47914403D01*
X68446877Y-47914976D01*
X68173841Y-47915444D01*
X67888568Y-47915802D01*
X67592500Y-47916042D01*
X67287079Y-47916159D01*
X67158924Y-47916171D01*
X64058970Y-47916171D01*
X64280053Y-47532847D01*
X64326856Y-47451680D01*
X64387102Y-47347166D01*
X64458778Y-47222801D01*
X64539869Y-47082082D01*
X64628362Y-46928503D01*
X64722240Y-46765562D01*
X64819491Y-46596754D01*
X64918100Y-46425575D01*
X65016053Y-46255521D01*
X65040825Y-46212512D01*
X65131152Y-46055857D01*
X65217289Y-45906803D01*
X65297942Y-45767568D01*
X65371816Y-45640371D01*
X65437617Y-45527432D01*
X65494050Y-45430968D01*
X65539821Y-45353200D01*
X65573635Y-45296346D01*
X65594198Y-45262625D01*
X65599953Y-45254040D01*
X65612058Y-45247189D01*
X65632094Y-45249158D01*
G36*
X69297528Y-45192619D02*
X69308908Y-45211693D01*
X69334488Y-45255421D01*
X69373002Y-45321619D01*
X69423186Y-45408102D01*
X69483775Y-45512685D01*
X69553503Y-45633183D01*
X69631107Y-45767412D01*
X69715320Y-45913187D01*
X69804879Y-46068323D01*
X69896998Y-46228000D01*
X69991076Y-46391117D01*
X70081402Y-46547709D01*
X70166665Y-46695506D01*
X70245557Y-46832240D01*
X70316769Y-46955642D01*
X70378991Y-47063444D01*
X70430913Y-47153377D01*
X70471228Y-47223173D01*
X70498624Y-47270564D01*
X70511507Y-47292786D01*
X70532507Y-47330330D01*
X70543925Y-47353831D01*
X70544551Y-47357920D01*
X70530636Y-47350242D01*
X70491941Y-47328203D01*
X70430487Y-47292971D01*
X70348298Y-47245711D01*
X70247396Y-47187589D01*
X70129805Y-47119771D01*
X69997546Y-47043424D01*
X69852642Y-46959714D01*
X69697117Y-46869806D01*
X69532992Y-46774867D01*
X69470549Y-46738732D01*
X69303487Y-46642083D01*
X69144074Y-46549938D01*
X68994355Y-46463475D01*
X68856376Y-46383871D01*
X68732185Y-46312305D01*
X68623827Y-46249955D01*
X68533348Y-46197998D01*
X68462796Y-46157613D01*
X68414215Y-46129978D01*
X68389654Y-46116272D01*
X68387085Y-46114974D01*
X68394569Y-46103220D01*
X68420614Y-46071795D01*
X68462559Y-46023594D01*
X68517746Y-45961510D01*
X68583517Y-45888439D01*
X68657212Y-45807276D01*
X68736173Y-45720916D01*
X68817740Y-45632253D01*
X68899254Y-45544182D01*
X68978057Y-45459599D01*
X69051490Y-45381397D01*
X69116893Y-45312472D01*
X69171608Y-45255719D01*
X69212977Y-45214032D01*
X69227164Y-45200363D01*
X69274180Y-45156201D01*
X69297528Y-45192619D01*
X69297528Y-45192619D01*
G37*
X69297528Y-45192619D02*
X69308908Y-45211693D01*
X69334488Y-45255421D01*
X69373002Y-45321619D01*
X69423186Y-45408102D01*
X69483775Y-45512685D01*
X69553503Y-45633183D01*
X69631107Y-45767412D01*
X69715320Y-45913187D01*
X69804879Y-46068323D01*
X69896998Y-46228000D01*
X69991076Y-46391117D01*
X70081402Y-46547709D01*
X70166665Y-46695506D01*
X70245557Y-46832240D01*
X70316769Y-46955642D01*
X70378991Y-47063444D01*
X70430913Y-47153377D01*
X70471228Y-47223173D01*
X70498624Y-47270564D01*
X70511507Y-47292786D01*
X70532507Y-47330330D01*
X70543925Y-47353831D01*
X70544551Y-47357920D01*
X70530636Y-47350242D01*
X70491941Y-47328203D01*
X70430487Y-47292971D01*
X70348298Y-47245711D01*
X70247396Y-47187589D01*
X70129805Y-47119771D01*
X69997546Y-47043424D01*
X69852642Y-46959714D01*
X69697117Y-46869806D01*
X69532992Y-46774867D01*
X69470549Y-46738732D01*
X69303487Y-46642083D01*
X69144074Y-46549938D01*
X68994355Y-46463475D01*
X68856376Y-46383871D01*
X68732185Y-46312305D01*
X68623827Y-46249955D01*
X68533348Y-46197998D01*
X68462796Y-46157613D01*
X68414215Y-46129978D01*
X68389654Y-46116272D01*
X68387085Y-46114974D01*
X68394569Y-46103220D01*
X68420614Y-46071795D01*
X68462559Y-46023594D01*
X68517746Y-45961510D01*
X68583517Y-45888439D01*
X68657212Y-45807276D01*
X68736173Y-45720916D01*
X68817740Y-45632253D01*
X68899254Y-45544182D01*
X68978057Y-45459599D01*
X69051490Y-45381397D01*
X69116893Y-45312472D01*
X69171608Y-45255719D01*
X69212977Y-45214032D01*
X69227164Y-45200363D01*
X69274180Y-45156201D01*
X69297528Y-45192619D01*
G36*
X67474043Y-42043835D02*
X67497065Y-42081245D01*
X67532534Y-42140514D01*
X67578996Y-42219118D01*
X67634996Y-42314538D01*
X67699081Y-42424250D01*
X67769796Y-42545734D01*
X67845687Y-42676468D01*
X67925299Y-42813930D01*
X68007178Y-42955598D01*
X68089870Y-43098951D01*
X68171921Y-43241467D01*
X68251876Y-43380624D01*
X68328281Y-43513901D01*
X68399682Y-43638776D01*
X68464624Y-43752727D01*
X68521653Y-43853233D01*
X68569315Y-43937772D01*
X68606155Y-44003822D01*
X68630720Y-44048862D01*
X68641554Y-44070370D01*
X68641951Y-44071714D01*
X68628501Y-44089965D01*
X68591114Y-44117882D01*
X68534235Y-44152725D01*
X68462312Y-44191754D01*
X68387015Y-44228843D01*
X68284560Y-44273817D01*
X68176817Y-44314226D01*
X68060073Y-44350969D01*
X67930618Y-44384942D01*
X67784740Y-44417044D01*
X67618726Y-44448173D01*
X67428866Y-44479227D01*
X67232469Y-44508145D01*
X67061834Y-44533800D01*
X66918545Y-44559198D01*
X66799008Y-44585602D01*
X66699630Y-44614273D01*
X66616818Y-44646473D01*
X66546978Y-44683465D01*
X66486518Y-44726512D01*
X66431845Y-44776875D01*
X66414214Y-44795583D01*
X66376000Y-44839139D01*
X66347732Y-44874682D01*
X66334618Y-44895583D01*
X66334268Y-44897297D01*
X66329680Y-44907806D01*
X66313758Y-44907924D01*
X66283266Y-44896254D01*
X66234968Y-44871396D01*
X66165627Y-44831952D01*
X66117439Y-44803587D01*
X66045583Y-44759247D01*
X65989742Y-44721279D01*
X65953667Y-44692416D01*
X65941113Y-44675388D01*
X65941121Y-44675264D01*
X65948906Y-44659037D01*
X65970892Y-44618400D01*
X66005803Y-44555567D01*
X66052363Y-44472752D01*
X66109295Y-44372172D01*
X66175323Y-44256040D01*
X66249172Y-44126571D01*
X66329564Y-43985980D01*
X66415224Y-43836482D01*
X66504876Y-43680292D01*
X66597243Y-43519624D01*
X66691049Y-43356693D01*
X66785018Y-43193713D01*
X66877874Y-43032900D01*
X66968340Y-42876468D01*
X67055141Y-42726633D01*
X67137000Y-42585608D01*
X67212641Y-42455609D01*
X67280787Y-42338849D01*
X67340163Y-42237545D01*
X67389493Y-42153911D01*
X67427500Y-42090162D01*
X67452907Y-42048511D01*
X67464440Y-42031175D01*
X67464923Y-42030805D01*
X67474043Y-42043835D01*
X67474043Y-42043835D01*
G37*
X67474043Y-42043835D02*
X67497065Y-42081245D01*
X67532534Y-42140514D01*
X67578996Y-42219118D01*
X67634996Y-42314538D01*
X67699081Y-42424250D01*
X67769796Y-42545734D01*
X67845687Y-42676468D01*
X67925299Y-42813930D01*
X68007178Y-42955598D01*
X68089870Y-43098951D01*
X68171921Y-43241467D01*
X68251876Y-43380624D01*
X68328281Y-43513901D01*
X68399682Y-43638776D01*
X68464624Y-43752727D01*
X68521653Y-43853233D01*
X68569315Y-43937772D01*
X68606155Y-44003822D01*
X68630720Y-44048862D01*
X68641554Y-44070370D01*
X68641951Y-44071714D01*
X68628501Y-44089965D01*
X68591114Y-44117882D01*
X68534235Y-44152725D01*
X68462312Y-44191754D01*
X68387015Y-44228843D01*
X68284560Y-44273817D01*
X68176817Y-44314226D01*
X68060073Y-44350969D01*
X67930618Y-44384942D01*
X67784740Y-44417044D01*
X67618726Y-44448173D01*
X67428866Y-44479227D01*
X67232469Y-44508145D01*
X67061834Y-44533800D01*
X66918545Y-44559198D01*
X66799008Y-44585602D01*
X66699630Y-44614273D01*
X66616818Y-44646473D01*
X66546978Y-44683465D01*
X66486518Y-44726512D01*
X66431845Y-44776875D01*
X66414214Y-44795583D01*
X66376000Y-44839139D01*
X66347732Y-44874682D01*
X66334618Y-44895583D01*
X66334268Y-44897297D01*
X66329680Y-44907806D01*
X66313758Y-44907924D01*
X66283266Y-44896254D01*
X66234968Y-44871396D01*
X66165627Y-44831952D01*
X66117439Y-44803587D01*
X66045583Y-44759247D01*
X65989742Y-44721279D01*
X65953667Y-44692416D01*
X65941113Y-44675388D01*
X65941121Y-44675264D01*
X65948906Y-44659037D01*
X65970892Y-44618400D01*
X66005803Y-44555567D01*
X66052363Y-44472752D01*
X66109295Y-44372172D01*
X66175323Y-44256040D01*
X66249172Y-44126571D01*
X66329564Y-43985980D01*
X66415224Y-43836482D01*
X66504876Y-43680292D01*
X66597243Y-43519624D01*
X66691049Y-43356693D01*
X66785018Y-43193713D01*
X66877874Y-43032900D01*
X66968340Y-42876468D01*
X67055141Y-42726633D01*
X67137000Y-42585608D01*
X67212641Y-42455609D01*
X67280787Y-42338849D01*
X67340163Y-42237545D01*
X67389493Y-42153911D01*
X67427500Y-42090162D01*
X67452907Y-42048511D01*
X67464440Y-42031175D01*
X67464923Y-42030805D01*
X67474043Y-42043835D01*
D14*
X34656781Y-49415605D02*
X35466305Y-49415605D01*
X35561543Y-49367986D01*
X35609162Y-49320367D01*
X35656781Y-49225129D01*
X35656781Y-49034652D01*
X35609162Y-48939414D01*
X35561543Y-48891795D01*
X35466305Y-48844176D01*
X34656781Y-48844176D01*
X34752019Y-48415605D02*
X34704400Y-48367986D01*
X34656781Y-48272748D01*
X34656781Y-48034652D01*
X34704400Y-47939414D01*
X34752019Y-47891795D01*
X34847257Y-47844176D01*
X34942495Y-47844176D01*
X35085352Y-47891795D01*
X35656781Y-48463224D01*
X35656781Y-47844176D01*
X38060405Y-35974281D02*
X38060405Y-34974281D01*
X38298500Y-34974281D01*
X38441358Y-35021900D01*
X38536596Y-35117138D01*
X38584215Y-35212376D01*
X38631834Y-35402852D01*
X38631834Y-35545710D01*
X38584215Y-35736186D01*
X38536596Y-35831424D01*
X38441358Y-35926662D01*
X38298500Y-35974281D01*
X38060405Y-35974281D01*
X38965167Y-34974281D02*
X39584215Y-34974281D01*
X39250881Y-35355233D01*
X39393739Y-35355233D01*
X39488977Y-35402852D01*
X39536596Y-35450471D01*
X39584215Y-35545710D01*
X39584215Y-35783805D01*
X39536596Y-35879043D01*
X39488977Y-35926662D01*
X39393739Y-35974281D01*
X39108024Y-35974281D01*
X39012786Y-35926662D01*
X38965167Y-35879043D01*
X38187405Y-41816281D02*
X38187405Y-40816281D01*
X38425500Y-40816281D01*
X38568358Y-40863900D01*
X38663596Y-40959138D01*
X38711215Y-41054376D01*
X38758834Y-41244852D01*
X38758834Y-41387710D01*
X38711215Y-41578186D01*
X38663596Y-41673424D01*
X38568358Y-41768662D01*
X38425500Y-41816281D01*
X38187405Y-41816281D01*
X39711215Y-41816281D02*
X39139786Y-41816281D01*
X39425500Y-41816281D02*
X39425500Y-40816281D01*
X39330262Y-40959138D01*
X39235024Y-41054376D01*
X39139786Y-41101995D01*
X49990405Y-32243662D02*
X49895167Y-32291281D01*
X49704690Y-32291281D01*
X49609452Y-32243662D01*
X49561833Y-32196043D01*
X49514214Y-32100805D01*
X49514214Y-31815090D01*
X49561833Y-31719852D01*
X49609452Y-31672233D01*
X49704690Y-31624614D01*
X49895167Y-31624614D01*
X49990405Y-31672233D01*
X50942786Y-32291281D02*
X50371357Y-32291281D01*
X50657071Y-32291281D02*
X50657071Y-31291281D01*
X50561833Y-31434138D01*
X50466595Y-31529376D01*
X50371357Y-31576995D01*
X32942234Y-27331943D02*
X32894615Y-27379562D01*
X32751758Y-27427181D01*
X32656520Y-27427181D01*
X32513662Y-27379562D01*
X32418424Y-27284324D01*
X32370805Y-27189086D01*
X32323186Y-26998610D01*
X32323186Y-26855752D01*
X32370805Y-26665276D01*
X32418424Y-26570038D01*
X32513662Y-26474800D01*
X32656520Y-26427181D01*
X32751758Y-26427181D01*
X32894615Y-26474800D01*
X32942234Y-26522419D01*
X33275567Y-26427181D02*
X33894615Y-26427181D01*
X33561281Y-26808133D01*
X33704139Y-26808133D01*
X33799377Y-26855752D01*
X33846996Y-26903371D01*
X33894615Y-26998610D01*
X33894615Y-27236705D01*
X33846996Y-27331943D01*
X33799377Y-27379562D01*
X33704139Y-27427181D01*
X33418424Y-27427181D01*
X33323186Y-27379562D01*
X33275567Y-27331943D01*
X51165167Y-66876681D02*
X51165167Y-67590967D01*
X51117547Y-67733824D01*
X51022309Y-67829062D01*
X50879452Y-67876681D01*
X50784214Y-67876681D01*
X52165167Y-67876681D02*
X51593738Y-67876681D01*
X51879452Y-67876681D02*
X51879452Y-66876681D01*
X51784214Y-67019538D01*
X51688976Y-67114776D01*
X51593738Y-67162395D01*
X50011034Y-26950943D02*
X49963415Y-26998562D01*
X49820558Y-27046181D01*
X49725320Y-27046181D01*
X49582462Y-26998562D01*
X49487224Y-26903324D01*
X49439605Y-26808086D01*
X49391986Y-26617610D01*
X49391986Y-26474752D01*
X49439605Y-26284276D01*
X49487224Y-26189038D01*
X49582462Y-26093800D01*
X49725320Y-26046181D01*
X49820558Y-26046181D01*
X49963415Y-26093800D01*
X50011034Y-26141419D01*
X50391986Y-26141419D02*
X50439605Y-26093800D01*
X50534843Y-26046181D01*
X50772939Y-26046181D01*
X50868177Y-26093800D01*
X50915796Y-26141419D01*
X50963415Y-26236657D01*
X50963415Y-26331895D01*
X50915796Y-26474752D01*
X50344367Y-27046181D01*
X50963415Y-27046181D01*
X25347634Y-56897543D02*
X25300015Y-56945162D01*
X25157158Y-56992781D01*
X25061920Y-56992781D01*
X24919062Y-56945162D01*
X24823824Y-56849924D01*
X24776205Y-56754686D01*
X24728586Y-56564210D01*
X24728586Y-56421352D01*
X24776205Y-56230876D01*
X24823824Y-56135638D01*
X24919062Y-56040400D01*
X25061920Y-55992781D01*
X25157158Y-55992781D01*
X25300015Y-56040400D01*
X25347634Y-56088019D01*
X26204777Y-56326114D02*
X26204777Y-56992781D01*
X25966681Y-55945162D02*
X25728586Y-56659448D01*
X26347634Y-56659448D01*
X23836334Y-62993543D02*
X23788715Y-63041162D01*
X23645858Y-63088781D01*
X23550620Y-63088781D01*
X23407762Y-63041162D01*
X23312524Y-62945924D01*
X23264905Y-62850686D01*
X23217286Y-62660210D01*
X23217286Y-62517352D01*
X23264905Y-62326876D01*
X23312524Y-62231638D01*
X23407762Y-62136400D01*
X23550620Y-62088781D01*
X23645858Y-62088781D01*
X23788715Y-62136400D01*
X23836334Y-62184019D01*
X24741096Y-62088781D02*
X24264905Y-62088781D01*
X24217286Y-62564971D01*
X24264905Y-62517352D01*
X24360143Y-62469733D01*
X24598239Y-62469733D01*
X24693477Y-62517352D01*
X24741096Y-62564971D01*
X24788715Y-62660210D01*
X24788715Y-62898305D01*
X24741096Y-62993543D01*
X24693477Y-63041162D01*
X24598239Y-63088781D01*
X24360143Y-63088781D01*
X24264905Y-63041162D01*
X24217286Y-62993543D01*
X74572834Y-42356043D02*
X74525215Y-42403662D01*
X74382358Y-42451281D01*
X74287120Y-42451281D01*
X74144262Y-42403662D01*
X74049024Y-42308424D01*
X74001405Y-42213186D01*
X73953786Y-42022710D01*
X73953786Y-41879852D01*
X74001405Y-41689376D01*
X74049024Y-41594138D01*
X74144262Y-41498900D01*
X74287120Y-41451281D01*
X74382358Y-41451281D01*
X74525215Y-41498900D01*
X74572834Y-41546519D01*
X75429977Y-41451281D02*
X75239500Y-41451281D01*
X75144262Y-41498900D01*
X75096643Y-41546519D01*
X75001405Y-41689376D01*
X74953786Y-41879852D01*
X74953786Y-42260805D01*
X75001405Y-42356043D01*
X75049024Y-42403662D01*
X75144262Y-42451281D01*
X75334739Y-42451281D01*
X75429977Y-42403662D01*
X75477596Y-42356043D01*
X75525215Y-42260805D01*
X75525215Y-42022710D01*
X75477596Y-41927471D01*
X75429977Y-41879852D01*
X75334739Y-41832233D01*
X75144262Y-41832233D01*
X75049024Y-41879852D01*
X75001405Y-41927471D01*
X74953786Y-42022710D01*
X74636334Y-45531043D02*
X74588715Y-45578662D01*
X74445858Y-45626281D01*
X74350620Y-45626281D01*
X74207762Y-45578662D01*
X74112524Y-45483424D01*
X74064905Y-45388186D01*
X74017286Y-45197710D01*
X74017286Y-45054852D01*
X74064905Y-44864376D01*
X74112524Y-44769138D01*
X74207762Y-44673900D01*
X74350620Y-44626281D01*
X74445858Y-44626281D01*
X74588715Y-44673900D01*
X74636334Y-44721519D01*
X74969667Y-44626281D02*
X75636334Y-44626281D01*
X75207762Y-45626281D01*
X75969905Y-57310281D02*
X75969905Y-56310281D01*
X76208000Y-56310281D01*
X76350858Y-56357900D01*
X76446096Y-56453138D01*
X76493715Y-56548376D01*
X76541334Y-56738852D01*
X76541334Y-56881710D01*
X76493715Y-57072186D01*
X76446096Y-57167424D01*
X76350858Y-57262662D01*
X76208000Y-57310281D01*
X75969905Y-57310281D01*
X76922286Y-56405519D02*
X76969905Y-56357900D01*
X77065143Y-56310281D01*
X77303239Y-56310281D01*
X77398477Y-56357900D01*
X77446096Y-56405519D01*
X77493715Y-56500757D01*
X77493715Y-56595995D01*
X77446096Y-56738852D01*
X76874667Y-57310281D01*
X77493715Y-57310281D01*
X75906405Y-53309781D02*
X75906405Y-52309781D01*
X76144500Y-52309781D01*
X76287358Y-52357400D01*
X76382596Y-52452638D01*
X76430215Y-52547876D01*
X76477834Y-52738352D01*
X76477834Y-52881210D01*
X76430215Y-53071686D01*
X76382596Y-53166924D01*
X76287358Y-53262162D01*
X76144500Y-53309781D01*
X75906405Y-53309781D01*
X77334977Y-52643114D02*
X77334977Y-53309781D01*
X77096881Y-52262162D02*
X76858786Y-52976448D01*
X77477834Y-52976448D01*
X76033405Y-49182281D02*
X76033405Y-48182281D01*
X76271500Y-48182281D01*
X76414358Y-48229900D01*
X76509596Y-48325138D01*
X76557215Y-48420376D01*
X76604834Y-48610852D01*
X76604834Y-48753710D01*
X76557215Y-48944186D01*
X76509596Y-49039424D01*
X76414358Y-49134662D01*
X76271500Y-49182281D01*
X76033405Y-49182281D01*
X77509596Y-48182281D02*
X77033405Y-48182281D01*
X76985786Y-48658471D01*
X77033405Y-48610852D01*
X77128643Y-48563233D01*
X77366739Y-48563233D01*
X77461977Y-48610852D01*
X77509596Y-48658471D01*
X77557215Y-48753710D01*
X77557215Y-48991805D01*
X77509596Y-49087043D01*
X77461977Y-49134662D01*
X77366739Y-49182281D01*
X77128643Y-49182281D01*
X77033405Y-49134662D01*
X76985786Y-49087043D01*
X21320167Y-31481781D02*
X21320167Y-32196067D01*
X21272547Y-32338924D01*
X21177309Y-32434162D01*
X21034452Y-32481781D01*
X20939214Y-32481781D01*
X21748738Y-31577019D02*
X21796357Y-31529400D01*
X21891595Y-31481781D01*
X22129691Y-31481781D01*
X22224929Y-31529400D01*
X22272548Y-31577019D01*
X22320167Y-31672257D01*
X22320167Y-31767495D01*
X22272548Y-31910352D01*
X21701119Y-32481781D01*
X22320167Y-32481781D01*
X25836667Y-32243781D02*
X25836667Y-32958067D01*
X25789047Y-33100924D01*
X25693809Y-33196162D01*
X25550952Y-33243781D01*
X25455714Y-33243781D01*
X26312857Y-33243781D02*
X26312857Y-32243781D01*
X26693810Y-32243781D01*
X26789048Y-32291400D01*
X26836667Y-32339019D01*
X26884286Y-32434257D01*
X26884286Y-32577114D01*
X26836667Y-32672352D01*
X26789048Y-32719971D01*
X26693810Y-32767590D01*
X26312857Y-32767590D01*
X27836667Y-33243781D02*
X27265238Y-33243781D01*
X27550952Y-33243781D02*
X27550952Y-32243781D01*
X27455714Y-32386638D01*
X27360476Y-32481876D01*
X27265238Y-32529495D01*
X25836667Y-25703281D02*
X25836667Y-26417567D01*
X25789047Y-26560424D01*
X25693809Y-26655662D01*
X25550952Y-26703281D01*
X25455714Y-26703281D01*
X26312857Y-26703281D02*
X26312857Y-25703281D01*
X26693810Y-25703281D01*
X26789048Y-25750900D01*
X26836667Y-25798519D01*
X26884286Y-25893757D01*
X26884286Y-26036614D01*
X26836667Y-26131852D01*
X26789048Y-26179471D01*
X26693810Y-26227090D01*
X26312857Y-26227090D01*
X27265238Y-25798519D02*
X27312857Y-25750900D01*
X27408095Y-25703281D01*
X27646191Y-25703281D01*
X27741429Y-25750900D01*
X27789048Y-25798519D01*
X27836667Y-25893757D01*
X27836667Y-25988995D01*
X27789048Y-26131852D01*
X27217619Y-26703281D01*
X27836667Y-26703281D01*
X25963667Y-39736781D02*
X25963667Y-40451067D01*
X25916047Y-40593924D01*
X25820809Y-40689162D01*
X25677952Y-40736781D01*
X25582714Y-40736781D01*
X26439857Y-40736781D02*
X26439857Y-39736781D01*
X26820810Y-39736781D01*
X26916048Y-39784400D01*
X26963667Y-39832019D01*
X27011286Y-39927257D01*
X27011286Y-40070114D01*
X26963667Y-40165352D01*
X26916048Y-40212971D01*
X26820810Y-40260590D01*
X26439857Y-40260590D01*
X27344619Y-39736781D02*
X27963667Y-39736781D01*
X27630333Y-40117733D01*
X27773191Y-40117733D01*
X27868429Y-40165352D01*
X27916048Y-40212971D01*
X27963667Y-40308210D01*
X27963667Y-40546305D01*
X27916048Y-40641543D01*
X27868429Y-40689162D01*
X27773191Y-40736781D01*
X27487476Y-40736781D01*
X27392238Y-40689162D01*
X27344619Y-40641543D01*
X25773167Y-47610781D02*
X25773167Y-48325067D01*
X25725547Y-48467924D01*
X25630309Y-48563162D01*
X25487452Y-48610781D01*
X25392214Y-48610781D01*
X26249357Y-48610781D02*
X26249357Y-47610781D01*
X26630310Y-47610781D01*
X26725548Y-47658400D01*
X26773167Y-47706019D01*
X26820786Y-47801257D01*
X26820786Y-47944114D01*
X26773167Y-48039352D01*
X26725548Y-48086971D01*
X26630310Y-48134590D01*
X26249357Y-48134590D01*
X27677929Y-47944114D02*
X27677929Y-48610781D01*
X27439833Y-47563162D02*
X27201738Y-48277448D01*
X27820786Y-48277448D01*
X61174334Y-40101781D02*
X60841000Y-39625590D01*
X60602905Y-40101781D02*
X60602905Y-39101781D01*
X60983858Y-39101781D01*
X61079096Y-39149400D01*
X61126715Y-39197019D01*
X61174334Y-39292257D01*
X61174334Y-39435114D01*
X61126715Y-39530352D01*
X61079096Y-39577971D01*
X60983858Y-39625590D01*
X60602905Y-39625590D01*
X62126715Y-40101781D02*
X61555286Y-40101781D01*
X61841000Y-40101781D02*
X61841000Y-39101781D01*
X61745762Y-39244638D01*
X61650524Y-39339876D01*
X61555286Y-39387495D01*
X61047334Y-43403781D02*
X60714000Y-42927590D01*
X60475905Y-43403781D02*
X60475905Y-42403781D01*
X60856858Y-42403781D01*
X60952096Y-42451400D01*
X60999715Y-42499019D01*
X61047334Y-42594257D01*
X61047334Y-42737114D01*
X60999715Y-42832352D01*
X60952096Y-42879971D01*
X60856858Y-42927590D01*
X60475905Y-42927590D01*
X61428286Y-42499019D02*
X61475905Y-42451400D01*
X61571143Y-42403781D01*
X61809239Y-42403781D01*
X61904477Y-42451400D01*
X61952096Y-42499019D01*
X61999715Y-42594257D01*
X61999715Y-42689495D01*
X61952096Y-42832352D01*
X61380667Y-43403781D01*
X61999715Y-43403781D01*
X52157334Y-40101781D02*
X51824000Y-39625590D01*
X51585905Y-40101781D02*
X51585905Y-39101781D01*
X51966858Y-39101781D01*
X52062096Y-39149400D01*
X52109715Y-39197019D01*
X52157334Y-39292257D01*
X52157334Y-39435114D01*
X52109715Y-39530352D01*
X52062096Y-39577971D01*
X51966858Y-39625590D01*
X51585905Y-39625590D01*
X52490667Y-39101781D02*
X53109715Y-39101781D01*
X52776381Y-39482733D01*
X52919239Y-39482733D01*
X53014477Y-39530352D01*
X53062096Y-39577971D01*
X53109715Y-39673210D01*
X53109715Y-39911305D01*
X53062096Y-40006543D01*
X53014477Y-40054162D01*
X52919239Y-40101781D01*
X52633524Y-40101781D01*
X52538286Y-40054162D01*
X52490667Y-40006543D01*
X52347834Y-43403781D02*
X52014500Y-42927590D01*
X51776405Y-43403781D02*
X51776405Y-42403781D01*
X52157358Y-42403781D01*
X52252596Y-42451400D01*
X52300215Y-42499019D01*
X52347834Y-42594257D01*
X52347834Y-42737114D01*
X52300215Y-42832352D01*
X52252596Y-42879971D01*
X52157358Y-42927590D01*
X51776405Y-42927590D01*
X53204977Y-42737114D02*
X53204977Y-43403781D01*
X52966881Y-42356162D02*
X52728786Y-43070448D01*
X53347834Y-43070448D01*
X69302334Y-58453281D02*
X68969000Y-57977090D01*
X68730905Y-58453281D02*
X68730905Y-57453281D01*
X69111858Y-57453281D01*
X69207096Y-57500900D01*
X69254715Y-57548519D01*
X69302334Y-57643757D01*
X69302334Y-57786614D01*
X69254715Y-57881852D01*
X69207096Y-57929471D01*
X69111858Y-57977090D01*
X68730905Y-57977090D01*
X70207096Y-57453281D02*
X69730905Y-57453281D01*
X69683286Y-57929471D01*
X69730905Y-57881852D01*
X69826143Y-57834233D01*
X70064239Y-57834233D01*
X70159477Y-57881852D01*
X70207096Y-57929471D01*
X70254715Y-58024710D01*
X70254715Y-58262805D01*
X70207096Y-58358043D01*
X70159477Y-58405662D01*
X70064239Y-58453281D01*
X69826143Y-58453281D01*
X69730905Y-58405662D01*
X69683286Y-58358043D01*
X32472334Y-60040781D02*
X32139000Y-59564590D01*
X31900905Y-60040781D02*
X31900905Y-59040781D01*
X32281858Y-59040781D01*
X32377096Y-59088400D01*
X32424715Y-59136019D01*
X32472334Y-59231257D01*
X32472334Y-59374114D01*
X32424715Y-59469352D01*
X32377096Y-59516971D01*
X32281858Y-59564590D01*
X31900905Y-59564590D01*
X33329477Y-59040781D02*
X33139000Y-59040781D01*
X33043762Y-59088400D01*
X32996143Y-59136019D01*
X32900905Y-59278876D01*
X32853286Y-59469352D01*
X32853286Y-59850305D01*
X32900905Y-59945543D01*
X32948524Y-59993162D01*
X33043762Y-60040781D01*
X33234239Y-60040781D01*
X33329477Y-59993162D01*
X33377096Y-59945543D01*
X33424715Y-59850305D01*
X33424715Y-59612210D01*
X33377096Y-59516971D01*
X33329477Y-59469352D01*
X33234239Y-59421733D01*
X33043762Y-59421733D01*
X32948524Y-59469352D01*
X32900905Y-59516971D01*
X32853286Y-59612210D01*
X23899834Y-60040781D02*
X23566500Y-59564590D01*
X23328405Y-60040781D02*
X23328405Y-59040781D01*
X23709358Y-59040781D01*
X23804596Y-59088400D01*
X23852215Y-59136019D01*
X23899834Y-59231257D01*
X23899834Y-59374114D01*
X23852215Y-59469352D01*
X23804596Y-59516971D01*
X23709358Y-59564590D01*
X23328405Y-59564590D01*
X24233167Y-59040781D02*
X24899834Y-59040781D01*
X24471262Y-60040781D01*
X69238834Y-54325781D02*
X68905500Y-53849590D01*
X68667405Y-54325781D02*
X68667405Y-53325781D01*
X69048358Y-53325781D01*
X69143596Y-53373400D01*
X69191215Y-53421019D01*
X69238834Y-53516257D01*
X69238834Y-53659114D01*
X69191215Y-53754352D01*
X69143596Y-53801971D01*
X69048358Y-53849590D01*
X68667405Y-53849590D01*
X69810262Y-53754352D02*
X69715024Y-53706733D01*
X69667405Y-53659114D01*
X69619786Y-53563876D01*
X69619786Y-53516257D01*
X69667405Y-53421019D01*
X69715024Y-53373400D01*
X69810262Y-53325781D01*
X70000739Y-53325781D01*
X70095977Y-53373400D01*
X70143596Y-53421019D01*
X70191215Y-53516257D01*
X70191215Y-53563876D01*
X70143596Y-53659114D01*
X70095977Y-53706733D01*
X70000739Y-53754352D01*
X69810262Y-53754352D01*
X69715024Y-53801971D01*
X69667405Y-53849590D01*
X69619786Y-53944829D01*
X69619786Y-54135305D01*
X69667405Y-54230543D01*
X69715024Y-54278162D01*
X69810262Y-54325781D01*
X70000739Y-54325781D01*
X70095977Y-54278162D01*
X70143596Y-54230543D01*
X70191215Y-54135305D01*
X70191215Y-53944829D01*
X70143596Y-53849590D01*
X70095977Y-53801971D01*
X70000739Y-53754352D01*
X32662834Y-63088781D02*
X32329500Y-62612590D01*
X32091405Y-63088781D02*
X32091405Y-62088781D01*
X32472358Y-62088781D01*
X32567596Y-62136400D01*
X32615215Y-62184019D01*
X32662834Y-62279257D01*
X32662834Y-62422114D01*
X32615215Y-62517352D01*
X32567596Y-62564971D01*
X32472358Y-62612590D01*
X32091405Y-62612590D01*
X33139024Y-63088781D02*
X33329500Y-63088781D01*
X33424739Y-63041162D01*
X33472358Y-62993543D01*
X33567596Y-62850686D01*
X33615215Y-62660210D01*
X33615215Y-62279257D01*
X33567596Y-62184019D01*
X33519977Y-62136400D01*
X33424739Y-62088781D01*
X33234262Y-62088781D01*
X33139024Y-62136400D01*
X33091405Y-62184019D01*
X33043786Y-62279257D01*
X33043786Y-62517352D01*
X33091405Y-62612590D01*
X33139024Y-62660210D01*
X33234262Y-62707829D01*
X33424739Y-62707829D01*
X33519977Y-62660210D01*
X33567596Y-62612590D01*
X33615215Y-62517352D01*
X68826143Y-50261781D02*
X68492809Y-49785590D01*
X68254714Y-50261781D02*
X68254714Y-49261781D01*
X68635667Y-49261781D01*
X68730905Y-49309400D01*
X68778524Y-49357019D01*
X68826143Y-49452257D01*
X68826143Y-49595114D01*
X68778524Y-49690352D01*
X68730905Y-49737971D01*
X68635667Y-49785590D01*
X68254714Y-49785590D01*
X69778524Y-50261781D02*
X69207095Y-50261781D01*
X69492809Y-50261781D02*
X69492809Y-49261781D01*
X69397571Y-49404638D01*
X69302333Y-49499876D01*
X69207095Y-49547495D01*
X70397571Y-49261781D02*
X70492810Y-49261781D01*
X70588048Y-49309400D01*
X70635667Y-49357019D01*
X70683286Y-49452257D01*
X70730905Y-49642733D01*
X70730905Y-49880829D01*
X70683286Y-50071305D01*
X70635667Y-50166543D01*
X70588048Y-50214162D01*
X70492810Y-50261781D01*
X70397571Y-50261781D01*
X70302333Y-50214162D01*
X70254714Y-50166543D01*
X70207095Y-50071305D01*
X70159476Y-49880829D01*
X70159476Y-49642733D01*
X70207095Y-49452257D01*
X70254714Y-49357019D01*
X70302333Y-49309400D01*
X70397571Y-49261781D01*
X54529881Y-30568805D02*
X55339405Y-30568805D01*
X55434643Y-30521186D01*
X55482262Y-30473567D01*
X55529881Y-30378329D01*
X55529881Y-30187852D01*
X55482262Y-30092614D01*
X55434643Y-30044995D01*
X55339405Y-29997376D01*
X54529881Y-29997376D01*
X55529881Y-28997376D02*
X55529881Y-29568805D01*
X55529881Y-29283091D02*
X54529881Y-29283091D01*
X54672738Y-29378329D01*
X54767976Y-29473567D01*
X54815595Y-29568805D01*
X64313681Y-53187505D02*
X65123205Y-53187505D01*
X65218443Y-53139886D01*
X65266062Y-53092267D01*
X65313681Y-52997029D01*
X65313681Y-52806552D01*
X65266062Y-52711314D01*
X65218443Y-52663695D01*
X65123205Y-52616076D01*
X64313681Y-52616076D01*
X64313681Y-52235124D02*
X64313681Y-51616076D01*
X64694633Y-51949410D01*
X64694633Y-51806552D01*
X64742252Y-51711314D01*
X64789871Y-51663695D01*
X64885110Y-51616076D01*
X65123205Y-51616076D01*
X65218443Y-51663695D01*
X65266062Y-51711314D01*
X65313681Y-51806552D01*
X65313681Y-52092267D01*
X65266062Y-52187505D01*
X65218443Y-52235124D01*
X73120309Y-39676390D02*
X73120309Y-40152581D01*
X72786976Y-39152581D02*
X73120309Y-39676390D01*
X73453643Y-39152581D01*
X74310786Y-40152581D02*
X73739357Y-40152581D01*
X74025071Y-40152581D02*
X74025071Y-39152581D01*
X73929833Y-39295438D01*
X73834595Y-39390676D01*
X73739357Y-39438295D01*
X44791334Y-27243043D02*
X44743715Y-27290662D01*
X44600858Y-27338281D01*
X44505620Y-27338281D01*
X44362762Y-27290662D01*
X44267524Y-27195424D01*
X44219905Y-27100186D01*
X44172286Y-26909710D01*
X44172286Y-26766852D01*
X44219905Y-26576376D01*
X44267524Y-26481138D01*
X44362762Y-26385900D01*
X44505620Y-26338281D01*
X44600858Y-26338281D01*
X44743715Y-26385900D01*
X44791334Y-26433519D01*
X45362762Y-26766852D02*
X45267524Y-26719233D01*
X45219905Y-26671614D01*
X45172286Y-26576376D01*
X45172286Y-26528757D01*
X45219905Y-26433519D01*
X45267524Y-26385900D01*
X45362762Y-26338281D01*
X45553239Y-26338281D01*
X45648477Y-26385900D01*
X45696096Y-26433519D01*
X45743715Y-26528757D01*
X45743715Y-26576376D01*
X45696096Y-26671614D01*
X45648477Y-26719233D01*
X45553239Y-26766852D01*
X45362762Y-26766852D01*
X45267524Y-26814471D01*
X45219905Y-26862090D01*
X45172286Y-26957329D01*
X45172286Y-27147805D01*
X45219905Y-27243043D01*
X45267524Y-27290662D01*
X45362762Y-27338281D01*
X45553239Y-27338281D01*
X45648477Y-27290662D01*
X45696096Y-27243043D01*
X45743715Y-27147805D01*
X45743715Y-26957329D01*
X45696096Y-26862090D01*
X45648477Y-26814471D01*
X45553239Y-26766852D01*
M02*
