G04 #@! TF.FileFunction,Legend,Bot*
%FSLAX46Y46*%
G04 Gerber Fmt 4.6, Leading zero omitted, Abs format (unit mm)*
G04 Created by KiCad (PCBNEW 4.0.5) date 01/25/17 19:42:48*
%MOMM*%
%LPD*%
G01*
G04 APERTURE LIST*
%ADD10C,0.200000*%
%ADD11C,0.250000*%
%ADD12C,0.187500*%
%ADD13C,0.075000*%
%ADD14C,0.125000*%
%ADD15C,0.150000*%
G04 APERTURE END LIST*
D10*
X75184000Y-62166500D02*
X62420500Y-62166500D01*
X75184000Y-72326500D02*
X75184000Y-62166500D01*
X62420500Y-72326500D02*
X75184000Y-72326500D01*
X62420500Y-62103000D02*
X62420500Y-72326500D01*
D11*
X20772381Y-34544024D02*
X20772381Y-34734500D01*
X20724762Y-34829739D01*
X20677143Y-34877358D01*
X20534286Y-34972596D01*
X20343810Y-35020215D01*
X19962857Y-35020215D01*
X19867619Y-34972596D01*
X19820000Y-34924977D01*
X19772381Y-34829739D01*
X19772381Y-34639262D01*
X19820000Y-34544024D01*
X19867619Y-34496405D01*
X19962857Y-34448786D01*
X20200952Y-34448786D01*
X20296190Y-34496405D01*
X20343810Y-34544024D01*
X20391429Y-34639262D01*
X20391429Y-34829739D01*
X20343810Y-34924977D01*
X20296190Y-34972596D01*
X20200952Y-35020215D01*
X22820381Y-33321596D02*
X22820381Y-32845405D01*
X23296571Y-32797786D01*
X23248952Y-32845405D01*
X23201333Y-32940643D01*
X23201333Y-33178739D01*
X23248952Y-33273977D01*
X23296571Y-33321596D01*
X23391810Y-33369215D01*
X23629905Y-33369215D01*
X23725143Y-33321596D01*
X23772762Y-33273977D01*
X23820381Y-33178739D01*
X23820381Y-32940643D01*
X23772762Y-32845405D01*
X23725143Y-32797786D01*
X19899381Y-46164477D02*
X19899381Y-45974000D01*
X19947000Y-45878762D01*
X19994619Y-45831143D01*
X20137476Y-45735905D01*
X20327952Y-45688286D01*
X20708905Y-45688286D01*
X20804143Y-45735905D01*
X20851762Y-45783524D01*
X20899381Y-45878762D01*
X20899381Y-46069239D01*
X20851762Y-46164477D01*
X20804143Y-46212096D01*
X20708905Y-46259715D01*
X20470810Y-46259715D01*
X20375571Y-46212096D01*
X20327952Y-46164477D01*
X20280333Y-46069239D01*
X20280333Y-45878762D01*
X20327952Y-45783524D01*
X20375571Y-45735905D01*
X20470810Y-45688286D01*
X23693381Y-47466215D02*
X23693381Y-46894786D01*
X23693381Y-47180500D02*
X22693381Y-47180500D01*
X22836238Y-47085262D01*
X22931476Y-46990024D01*
X22979095Y-46894786D01*
D12*
X40528857Y-50686857D02*
X40564571Y-50722571D01*
X40671714Y-50758286D01*
X40743143Y-50758286D01*
X40850286Y-50722571D01*
X40921714Y-50651143D01*
X40957429Y-50579714D01*
X40993143Y-50436857D01*
X40993143Y-50329714D01*
X40957429Y-50186857D01*
X40921714Y-50115429D01*
X40850286Y-50044000D01*
X40743143Y-50008286D01*
X40671714Y-50008286D01*
X40564571Y-50044000D01*
X40528857Y-50079714D01*
X39778857Y-50686857D02*
X39814571Y-50722571D01*
X39921714Y-50758286D01*
X39993143Y-50758286D01*
X40100286Y-50722571D01*
X40171714Y-50651143D01*
X40207429Y-50579714D01*
X40243143Y-50436857D01*
X40243143Y-50329714D01*
X40207429Y-50186857D01*
X40171714Y-50115429D01*
X40100286Y-50044000D01*
X39993143Y-50008286D01*
X39921714Y-50008286D01*
X39814571Y-50044000D01*
X39778857Y-50079714D01*
D10*
X41433296Y-50419000D02*
G75*
G03X41433296Y-50419000I-1110796J0D01*
G01*
D13*
X51342929Y-49809714D02*
X51171500Y-49809714D01*
X51257214Y-50109714D02*
X51257214Y-49809714D01*
X51071500Y-50109714D02*
X51071500Y-49809714D01*
X50971501Y-49809714D02*
X50800072Y-49809714D01*
X50885786Y-50109714D02*
X50885786Y-49809714D01*
X50557215Y-50109714D02*
X50700072Y-50109714D01*
X50700072Y-49809714D01*
X50457215Y-49952571D02*
X50357215Y-49952571D01*
X50314358Y-50109714D02*
X50457215Y-50109714D01*
X50457215Y-49809714D01*
X50314358Y-49809714D01*
X50185786Y-50081143D02*
X50171501Y-50095429D01*
X50185786Y-50109714D01*
X50200072Y-50095429D01*
X50185786Y-50081143D01*
X50185786Y-50109714D01*
X50185786Y-49924000D02*
X50171501Y-49938286D01*
X50185786Y-49952571D01*
X50200072Y-49938286D01*
X50185786Y-49924000D01*
X50185786Y-49952571D01*
X49642930Y-50109714D02*
X49742930Y-49966857D01*
X49814358Y-50109714D02*
X49814358Y-49809714D01*
X49700073Y-49809714D01*
X49671501Y-49824000D01*
X49657216Y-49838286D01*
X49642930Y-49866857D01*
X49642930Y-49909714D01*
X49657216Y-49938286D01*
X49671501Y-49952571D01*
X49700073Y-49966857D01*
X49814358Y-49966857D01*
X49528644Y-50024000D02*
X49385787Y-50024000D01*
X49557216Y-50109714D02*
X49457216Y-49809714D01*
X49357216Y-50109714D01*
X49257215Y-50109714D02*
X49257215Y-49809714D01*
X48971501Y-50109714D02*
X49114358Y-50109714D01*
X49114358Y-49809714D01*
X48871501Y-49995429D02*
X48642930Y-49995429D01*
X48500072Y-50109714D02*
X48500072Y-49809714D01*
X48385787Y-49809714D01*
X48357215Y-49824000D01*
X48342930Y-49838286D01*
X48328644Y-49866857D01*
X48328644Y-49909714D01*
X48342930Y-49938286D01*
X48357215Y-49952571D01*
X48385787Y-49966857D01*
X48500072Y-49966857D01*
X48200072Y-50109714D02*
X48200072Y-49809714D01*
X47885787Y-50081143D02*
X47900073Y-50095429D01*
X47942930Y-50109714D01*
X47971501Y-50109714D01*
X48014358Y-50095429D01*
X48042930Y-50066857D01*
X48057215Y-50038286D01*
X48071501Y-49981143D01*
X48071501Y-49938286D01*
X48057215Y-49881143D01*
X48042930Y-49852571D01*
X48014358Y-49824000D01*
X47971501Y-49809714D01*
X47942930Y-49809714D01*
X47900073Y-49824000D01*
X47885787Y-49838286D01*
X47771501Y-50024000D02*
X47628644Y-50024000D01*
X47800073Y-50109714D02*
X47700073Y-49809714D01*
X47600073Y-50109714D01*
X47500072Y-50109714D02*
X47500072Y-49809714D01*
X47328644Y-50109714D01*
X47328644Y-49809714D01*
X51314357Y-50620429D02*
X51271500Y-50634714D01*
X51200071Y-50634714D01*
X51171500Y-50620429D01*
X51157214Y-50606143D01*
X51142929Y-50577571D01*
X51142929Y-50549000D01*
X51157214Y-50520429D01*
X51171500Y-50506143D01*
X51200071Y-50491857D01*
X51257214Y-50477571D01*
X51285786Y-50463286D01*
X51300071Y-50449000D01*
X51314357Y-50420429D01*
X51314357Y-50391857D01*
X51300071Y-50363286D01*
X51285786Y-50349000D01*
X51257214Y-50334714D01*
X51185786Y-50334714D01*
X51142929Y-50349000D01*
X51014357Y-50634714D02*
X51014357Y-50334714D01*
X50842929Y-50634714D02*
X50971500Y-50463286D01*
X50842929Y-50334714D02*
X51014357Y-50506143D01*
X50714357Y-50334714D02*
X50714357Y-50577571D01*
X50700072Y-50606143D01*
X50685786Y-50620429D01*
X50657215Y-50634714D01*
X50600072Y-50634714D01*
X50571500Y-50620429D01*
X50557215Y-50606143D01*
X50542929Y-50577571D01*
X50542929Y-50334714D01*
X50400071Y-50606143D02*
X50385786Y-50620429D01*
X50400071Y-50634714D01*
X50414357Y-50620429D01*
X50400071Y-50606143D01*
X50400071Y-50634714D01*
X50400071Y-50449000D02*
X50385786Y-50463286D01*
X50400071Y-50477571D01*
X50414357Y-50463286D01*
X50400071Y-50449000D01*
X50400071Y-50477571D01*
X50071501Y-50334714D02*
X49900072Y-50334714D01*
X49985786Y-50634714D02*
X49985786Y-50334714D01*
X49700072Y-50477571D02*
X49657215Y-50491857D01*
X49642930Y-50506143D01*
X49628644Y-50534714D01*
X49628644Y-50577571D01*
X49642930Y-50606143D01*
X49657215Y-50620429D01*
X49685787Y-50634714D01*
X49800072Y-50634714D01*
X49800072Y-50334714D01*
X49700072Y-50334714D01*
X49671501Y-50349000D01*
X49657215Y-50363286D01*
X49642930Y-50391857D01*
X49642930Y-50420429D01*
X49657215Y-50449000D01*
X49671501Y-50463286D01*
X49700072Y-50477571D01*
X49800072Y-50477571D01*
X49500072Y-50634714D02*
X49500072Y-50334714D01*
X49428644Y-50334714D01*
X49385787Y-50349000D01*
X49357215Y-50377571D01*
X49342930Y-50406143D01*
X49328644Y-50463286D01*
X49328644Y-50506143D01*
X49342930Y-50563286D01*
X49357215Y-50591857D01*
X49385787Y-50620429D01*
X49428644Y-50634714D01*
X49500072Y-50634714D01*
X51342929Y-50859714D02*
X51242929Y-51159714D01*
X51142929Y-50859714D01*
X51042928Y-51002571D02*
X50942928Y-51002571D01*
X50900071Y-51159714D02*
X51042928Y-51159714D01*
X51042928Y-50859714D01*
X50900071Y-50859714D01*
X50600071Y-51159714D02*
X50700071Y-51016857D01*
X50771499Y-51159714D02*
X50771499Y-50859714D01*
X50657214Y-50859714D01*
X50628642Y-50874000D01*
X50614357Y-50888286D01*
X50600071Y-50916857D01*
X50600071Y-50959714D01*
X50614357Y-50988286D01*
X50628642Y-51002571D01*
X50657214Y-51016857D01*
X50771499Y-51016857D01*
X50485785Y-51145429D02*
X50442928Y-51159714D01*
X50371499Y-51159714D01*
X50342928Y-51145429D01*
X50328642Y-51131143D01*
X50314357Y-51102571D01*
X50314357Y-51074000D01*
X50328642Y-51045429D01*
X50342928Y-51031143D01*
X50371499Y-51016857D01*
X50428642Y-51002571D01*
X50457214Y-50988286D01*
X50471499Y-50974000D01*
X50485785Y-50945429D01*
X50485785Y-50916857D01*
X50471499Y-50888286D01*
X50457214Y-50874000D01*
X50428642Y-50859714D01*
X50357214Y-50859714D01*
X50314357Y-50874000D01*
X50185785Y-51159714D02*
X50185785Y-50859714D01*
X49985786Y-50859714D02*
X49928643Y-50859714D01*
X49900071Y-50874000D01*
X49871500Y-50902571D01*
X49857214Y-50959714D01*
X49857214Y-51059714D01*
X49871500Y-51116857D01*
X49900071Y-51145429D01*
X49928643Y-51159714D01*
X49985786Y-51159714D01*
X50014357Y-51145429D01*
X50042928Y-51116857D01*
X50057214Y-51059714D01*
X50057214Y-50959714D01*
X50042928Y-50902571D01*
X50014357Y-50874000D01*
X49985786Y-50859714D01*
X49728642Y-51159714D02*
X49728642Y-50859714D01*
X49557214Y-51159714D01*
X49557214Y-50859714D01*
X49414356Y-51131143D02*
X49400071Y-51145429D01*
X49414356Y-51159714D01*
X49428642Y-51145429D01*
X49414356Y-51131143D01*
X49414356Y-51159714D01*
X49414356Y-50974000D02*
X49400071Y-50988286D01*
X49414356Y-51002571D01*
X49428642Y-50988286D01*
X49414356Y-50974000D01*
X49414356Y-51002571D01*
X49042928Y-51159714D02*
X49042928Y-50859714D01*
X48928643Y-50859714D01*
X48900071Y-50874000D01*
X48885786Y-50888286D01*
X48871500Y-50916857D01*
X48871500Y-50959714D01*
X48885786Y-50988286D01*
X48900071Y-51002571D01*
X48928643Y-51016857D01*
X49042928Y-51016857D01*
X48585786Y-51159714D02*
X48757214Y-51159714D01*
X48671500Y-51159714D02*
X48671500Y-50859714D01*
X48700071Y-50902571D01*
X48728643Y-50931143D01*
X48757214Y-50945429D01*
X48471500Y-51074000D02*
X48328643Y-51074000D01*
X48500072Y-51159714D02*
X48400072Y-50859714D01*
X48300072Y-51159714D01*
X51300071Y-52209714D02*
X51300071Y-51909714D01*
X51185786Y-51909714D01*
X51157214Y-51924000D01*
X51142929Y-51938286D01*
X51128643Y-51966857D01*
X51128643Y-52009714D01*
X51142929Y-52038286D01*
X51157214Y-52052571D01*
X51185786Y-52066857D01*
X51300071Y-52066857D01*
X51000071Y-51909714D02*
X51000071Y-52152571D01*
X50985786Y-52181143D01*
X50971500Y-52195429D01*
X50942929Y-52209714D01*
X50885786Y-52209714D01*
X50857214Y-52195429D01*
X50842929Y-52181143D01*
X50828643Y-52152571D01*
X50828643Y-51909714D01*
X50514357Y-52209714D02*
X50614357Y-52066857D01*
X50685785Y-52209714D02*
X50685785Y-51909714D01*
X50571500Y-51909714D01*
X50542928Y-51924000D01*
X50528643Y-51938286D01*
X50514357Y-51966857D01*
X50514357Y-52009714D01*
X50528643Y-52038286D01*
X50542928Y-52052571D01*
X50571500Y-52066857D01*
X50685785Y-52066857D01*
X50385785Y-52209714D02*
X50385785Y-51909714D01*
X50271500Y-51909714D01*
X50242928Y-51924000D01*
X50228643Y-51938286D01*
X50214357Y-51966857D01*
X50214357Y-52009714D01*
X50228643Y-52038286D01*
X50242928Y-52052571D01*
X50271500Y-52066857D01*
X50385785Y-52066857D01*
X50028643Y-51909714D02*
X49971500Y-51909714D01*
X49942928Y-51924000D01*
X49914357Y-51952571D01*
X49900071Y-52009714D01*
X49900071Y-52109714D01*
X49914357Y-52166857D01*
X49942928Y-52195429D01*
X49971500Y-52209714D01*
X50028643Y-52209714D01*
X50057214Y-52195429D01*
X50085785Y-52166857D01*
X50100071Y-52109714D01*
X50100071Y-52009714D01*
X50085785Y-51952571D01*
X50057214Y-51924000D01*
X50028643Y-51909714D01*
X49785785Y-52195429D02*
X49742928Y-52209714D01*
X49671499Y-52209714D01*
X49642928Y-52195429D01*
X49628642Y-52181143D01*
X49614357Y-52152571D01*
X49614357Y-52124000D01*
X49628642Y-52095429D01*
X49642928Y-52081143D01*
X49671499Y-52066857D01*
X49728642Y-52052571D01*
X49757214Y-52038286D01*
X49771499Y-52024000D01*
X49785785Y-51995429D01*
X49785785Y-51966857D01*
X49771499Y-51938286D01*
X49757214Y-51924000D01*
X49728642Y-51909714D01*
X49657214Y-51909714D01*
X49614357Y-51924000D01*
X49485785Y-52052571D02*
X49385785Y-52052571D01*
X49342928Y-52209714D02*
X49485785Y-52209714D01*
X49485785Y-51909714D01*
X49342928Y-51909714D01*
X49214356Y-52181143D02*
X49200071Y-52195429D01*
X49214356Y-52209714D01*
X49228642Y-52195429D01*
X49214356Y-52181143D01*
X49214356Y-52209714D01*
X49214356Y-52024000D02*
X49200071Y-52038286D01*
X49214356Y-52052571D01*
X49228642Y-52038286D01*
X49214356Y-52024000D01*
X49214356Y-52052571D01*
X48671500Y-52209714D02*
X48771500Y-52066857D01*
X48842928Y-52209714D02*
X48842928Y-51909714D01*
X48728643Y-51909714D01*
X48700071Y-51924000D01*
X48685786Y-51938286D01*
X48671500Y-51966857D01*
X48671500Y-52009714D01*
X48685786Y-52038286D01*
X48700071Y-52052571D01*
X48728643Y-52066857D01*
X48842928Y-52066857D01*
X48414357Y-52209714D02*
X48414357Y-52052571D01*
X48428643Y-52024000D01*
X48457214Y-52009714D01*
X48514357Y-52009714D01*
X48542928Y-52024000D01*
X48414357Y-52195429D02*
X48442928Y-52209714D01*
X48514357Y-52209714D01*
X48542928Y-52195429D01*
X48557214Y-52166857D01*
X48557214Y-52138286D01*
X48542928Y-52109714D01*
X48514357Y-52095429D01*
X48442928Y-52095429D01*
X48414357Y-52081143D01*
X48285785Y-52195429D02*
X48257214Y-52209714D01*
X48200071Y-52209714D01*
X48171499Y-52195429D01*
X48157214Y-52166857D01*
X48157214Y-52152571D01*
X48171499Y-52124000D01*
X48200071Y-52109714D01*
X48242928Y-52109714D01*
X48271499Y-52095429D01*
X48285785Y-52066857D01*
X48285785Y-52052571D01*
X48271499Y-52024000D01*
X48242928Y-52009714D01*
X48200071Y-52009714D01*
X48171499Y-52024000D01*
X48028642Y-52009714D02*
X48028642Y-52309714D01*
X48028642Y-52024000D02*
X48000071Y-52009714D01*
X47942928Y-52009714D01*
X47914357Y-52024000D01*
X47900071Y-52038286D01*
X47885785Y-52066857D01*
X47885785Y-52152571D01*
X47900071Y-52181143D01*
X47914357Y-52195429D01*
X47942928Y-52209714D01*
X48000071Y-52209714D01*
X48028642Y-52195429D01*
X47757213Y-52209714D02*
X47757213Y-51909714D01*
X47757213Y-52024000D02*
X47728642Y-52009714D01*
X47671499Y-52009714D01*
X47642928Y-52024000D01*
X47628642Y-52038286D01*
X47614356Y-52066857D01*
X47614356Y-52152571D01*
X47628642Y-52181143D01*
X47642928Y-52195429D01*
X47671499Y-52209714D01*
X47728642Y-52209714D01*
X47757213Y-52195429D01*
X47371499Y-52195429D02*
X47400070Y-52209714D01*
X47457213Y-52209714D01*
X47485784Y-52195429D01*
X47500070Y-52166857D01*
X47500070Y-52052571D01*
X47485784Y-52024000D01*
X47457213Y-52009714D01*
X47400070Y-52009714D01*
X47371499Y-52024000D01*
X47357213Y-52052571D01*
X47357213Y-52081143D01*
X47500070Y-52109714D01*
X47228641Y-52209714D02*
X47228641Y-52009714D01*
X47228641Y-52066857D02*
X47214356Y-52038286D01*
X47200070Y-52024000D01*
X47171499Y-52009714D01*
X47142927Y-52009714D01*
X47042927Y-52209714D02*
X47042927Y-52009714D01*
X47042927Y-52066857D02*
X47028642Y-52038286D01*
X47014356Y-52024000D01*
X46985785Y-52009714D01*
X46957213Y-52009714D01*
X46885785Y-52009714D02*
X46814356Y-52209714D01*
X46742928Y-52009714D02*
X46814356Y-52209714D01*
X46842928Y-52281143D01*
X46857213Y-52295429D01*
X46885785Y-52309714D01*
X46400071Y-52209714D02*
X46400071Y-51909714D01*
X46285786Y-51909714D01*
X46257214Y-51924000D01*
X46242929Y-51938286D01*
X46228643Y-51966857D01*
X46228643Y-52009714D01*
X46242929Y-52038286D01*
X46257214Y-52052571D01*
X46285786Y-52066857D01*
X46400071Y-52066857D01*
X46100071Y-52209714D02*
X46100071Y-51909714D01*
X45557215Y-52181143D02*
X45571501Y-52195429D01*
X45614358Y-52209714D01*
X45642929Y-52209714D01*
X45685786Y-52195429D01*
X45714358Y-52166857D01*
X45728643Y-52138286D01*
X45742929Y-52081143D01*
X45742929Y-52038286D01*
X45728643Y-51981143D01*
X45714358Y-51952571D01*
X45685786Y-51924000D01*
X45642929Y-51909714D01*
X45614358Y-51909714D01*
X45571501Y-51924000D01*
X45557215Y-51938286D01*
X45442929Y-52124000D02*
X45300072Y-52124000D01*
X45471501Y-52209714D02*
X45371501Y-51909714D01*
X45271501Y-52209714D01*
X45171500Y-52209714D02*
X45171500Y-51909714D01*
X45000072Y-52209714D01*
X45000072Y-51909714D01*
X44757214Y-52052571D02*
X44714357Y-52066857D01*
X44700072Y-52081143D01*
X44685786Y-52109714D01*
X44685786Y-52152571D01*
X44700072Y-52181143D01*
X44714357Y-52195429D01*
X44742929Y-52209714D01*
X44857214Y-52209714D01*
X44857214Y-51909714D01*
X44757214Y-51909714D01*
X44728643Y-51924000D01*
X44714357Y-51938286D01*
X44700072Y-51966857D01*
X44700072Y-51995429D01*
X44714357Y-52024000D01*
X44728643Y-52038286D01*
X44757214Y-52052571D01*
X44857214Y-52052571D01*
X44557214Y-51909714D02*
X44557214Y-52152571D01*
X44542929Y-52181143D01*
X44528643Y-52195429D01*
X44500072Y-52209714D01*
X44442929Y-52209714D01*
X44414357Y-52195429D01*
X44400072Y-52181143D01*
X44385786Y-52152571D01*
X44385786Y-51909714D01*
X44257214Y-52195429D02*
X44214357Y-52209714D01*
X44142928Y-52209714D01*
X44114357Y-52195429D01*
X44100071Y-52181143D01*
X44085786Y-52152571D01*
X44085786Y-52124000D01*
X44100071Y-52095429D01*
X44114357Y-52081143D01*
X44142928Y-52066857D01*
X44200071Y-52052571D01*
X44228643Y-52038286D01*
X44242928Y-52024000D01*
X44257214Y-51995429D01*
X44257214Y-51966857D01*
X44242928Y-51938286D01*
X44228643Y-51924000D01*
X44200071Y-51909714D01*
X44128643Y-51909714D01*
X44085786Y-51924000D01*
X43728643Y-52209714D02*
X43728643Y-52009714D01*
X43728643Y-51909714D02*
X43742929Y-51924000D01*
X43728643Y-51938286D01*
X43714358Y-51924000D01*
X43728643Y-51909714D01*
X43728643Y-51938286D01*
X43585786Y-52009714D02*
X43585786Y-52209714D01*
X43585786Y-52038286D02*
X43571501Y-52024000D01*
X43542929Y-52009714D01*
X43500072Y-52009714D01*
X43471501Y-52024000D01*
X43457215Y-52052571D01*
X43457215Y-52209714D01*
X43357215Y-52009714D02*
X43242929Y-52009714D01*
X43314357Y-51909714D02*
X43314357Y-52166857D01*
X43300072Y-52195429D01*
X43271500Y-52209714D01*
X43242929Y-52209714D01*
X43028643Y-52195429D02*
X43057214Y-52209714D01*
X43114357Y-52209714D01*
X43142928Y-52195429D01*
X43157214Y-52166857D01*
X43157214Y-52052571D01*
X43142928Y-52024000D01*
X43114357Y-52009714D01*
X43057214Y-52009714D01*
X43028643Y-52024000D01*
X43014357Y-52052571D01*
X43014357Y-52081143D01*
X43157214Y-52109714D01*
X42885785Y-52209714D02*
X42885785Y-52009714D01*
X42885785Y-52066857D02*
X42871500Y-52038286D01*
X42857214Y-52024000D01*
X42828643Y-52009714D01*
X42800071Y-52009714D01*
X42742929Y-52009714D02*
X42628643Y-52009714D01*
X42700071Y-52209714D02*
X42700071Y-51952571D01*
X42685786Y-51924000D01*
X42657214Y-51909714D01*
X42628643Y-51909714D01*
X42400071Y-52209714D02*
X42400071Y-52052571D01*
X42414357Y-52024000D01*
X42442928Y-52009714D01*
X42500071Y-52009714D01*
X42528642Y-52024000D01*
X42400071Y-52195429D02*
X42428642Y-52209714D01*
X42500071Y-52209714D01*
X42528642Y-52195429D01*
X42542928Y-52166857D01*
X42542928Y-52138286D01*
X42528642Y-52109714D01*
X42500071Y-52095429D01*
X42428642Y-52095429D01*
X42400071Y-52081143D01*
X42128642Y-52195429D02*
X42157213Y-52209714D01*
X42214356Y-52209714D01*
X42242928Y-52195429D01*
X42257213Y-52181143D01*
X42271499Y-52152571D01*
X42271499Y-52066857D01*
X42257213Y-52038286D01*
X42242928Y-52024000D01*
X42214356Y-52009714D01*
X42157213Y-52009714D01*
X42128642Y-52024000D01*
X41885785Y-52195429D02*
X41914356Y-52209714D01*
X41971499Y-52209714D01*
X42000070Y-52195429D01*
X42014356Y-52166857D01*
X42014356Y-52052571D01*
X42000070Y-52024000D01*
X41971499Y-52009714D01*
X41914356Y-52009714D01*
X41885785Y-52024000D01*
X41871499Y-52052571D01*
X41871499Y-52081143D01*
X42014356Y-52109714D01*
X41514356Y-52209714D02*
X41514356Y-51909714D01*
X41514356Y-52052571D02*
X41342928Y-52052571D01*
X41342928Y-52209714D02*
X41342928Y-51909714D01*
X41214356Y-52124000D02*
X41071499Y-52124000D01*
X41242928Y-52209714D02*
X41142928Y-51909714D01*
X41042928Y-52209714D01*
X40985785Y-51909714D02*
X40814356Y-51909714D01*
X40900070Y-52209714D02*
X40900070Y-51909714D01*
X40528643Y-52009714D02*
X40414357Y-52009714D01*
X40485785Y-52209714D02*
X40485785Y-51952571D01*
X40471500Y-51924000D01*
X40442928Y-51909714D01*
X40414357Y-51909714D01*
X40271499Y-52209714D02*
X40300071Y-52195429D01*
X40314356Y-52181143D01*
X40328642Y-52152571D01*
X40328642Y-52066857D01*
X40314356Y-52038286D01*
X40300071Y-52024000D01*
X40271499Y-52009714D01*
X40228642Y-52009714D01*
X40200071Y-52024000D01*
X40185785Y-52038286D01*
X40171499Y-52066857D01*
X40171499Y-52152571D01*
X40185785Y-52181143D01*
X40200071Y-52195429D01*
X40228642Y-52209714D01*
X40271499Y-52209714D01*
X40042927Y-52209714D02*
X40042927Y-52009714D01*
X40042927Y-52066857D02*
X40028642Y-52038286D01*
X40014356Y-52024000D01*
X39985785Y-52009714D01*
X39957213Y-52009714D01*
X51300071Y-52734714D02*
X51300071Y-52434714D01*
X51200071Y-52649000D01*
X51100071Y-52434714D01*
X51100071Y-52734714D01*
X50828643Y-52734714D02*
X50828643Y-52577571D01*
X50842929Y-52549000D01*
X50871500Y-52534714D01*
X50928643Y-52534714D01*
X50957214Y-52549000D01*
X50828643Y-52720429D02*
X50857214Y-52734714D01*
X50928643Y-52734714D01*
X50957214Y-52720429D01*
X50971500Y-52691857D01*
X50971500Y-52663286D01*
X50957214Y-52634714D01*
X50928643Y-52620429D01*
X50857214Y-52620429D01*
X50828643Y-52606143D01*
X50957214Y-52434714D02*
X50942929Y-52449000D01*
X50957214Y-52463286D01*
X50971500Y-52449000D01*
X50957214Y-52434714D01*
X50957214Y-52463286D01*
X50842929Y-52434714D02*
X50828643Y-52449000D01*
X50842929Y-52463286D01*
X50857214Y-52449000D01*
X50842929Y-52434714D01*
X50842929Y-52463286D01*
X50685785Y-52734714D02*
X50685785Y-52534714D01*
X50685785Y-52591857D02*
X50671500Y-52563286D01*
X50657214Y-52549000D01*
X50628643Y-52534714D01*
X50600071Y-52534714D01*
X50500071Y-52734714D02*
X50500071Y-52434714D01*
X50471500Y-52620429D02*
X50385786Y-52734714D01*
X50385786Y-52534714D02*
X50500071Y-52649000D01*
X50214357Y-52734714D02*
X50242929Y-52720429D01*
X50257214Y-52691857D01*
X50257214Y-52434714D01*
X50100071Y-52734714D02*
X50100071Y-52534714D01*
X50100071Y-52434714D02*
X50114357Y-52449000D01*
X50100071Y-52463286D01*
X50085786Y-52449000D01*
X50100071Y-52434714D01*
X50100071Y-52463286D01*
X49957214Y-52534714D02*
X49957214Y-52734714D01*
X49957214Y-52563286D02*
X49942929Y-52549000D01*
X49914357Y-52534714D01*
X49871500Y-52534714D01*
X49842929Y-52549000D01*
X49828643Y-52577571D01*
X49828643Y-52734714D01*
X49457214Y-52734714D02*
X49457214Y-52534714D01*
X49457214Y-52563286D02*
X49442929Y-52549000D01*
X49414357Y-52534714D01*
X49371500Y-52534714D01*
X49342929Y-52549000D01*
X49328643Y-52577571D01*
X49328643Y-52734714D01*
X49328643Y-52577571D02*
X49314357Y-52549000D01*
X49285786Y-52534714D01*
X49242929Y-52534714D01*
X49214357Y-52549000D01*
X49200072Y-52577571D01*
X49200072Y-52734714D01*
X49014357Y-52734714D02*
X49042929Y-52720429D01*
X49057214Y-52706143D01*
X49071500Y-52677571D01*
X49071500Y-52591857D01*
X49057214Y-52563286D01*
X49042929Y-52549000D01*
X49014357Y-52534714D01*
X48971500Y-52534714D01*
X48942929Y-52549000D01*
X48928643Y-52563286D01*
X48914357Y-52591857D01*
X48914357Y-52677571D01*
X48928643Y-52706143D01*
X48942929Y-52720429D01*
X48971500Y-52734714D01*
X49014357Y-52734714D01*
X48657214Y-52734714D02*
X48657214Y-52434714D01*
X48657214Y-52720429D02*
X48685785Y-52734714D01*
X48742928Y-52734714D01*
X48771500Y-52720429D01*
X48785785Y-52706143D01*
X48800071Y-52677571D01*
X48800071Y-52591857D01*
X48785785Y-52563286D01*
X48771500Y-52549000D01*
X48742928Y-52534714D01*
X48685785Y-52534714D01*
X48657214Y-52549000D01*
X48400071Y-52720429D02*
X48428642Y-52734714D01*
X48485785Y-52734714D01*
X48514356Y-52720429D01*
X48528642Y-52691857D01*
X48528642Y-52577571D01*
X48514356Y-52549000D01*
X48485785Y-52534714D01*
X48428642Y-52534714D01*
X48400071Y-52549000D01*
X48385785Y-52577571D01*
X48385785Y-52606143D01*
X48528642Y-52634714D01*
X48214356Y-52734714D02*
X48242928Y-52720429D01*
X48257213Y-52691857D01*
X48257213Y-52434714D01*
X47871499Y-52734714D02*
X47871499Y-52534714D01*
X47871499Y-52591857D02*
X47857214Y-52563286D01*
X47842928Y-52549000D01*
X47814357Y-52534714D01*
X47785785Y-52534714D01*
X47557214Y-52734714D02*
X47557214Y-52577571D01*
X47571500Y-52549000D01*
X47600071Y-52534714D01*
X47657214Y-52534714D01*
X47685785Y-52549000D01*
X47557214Y-52720429D02*
X47585785Y-52734714D01*
X47657214Y-52734714D01*
X47685785Y-52720429D01*
X47700071Y-52691857D01*
X47700071Y-52663286D01*
X47685785Y-52634714D01*
X47657214Y-52620429D01*
X47585785Y-52620429D01*
X47557214Y-52606143D01*
X47414356Y-52734714D02*
X47414356Y-52534714D01*
X47414356Y-52434714D02*
X47428642Y-52449000D01*
X47414356Y-52463286D01*
X47400071Y-52449000D01*
X47414356Y-52434714D01*
X47414356Y-52463286D01*
X47228642Y-52734714D02*
X47257214Y-52720429D01*
X47271499Y-52691857D01*
X47271499Y-52434714D01*
X47142928Y-52534714D02*
X47085785Y-52734714D01*
X47028642Y-52591857D01*
X46971499Y-52734714D01*
X46914356Y-52534714D01*
X46671499Y-52734714D02*
X46671499Y-52577571D01*
X46685785Y-52549000D01*
X46714356Y-52534714D01*
X46771499Y-52534714D01*
X46800070Y-52549000D01*
X46671499Y-52720429D02*
X46700070Y-52734714D01*
X46771499Y-52734714D01*
X46800070Y-52720429D01*
X46814356Y-52691857D01*
X46814356Y-52663286D01*
X46800070Y-52634714D01*
X46771499Y-52620429D01*
X46700070Y-52620429D01*
X46671499Y-52606143D01*
X46557213Y-52534714D02*
X46485784Y-52734714D01*
X46414356Y-52534714D02*
X46485784Y-52734714D01*
X46514356Y-52806143D01*
X46528641Y-52820429D01*
X46557213Y-52834714D01*
X45942928Y-52720429D02*
X45971499Y-52734714D01*
X46028642Y-52734714D01*
X46057214Y-52720429D01*
X46071499Y-52706143D01*
X46085785Y-52677571D01*
X46085785Y-52591857D01*
X46071499Y-52563286D01*
X46057214Y-52549000D01*
X46028642Y-52534714D01*
X45971499Y-52534714D01*
X45942928Y-52549000D01*
X45771499Y-52734714D02*
X45800071Y-52720429D01*
X45814356Y-52706143D01*
X45828642Y-52677571D01*
X45828642Y-52591857D01*
X45814356Y-52563286D01*
X45800071Y-52549000D01*
X45771499Y-52534714D01*
X45728642Y-52534714D01*
X45700071Y-52549000D01*
X45685785Y-52563286D01*
X45671499Y-52591857D01*
X45671499Y-52677571D01*
X45685785Y-52706143D01*
X45700071Y-52720429D01*
X45728642Y-52734714D01*
X45771499Y-52734714D01*
X45542927Y-52534714D02*
X45542927Y-52734714D01*
X45542927Y-52563286D02*
X45528642Y-52549000D01*
X45500070Y-52534714D01*
X45457213Y-52534714D01*
X45428642Y-52549000D01*
X45414356Y-52577571D01*
X45414356Y-52734714D01*
X45314356Y-52534714D02*
X45200070Y-52534714D01*
X45271498Y-52434714D02*
X45271498Y-52691857D01*
X45257213Y-52720429D01*
X45228641Y-52734714D01*
X45200070Y-52734714D01*
X45100069Y-52734714D02*
X45100069Y-52534714D01*
X45100069Y-52591857D02*
X45085784Y-52563286D01*
X45071498Y-52549000D01*
X45042927Y-52534714D01*
X45014355Y-52534714D01*
X44871498Y-52734714D02*
X44900070Y-52720429D01*
X44914355Y-52706143D01*
X44928641Y-52677571D01*
X44928641Y-52591857D01*
X44914355Y-52563286D01*
X44900070Y-52549000D01*
X44871498Y-52534714D01*
X44828641Y-52534714D01*
X44800070Y-52549000D01*
X44785784Y-52563286D01*
X44771498Y-52591857D01*
X44771498Y-52677571D01*
X44785784Y-52706143D01*
X44800070Y-52720429D01*
X44828641Y-52734714D01*
X44871498Y-52734714D01*
X44600069Y-52734714D02*
X44628641Y-52720429D01*
X44642926Y-52691857D01*
X44642926Y-52434714D01*
X44485783Y-52706143D02*
X44471498Y-52720429D01*
X44485783Y-52734714D01*
X44500069Y-52720429D01*
X44485783Y-52706143D01*
X44485783Y-52734714D01*
X51300071Y-53784714D02*
X51300071Y-53484714D01*
X51228643Y-53484714D01*
X51185786Y-53499000D01*
X51157214Y-53527571D01*
X51142929Y-53556143D01*
X51128643Y-53613286D01*
X51128643Y-53656143D01*
X51142929Y-53713286D01*
X51157214Y-53741857D01*
X51185786Y-53770429D01*
X51228643Y-53784714D01*
X51300071Y-53784714D01*
X51000071Y-53627571D02*
X50900071Y-53627571D01*
X50857214Y-53784714D02*
X51000071Y-53784714D01*
X51000071Y-53484714D01*
X50857214Y-53484714D01*
X50742928Y-53770429D02*
X50700071Y-53784714D01*
X50628642Y-53784714D01*
X50600071Y-53770429D01*
X50585785Y-53756143D01*
X50571500Y-53727571D01*
X50571500Y-53699000D01*
X50585785Y-53670429D01*
X50600071Y-53656143D01*
X50628642Y-53641857D01*
X50685785Y-53627571D01*
X50714357Y-53613286D01*
X50728642Y-53599000D01*
X50742928Y-53570429D01*
X50742928Y-53541857D01*
X50728642Y-53513286D01*
X50714357Y-53499000D01*
X50685785Y-53484714D01*
X50614357Y-53484714D01*
X50571500Y-53499000D01*
X50442928Y-53784714D02*
X50442928Y-53484714D01*
X50142929Y-53499000D02*
X50171500Y-53484714D01*
X50214357Y-53484714D01*
X50257214Y-53499000D01*
X50285786Y-53527571D01*
X50300071Y-53556143D01*
X50314357Y-53613286D01*
X50314357Y-53656143D01*
X50300071Y-53713286D01*
X50285786Y-53741857D01*
X50257214Y-53770429D01*
X50214357Y-53784714D01*
X50185786Y-53784714D01*
X50142929Y-53770429D01*
X50128643Y-53756143D01*
X50128643Y-53656143D01*
X50185786Y-53656143D01*
X50000071Y-53784714D02*
X50000071Y-53484714D01*
X49828643Y-53784714D01*
X49828643Y-53484714D01*
X49685785Y-53756143D02*
X49671500Y-53770429D01*
X49685785Y-53784714D01*
X49700071Y-53770429D01*
X49685785Y-53756143D01*
X49685785Y-53784714D01*
X49685785Y-53599000D02*
X49671500Y-53613286D01*
X49685785Y-53627571D01*
X49700071Y-53613286D01*
X49685785Y-53599000D01*
X49685785Y-53627571D01*
X49228643Y-53484714D02*
X49228643Y-53699000D01*
X49242929Y-53741857D01*
X49271500Y-53770429D01*
X49314357Y-53784714D01*
X49342929Y-53784714D01*
X49042929Y-53784714D02*
X49071501Y-53770429D01*
X49085786Y-53756143D01*
X49100072Y-53727571D01*
X49100072Y-53641857D01*
X49085786Y-53613286D01*
X49071501Y-53599000D01*
X49042929Y-53584714D01*
X49000072Y-53584714D01*
X48971501Y-53599000D01*
X48957215Y-53613286D01*
X48942929Y-53641857D01*
X48942929Y-53727571D01*
X48957215Y-53756143D01*
X48971501Y-53770429D01*
X49000072Y-53784714D01*
X49042929Y-53784714D01*
X48814357Y-53584714D02*
X48814357Y-53784714D01*
X48814357Y-53613286D02*
X48800072Y-53599000D01*
X48771500Y-53584714D01*
X48728643Y-53584714D01*
X48700072Y-53599000D01*
X48685786Y-53627571D01*
X48685786Y-53784714D01*
X48414357Y-53784714D02*
X48414357Y-53627571D01*
X48428643Y-53599000D01*
X48457214Y-53584714D01*
X48514357Y-53584714D01*
X48542928Y-53599000D01*
X48414357Y-53770429D02*
X48442928Y-53784714D01*
X48514357Y-53784714D01*
X48542928Y-53770429D01*
X48557214Y-53741857D01*
X48557214Y-53713286D01*
X48542928Y-53684714D01*
X48514357Y-53670429D01*
X48442928Y-53670429D01*
X48414357Y-53656143D01*
X48285785Y-53770429D02*
X48257214Y-53784714D01*
X48200071Y-53784714D01*
X48171499Y-53770429D01*
X48157214Y-53741857D01*
X48157214Y-53727571D01*
X48171499Y-53699000D01*
X48200071Y-53684714D01*
X48242928Y-53684714D01*
X48271499Y-53670429D01*
X48285785Y-53641857D01*
X48285785Y-53627571D01*
X48271499Y-53599000D01*
X48242928Y-53584714D01*
X48200071Y-53584714D01*
X48171499Y-53599000D01*
X47700071Y-53627571D02*
X47657214Y-53641857D01*
X47642929Y-53656143D01*
X47628643Y-53684714D01*
X47628643Y-53727571D01*
X47642929Y-53756143D01*
X47657214Y-53770429D01*
X47685786Y-53784714D01*
X47800071Y-53784714D01*
X47800071Y-53484714D01*
X47700071Y-53484714D01*
X47671500Y-53499000D01*
X47657214Y-53513286D01*
X47642929Y-53541857D01*
X47642929Y-53570429D01*
X47657214Y-53599000D01*
X47671500Y-53613286D01*
X47700071Y-53627571D01*
X47800071Y-53627571D01*
X47500071Y-53584714D02*
X47500071Y-53841857D01*
X47514357Y-53870429D01*
X47542929Y-53884714D01*
X47557214Y-53884714D01*
X47500071Y-53484714D02*
X47514357Y-53499000D01*
X47500071Y-53513286D01*
X47485786Y-53499000D01*
X47500071Y-53484714D01*
X47500071Y-53513286D01*
X47228643Y-53584714D02*
X47228643Y-53784714D01*
X47357214Y-53584714D02*
X47357214Y-53741857D01*
X47342929Y-53770429D01*
X47314357Y-53784714D01*
X47271500Y-53784714D01*
X47242929Y-53770429D01*
X47228643Y-53756143D01*
X47085785Y-53784714D02*
X47085785Y-53584714D01*
X47085785Y-53641857D02*
X47071500Y-53613286D01*
X47057214Y-53599000D01*
X47028643Y-53584714D01*
X47000071Y-53584714D01*
X46785786Y-53770429D02*
X46814357Y-53784714D01*
X46871500Y-53784714D01*
X46900071Y-53770429D01*
X46914357Y-53741857D01*
X46914357Y-53627571D01*
X46900071Y-53599000D01*
X46871500Y-53584714D01*
X46814357Y-53584714D01*
X46785786Y-53599000D01*
X46771500Y-53627571D01*
X46771500Y-53656143D01*
X46914357Y-53684714D01*
X46600071Y-53784714D02*
X46628643Y-53770429D01*
X46642928Y-53741857D01*
X46642928Y-53484714D01*
X46171500Y-53899000D02*
X46185786Y-53884714D01*
X46214357Y-53841857D01*
X46228643Y-53813286D01*
X46242929Y-53770429D01*
X46257214Y-53699000D01*
X46257214Y-53641857D01*
X46242929Y-53570429D01*
X46228643Y-53527571D01*
X46214357Y-53499000D01*
X46185786Y-53456143D01*
X46171500Y-53441857D01*
X46057214Y-53584714D02*
X46057214Y-53841857D01*
X46071500Y-53870429D01*
X46100072Y-53884714D01*
X46114357Y-53884714D01*
X46057214Y-53484714D02*
X46071500Y-53499000D01*
X46057214Y-53513286D01*
X46042929Y-53499000D01*
X46057214Y-53484714D01*
X46057214Y-53513286D01*
X45871500Y-53784714D02*
X45900072Y-53770429D01*
X45914357Y-53756143D01*
X45928643Y-53727571D01*
X45928643Y-53641857D01*
X45914357Y-53613286D01*
X45900072Y-53599000D01*
X45871500Y-53584714D01*
X45828643Y-53584714D01*
X45800072Y-53599000D01*
X45785786Y-53613286D01*
X45771500Y-53641857D01*
X45771500Y-53727571D01*
X45785786Y-53756143D01*
X45800072Y-53770429D01*
X45828643Y-53784714D01*
X45871500Y-53784714D01*
X45642928Y-53584714D02*
X45642928Y-53784714D01*
X45642928Y-53613286D02*
X45628643Y-53599000D01*
X45600071Y-53584714D01*
X45557214Y-53584714D01*
X45528643Y-53599000D01*
X45514357Y-53627571D01*
X45514357Y-53784714D01*
X45242928Y-53784714D02*
X45242928Y-53627571D01*
X45257214Y-53599000D01*
X45285785Y-53584714D01*
X45342928Y-53584714D01*
X45371499Y-53599000D01*
X45242928Y-53770429D02*
X45271499Y-53784714D01*
X45342928Y-53784714D01*
X45371499Y-53770429D01*
X45385785Y-53741857D01*
X45385785Y-53713286D01*
X45371499Y-53684714D01*
X45342928Y-53670429D01*
X45271499Y-53670429D01*
X45242928Y-53656143D01*
X45114356Y-53770429D02*
X45085785Y-53784714D01*
X45028642Y-53784714D01*
X45000070Y-53770429D01*
X44985785Y-53741857D01*
X44985785Y-53727571D01*
X45000070Y-53699000D01*
X45028642Y-53684714D01*
X45071499Y-53684714D01*
X45100070Y-53670429D01*
X45114356Y-53641857D01*
X45114356Y-53627571D01*
X45100070Y-53599000D01*
X45071499Y-53584714D01*
X45028642Y-53584714D01*
X45000070Y-53599000D01*
X44857213Y-53784714D02*
X44857213Y-53484714D01*
X44857213Y-53599000D02*
X44828642Y-53584714D01*
X44771499Y-53584714D01*
X44742928Y-53599000D01*
X44728642Y-53613286D01*
X44714356Y-53641857D01*
X44714356Y-53727571D01*
X44728642Y-53756143D01*
X44742928Y-53770429D01*
X44771499Y-53784714D01*
X44828642Y-53784714D01*
X44857213Y-53770429D01*
X44585784Y-53584714D02*
X44585784Y-53841857D01*
X44600070Y-53870429D01*
X44628642Y-53884714D01*
X44642927Y-53884714D01*
X44585784Y-53484714D02*
X44600070Y-53499000D01*
X44585784Y-53513286D01*
X44571499Y-53499000D01*
X44585784Y-53484714D01*
X44585784Y-53513286D01*
X44314356Y-53584714D02*
X44314356Y-53784714D01*
X44442927Y-53584714D02*
X44442927Y-53741857D01*
X44428642Y-53770429D01*
X44400070Y-53784714D01*
X44357213Y-53784714D01*
X44328642Y-53770429D01*
X44314356Y-53756143D01*
X44171498Y-53784714D02*
X44171498Y-53584714D01*
X44171498Y-53641857D02*
X44157213Y-53613286D01*
X44142927Y-53599000D01*
X44114356Y-53584714D01*
X44085784Y-53584714D01*
X43871499Y-53770429D02*
X43900070Y-53784714D01*
X43957213Y-53784714D01*
X43985784Y-53770429D01*
X44000070Y-53741857D01*
X44000070Y-53627571D01*
X43985784Y-53599000D01*
X43957213Y-53584714D01*
X43900070Y-53584714D01*
X43871499Y-53599000D01*
X43857213Y-53627571D01*
X43857213Y-53656143D01*
X44000070Y-53684714D01*
X43685784Y-53784714D02*
X43714356Y-53770429D01*
X43728641Y-53741857D01*
X43728641Y-53484714D01*
X43385784Y-53641857D02*
X43400070Y-53627571D01*
X43428641Y-53613286D01*
X43457213Y-53613286D01*
X43485784Y-53627571D01*
X43500070Y-53641857D01*
X43514356Y-53670429D01*
X43514356Y-53699000D01*
X43500070Y-53727571D01*
X43485784Y-53741857D01*
X43457213Y-53756143D01*
X43428641Y-53756143D01*
X43400070Y-53741857D01*
X43385784Y-53727571D01*
X43385784Y-53613286D02*
X43385784Y-53727571D01*
X43371498Y-53741857D01*
X43357213Y-53741857D01*
X43328641Y-53727571D01*
X43314356Y-53699000D01*
X43314356Y-53627571D01*
X43342927Y-53584714D01*
X43385784Y-53556143D01*
X43442927Y-53541857D01*
X43500070Y-53556143D01*
X43542927Y-53584714D01*
X43571498Y-53627571D01*
X43585784Y-53684714D01*
X43571498Y-53741857D01*
X43542927Y-53784714D01*
X43500070Y-53813286D01*
X43442927Y-53827571D01*
X43385784Y-53813286D01*
X43342927Y-53784714D01*
X43185784Y-53784714D02*
X43185784Y-53484714D01*
X43057213Y-53784714D02*
X43057213Y-53627571D01*
X43071499Y-53599000D01*
X43100070Y-53584714D01*
X43142927Y-53584714D01*
X43171499Y-53599000D01*
X43185784Y-53613286D01*
X42871498Y-53784714D02*
X42900070Y-53770429D01*
X42914355Y-53756143D01*
X42928641Y-53727571D01*
X42928641Y-53641857D01*
X42914355Y-53613286D01*
X42900070Y-53599000D01*
X42871498Y-53584714D01*
X42828641Y-53584714D01*
X42800070Y-53599000D01*
X42785784Y-53613286D01*
X42771498Y-53641857D01*
X42771498Y-53727571D01*
X42785784Y-53756143D01*
X42800070Y-53770429D01*
X42828641Y-53784714D01*
X42871498Y-53784714D01*
X42685784Y-53584714D02*
X42571498Y-53584714D01*
X42642926Y-53484714D02*
X42642926Y-53741857D01*
X42628641Y-53770429D01*
X42600069Y-53784714D01*
X42571498Y-53784714D01*
X42471497Y-53784714D02*
X42471497Y-53584714D01*
X42471497Y-53613286D02*
X42457212Y-53599000D01*
X42428640Y-53584714D01*
X42385783Y-53584714D01*
X42357212Y-53599000D01*
X42342926Y-53627571D01*
X42342926Y-53784714D01*
X42342926Y-53627571D02*
X42328640Y-53599000D01*
X42300069Y-53584714D01*
X42257212Y-53584714D01*
X42228640Y-53599000D01*
X42214355Y-53627571D01*
X42214355Y-53784714D01*
X41942926Y-53784714D02*
X41942926Y-53627571D01*
X41957212Y-53599000D01*
X41985783Y-53584714D01*
X42042926Y-53584714D01*
X42071497Y-53599000D01*
X41942926Y-53770429D02*
X41971497Y-53784714D01*
X42042926Y-53784714D01*
X42071497Y-53770429D01*
X42085783Y-53741857D01*
X42085783Y-53713286D01*
X42071497Y-53684714D01*
X42042926Y-53670429D01*
X41971497Y-53670429D01*
X41942926Y-53656143D01*
X41800068Y-53784714D02*
X41800068Y-53584714D01*
X41800068Y-53484714D02*
X41814354Y-53499000D01*
X41800068Y-53513286D01*
X41785783Y-53499000D01*
X41800068Y-53484714D01*
X41800068Y-53513286D01*
X41614354Y-53784714D02*
X41642926Y-53770429D01*
X41657211Y-53741857D01*
X41657211Y-53484714D01*
X41500068Y-53756143D02*
X41485783Y-53770429D01*
X41500068Y-53784714D01*
X41514354Y-53770429D01*
X41500068Y-53756143D01*
X41500068Y-53784714D01*
X41228640Y-53770429D02*
X41257211Y-53784714D01*
X41314354Y-53784714D01*
X41342926Y-53770429D01*
X41357211Y-53756143D01*
X41371497Y-53727571D01*
X41371497Y-53641857D01*
X41357211Y-53613286D01*
X41342926Y-53599000D01*
X41314354Y-53584714D01*
X41257211Y-53584714D01*
X41228640Y-53599000D01*
X41057211Y-53784714D02*
X41085783Y-53770429D01*
X41100068Y-53756143D01*
X41114354Y-53727571D01*
X41114354Y-53641857D01*
X41100068Y-53613286D01*
X41085783Y-53599000D01*
X41057211Y-53584714D01*
X41014354Y-53584714D01*
X40985783Y-53599000D01*
X40971497Y-53613286D01*
X40957211Y-53641857D01*
X40957211Y-53727571D01*
X40971497Y-53756143D01*
X40985783Y-53770429D01*
X41014354Y-53784714D01*
X41057211Y-53784714D01*
X40828639Y-53784714D02*
X40828639Y-53584714D01*
X40828639Y-53613286D02*
X40814354Y-53599000D01*
X40785782Y-53584714D01*
X40742925Y-53584714D01*
X40714354Y-53599000D01*
X40700068Y-53627571D01*
X40700068Y-53784714D01*
X40700068Y-53627571D02*
X40685782Y-53599000D01*
X40657211Y-53584714D01*
X40614354Y-53584714D01*
X40585782Y-53599000D01*
X40571497Y-53627571D01*
X40571497Y-53784714D01*
X40457211Y-53899000D02*
X40442925Y-53884714D01*
X40414354Y-53841857D01*
X40400068Y-53813286D01*
X40385782Y-53770429D01*
X40371497Y-53699000D01*
X40371497Y-53641857D01*
X40385782Y-53570429D01*
X40400068Y-53527571D01*
X40414354Y-53499000D01*
X40442925Y-53456143D01*
X40457211Y-53441857D01*
X51128643Y-54834714D02*
X51228643Y-54691857D01*
X51300071Y-54834714D02*
X51300071Y-54534714D01*
X51185786Y-54534714D01*
X51157214Y-54549000D01*
X51142929Y-54563286D01*
X51128643Y-54591857D01*
X51128643Y-54634714D01*
X51142929Y-54663286D01*
X51157214Y-54677571D01*
X51185786Y-54691857D01*
X51300071Y-54691857D01*
X51000071Y-54677571D02*
X50900071Y-54677571D01*
X50857214Y-54834714D02*
X51000071Y-54834714D01*
X51000071Y-54534714D01*
X50857214Y-54534714D01*
X50628642Y-54677571D02*
X50728642Y-54677571D01*
X50728642Y-54834714D02*
X50728642Y-54534714D01*
X50585785Y-54534714D01*
X50471499Y-54677571D02*
X50371499Y-54677571D01*
X50328642Y-54834714D02*
X50471499Y-54834714D01*
X50471499Y-54534714D01*
X50328642Y-54534714D01*
X50028642Y-54834714D02*
X50128642Y-54691857D01*
X50200070Y-54834714D02*
X50200070Y-54534714D01*
X50085785Y-54534714D01*
X50057213Y-54549000D01*
X50042928Y-54563286D01*
X50028642Y-54591857D01*
X50028642Y-54634714D01*
X50042928Y-54663286D01*
X50057213Y-54677571D01*
X50085785Y-54691857D01*
X50200070Y-54691857D01*
X49900070Y-54677571D02*
X49800070Y-54677571D01*
X49757213Y-54834714D02*
X49900070Y-54834714D01*
X49900070Y-54534714D01*
X49757213Y-54534714D01*
X49628641Y-54834714D02*
X49628641Y-54534714D01*
X49457213Y-54834714D01*
X49457213Y-54534714D01*
X49142927Y-54806143D02*
X49157213Y-54820429D01*
X49200070Y-54834714D01*
X49228641Y-54834714D01*
X49271498Y-54820429D01*
X49300070Y-54791857D01*
X49314355Y-54763286D01*
X49328641Y-54706143D01*
X49328641Y-54663286D01*
X49314355Y-54606143D01*
X49300070Y-54577571D01*
X49271498Y-54549000D01*
X49228641Y-54534714D01*
X49200070Y-54534714D01*
X49157213Y-54549000D01*
X49142927Y-54563286D01*
X49014355Y-54677571D02*
X48914355Y-54677571D01*
X48871498Y-54834714D02*
X49014355Y-54834714D01*
X49014355Y-54534714D01*
X48871498Y-54534714D01*
X48742926Y-54806143D02*
X48728641Y-54820429D01*
X48742926Y-54834714D01*
X48757212Y-54820429D01*
X48742926Y-54806143D01*
X48742926Y-54834714D01*
X48742926Y-54649000D02*
X48728641Y-54663286D01*
X48742926Y-54677571D01*
X48757212Y-54663286D01*
X48742926Y-54649000D01*
X48742926Y-54677571D01*
X48371498Y-54834714D02*
X48371498Y-54534714D01*
X48242927Y-54834714D02*
X48242927Y-54677571D01*
X48257213Y-54649000D01*
X48285784Y-54634714D01*
X48328641Y-54634714D01*
X48357213Y-54649000D01*
X48371498Y-54663286D01*
X48142927Y-54634714D02*
X48028641Y-54634714D01*
X48100069Y-54534714D02*
X48100069Y-54791857D01*
X48085784Y-54820429D01*
X48057212Y-54834714D01*
X48028641Y-54834714D01*
X47971498Y-54634714D02*
X47857212Y-54634714D01*
X47928640Y-54534714D02*
X47928640Y-54791857D01*
X47914355Y-54820429D01*
X47885783Y-54834714D01*
X47857212Y-54834714D01*
X47757211Y-54634714D02*
X47757211Y-54934714D01*
X47757211Y-54649000D02*
X47728640Y-54634714D01*
X47671497Y-54634714D01*
X47642926Y-54649000D01*
X47628640Y-54663286D01*
X47614354Y-54691857D01*
X47614354Y-54777571D01*
X47628640Y-54806143D01*
X47642926Y-54820429D01*
X47671497Y-54834714D01*
X47728640Y-54834714D01*
X47757211Y-54820429D01*
X47485782Y-54806143D02*
X47471497Y-54820429D01*
X47485782Y-54834714D01*
X47500068Y-54820429D01*
X47485782Y-54806143D01*
X47485782Y-54834714D01*
X47485782Y-54649000D02*
X47471497Y-54663286D01*
X47485782Y-54677571D01*
X47500068Y-54663286D01*
X47485782Y-54649000D01*
X47485782Y-54677571D01*
X47128640Y-54520429D02*
X47385783Y-54906143D01*
X46814354Y-54520429D02*
X47071497Y-54906143D01*
X46728639Y-54820429D02*
X46700068Y-54834714D01*
X46642925Y-54834714D01*
X46614353Y-54820429D01*
X46600068Y-54791857D01*
X46600068Y-54777571D01*
X46614353Y-54749000D01*
X46642925Y-54734714D01*
X46685782Y-54734714D01*
X46714353Y-54720429D01*
X46728639Y-54691857D01*
X46728639Y-54677571D01*
X46714353Y-54649000D01*
X46685782Y-54634714D01*
X46642925Y-54634714D01*
X46614353Y-54649000D01*
X46471496Y-54834714D02*
X46471496Y-54534714D01*
X46442925Y-54720429D02*
X46357211Y-54834714D01*
X46357211Y-54634714D02*
X46471496Y-54749000D01*
X46228639Y-54634714D02*
X46228639Y-54934714D01*
X46228639Y-54649000D02*
X46200068Y-54634714D01*
X46142925Y-54634714D01*
X46114354Y-54649000D01*
X46100068Y-54663286D01*
X46085782Y-54691857D01*
X46085782Y-54777571D01*
X46100068Y-54806143D01*
X46114354Y-54820429D01*
X46142925Y-54834714D01*
X46200068Y-54834714D01*
X46228639Y-54820429D01*
X45828639Y-54834714D02*
X45828639Y-54677571D01*
X45842925Y-54649000D01*
X45871496Y-54634714D01*
X45928639Y-54634714D01*
X45957210Y-54649000D01*
X45828639Y-54820429D02*
X45857210Y-54834714D01*
X45928639Y-54834714D01*
X45957210Y-54820429D01*
X45971496Y-54791857D01*
X45971496Y-54763286D01*
X45957210Y-54734714D01*
X45928639Y-54720429D01*
X45857210Y-54720429D01*
X45828639Y-54706143D01*
X45685781Y-54634714D02*
X45685781Y-54834714D01*
X45685781Y-54663286D02*
X45671496Y-54649000D01*
X45642924Y-54634714D01*
X45600067Y-54634714D01*
X45571496Y-54649000D01*
X45557210Y-54677571D01*
X45557210Y-54834714D01*
X45285781Y-54634714D02*
X45285781Y-54877571D01*
X45300067Y-54906143D01*
X45314352Y-54920429D01*
X45342924Y-54934714D01*
X45385781Y-54934714D01*
X45414352Y-54920429D01*
X45285781Y-54820429D02*
X45314352Y-54834714D01*
X45371495Y-54834714D01*
X45400067Y-54820429D01*
X45414352Y-54806143D01*
X45428638Y-54777571D01*
X45428638Y-54691857D01*
X45414352Y-54663286D01*
X45400067Y-54649000D01*
X45371495Y-54634714D01*
X45314352Y-54634714D01*
X45285781Y-54649000D01*
X45142923Y-54806143D02*
X45128638Y-54820429D01*
X45142923Y-54834714D01*
X45157209Y-54820429D01*
X45142923Y-54806143D01*
X45142923Y-54834714D01*
X44871495Y-54820429D02*
X44900066Y-54834714D01*
X44957209Y-54834714D01*
X44985781Y-54820429D01*
X45000066Y-54806143D01*
X45014352Y-54777571D01*
X45014352Y-54691857D01*
X45000066Y-54663286D01*
X44985781Y-54649000D01*
X44957209Y-54634714D01*
X44900066Y-54634714D01*
X44871495Y-54649000D01*
X44700066Y-54834714D02*
X44728638Y-54820429D01*
X44742923Y-54806143D01*
X44757209Y-54777571D01*
X44757209Y-54691857D01*
X44742923Y-54663286D01*
X44728638Y-54649000D01*
X44700066Y-54634714D01*
X44657209Y-54634714D01*
X44628638Y-54649000D01*
X44614352Y-54663286D01*
X44600066Y-54691857D01*
X44600066Y-54777571D01*
X44614352Y-54806143D01*
X44628638Y-54820429D01*
X44657209Y-54834714D01*
X44700066Y-54834714D01*
X44471494Y-54806143D02*
X44457209Y-54820429D01*
X44471494Y-54834714D01*
X44485780Y-54820429D01*
X44471494Y-54806143D01*
X44471494Y-54834714D01*
X44200066Y-54634714D02*
X44200066Y-54834714D01*
X44328637Y-54634714D02*
X44328637Y-54791857D01*
X44314352Y-54820429D01*
X44285780Y-54834714D01*
X44242923Y-54834714D01*
X44214352Y-54820429D01*
X44200066Y-54806143D01*
X44057208Y-54834714D02*
X44057208Y-54534714D01*
X44028637Y-54720429D02*
X43942923Y-54834714D01*
X43942923Y-54634714D02*
X44057208Y-54749000D01*
X43600066Y-54520429D02*
X43857209Y-54906143D01*
X43371494Y-54820429D02*
X43400065Y-54834714D01*
X43457208Y-54834714D01*
X43485780Y-54820429D01*
X43500065Y-54806143D01*
X43514351Y-54777571D01*
X43514351Y-54691857D01*
X43500065Y-54663286D01*
X43485780Y-54649000D01*
X43457208Y-54634714D01*
X43400065Y-54634714D01*
X43371494Y-54649000D01*
X43114351Y-54834714D02*
X43114351Y-54677571D01*
X43128637Y-54649000D01*
X43157208Y-54634714D01*
X43214351Y-54634714D01*
X43242922Y-54649000D01*
X43114351Y-54820429D02*
X43142922Y-54834714D01*
X43214351Y-54834714D01*
X43242922Y-54820429D01*
X43257208Y-54791857D01*
X43257208Y-54763286D01*
X43242922Y-54734714D01*
X43214351Y-54720429D01*
X43142922Y-54720429D01*
X43114351Y-54706143D01*
X43014351Y-54634714D02*
X42900065Y-54634714D01*
X42971493Y-54534714D02*
X42971493Y-54791857D01*
X42957208Y-54820429D01*
X42928636Y-54834714D01*
X42900065Y-54834714D01*
X42671493Y-54834714D02*
X42671493Y-54677571D01*
X42685779Y-54649000D01*
X42714350Y-54634714D01*
X42771493Y-54634714D01*
X42800064Y-54649000D01*
X42671493Y-54820429D02*
X42700064Y-54834714D01*
X42771493Y-54834714D01*
X42800064Y-54820429D01*
X42814350Y-54791857D01*
X42814350Y-54763286D01*
X42800064Y-54734714D01*
X42771493Y-54720429D01*
X42700064Y-54720429D01*
X42671493Y-54706143D01*
X42485778Y-54834714D02*
X42514350Y-54820429D01*
X42528635Y-54791857D01*
X42528635Y-54534714D01*
X42328635Y-54834714D02*
X42357207Y-54820429D01*
X42371492Y-54806143D01*
X42385778Y-54777571D01*
X42385778Y-54691857D01*
X42371492Y-54663286D01*
X42357207Y-54649000D01*
X42328635Y-54634714D01*
X42285778Y-54634714D01*
X42257207Y-54649000D01*
X42242921Y-54663286D01*
X42228635Y-54691857D01*
X42228635Y-54777571D01*
X42242921Y-54806143D01*
X42257207Y-54820429D01*
X42285778Y-54834714D01*
X42328635Y-54834714D01*
X41971492Y-54634714D02*
X41971492Y-54877571D01*
X41985778Y-54906143D01*
X42000063Y-54920429D01*
X42028635Y-54934714D01*
X42071492Y-54934714D01*
X42100063Y-54920429D01*
X41971492Y-54820429D02*
X42000063Y-54834714D01*
X42057206Y-54834714D01*
X42085778Y-54820429D01*
X42100063Y-54806143D01*
X42114349Y-54777571D01*
X42114349Y-54691857D01*
X42100063Y-54663286D01*
X42085778Y-54649000D01*
X42057206Y-54634714D01*
X42000063Y-54634714D01*
X41971492Y-54649000D01*
X41614349Y-54520429D02*
X41871492Y-54906143D01*
X41514348Y-54634714D02*
X41514348Y-54934714D01*
X41514348Y-54649000D02*
X41485777Y-54634714D01*
X41428634Y-54634714D01*
X41400063Y-54649000D01*
X41385777Y-54663286D01*
X41371491Y-54691857D01*
X41371491Y-54777571D01*
X41385777Y-54806143D01*
X41400063Y-54820429D01*
X41428634Y-54834714D01*
X41485777Y-54834714D01*
X41514348Y-54820429D01*
X41242919Y-54834714D02*
X41242919Y-54634714D01*
X41242919Y-54534714D02*
X41257205Y-54549000D01*
X41242919Y-54563286D01*
X41228634Y-54549000D01*
X41242919Y-54534714D01*
X41242919Y-54563286D01*
X40971491Y-54820429D02*
X41000062Y-54834714D01*
X41057205Y-54834714D01*
X41085777Y-54820429D01*
X41100062Y-54806143D01*
X41114348Y-54777571D01*
X41114348Y-54691857D01*
X41100062Y-54663286D01*
X41085777Y-54649000D01*
X41057205Y-54634714D01*
X41000062Y-54634714D01*
X40971491Y-54649000D01*
X40714348Y-54834714D02*
X40714348Y-54677571D01*
X40728634Y-54649000D01*
X40757205Y-54634714D01*
X40814348Y-54634714D01*
X40842919Y-54649000D01*
X40714348Y-54820429D02*
X40742919Y-54834714D01*
X40814348Y-54834714D01*
X40842919Y-54820429D01*
X40857205Y-54791857D01*
X40857205Y-54763286D01*
X40842919Y-54734714D01*
X40814348Y-54720429D01*
X40742919Y-54720429D01*
X40714348Y-54706143D01*
X40571490Y-54634714D02*
X40571490Y-54834714D01*
X40571490Y-54663286D02*
X40557205Y-54649000D01*
X40528633Y-54634714D01*
X40485776Y-54634714D01*
X40457205Y-54649000D01*
X40442919Y-54677571D01*
X40442919Y-54834714D01*
X40314347Y-54563286D02*
X40300061Y-54549000D01*
X40271490Y-54534714D01*
X40200061Y-54534714D01*
X40171490Y-54549000D01*
X40157204Y-54563286D01*
X40142919Y-54591857D01*
X40142919Y-54620429D01*
X40157204Y-54663286D01*
X40328633Y-54834714D01*
X40142919Y-54834714D01*
X51300071Y-55245429D02*
X51071500Y-55245429D01*
X50800071Y-55345429D02*
X50828642Y-55359714D01*
X50885785Y-55359714D01*
X50914357Y-55345429D01*
X50928642Y-55331143D01*
X50942928Y-55302571D01*
X50942928Y-55216857D01*
X50928642Y-55188286D01*
X50914357Y-55174000D01*
X50885785Y-55159714D01*
X50828642Y-55159714D01*
X50800071Y-55174000D01*
X50542928Y-55359714D02*
X50542928Y-55202571D01*
X50557214Y-55174000D01*
X50585785Y-55159714D01*
X50642928Y-55159714D01*
X50671499Y-55174000D01*
X50542928Y-55345429D02*
X50571499Y-55359714D01*
X50642928Y-55359714D01*
X50671499Y-55345429D01*
X50685785Y-55316857D01*
X50685785Y-55288286D01*
X50671499Y-55259714D01*
X50642928Y-55245429D01*
X50571499Y-55245429D01*
X50542928Y-55231143D01*
X50400070Y-55159714D02*
X50400070Y-55359714D01*
X50400070Y-55188286D02*
X50385785Y-55174000D01*
X50357213Y-55159714D01*
X50314356Y-55159714D01*
X50285785Y-55174000D01*
X50271499Y-55202571D01*
X50271499Y-55359714D01*
X50128641Y-55359714D02*
X50128641Y-55059714D01*
X50128641Y-55174000D02*
X50100070Y-55159714D01*
X50042927Y-55159714D01*
X50014356Y-55174000D01*
X50000070Y-55188286D01*
X49985784Y-55216857D01*
X49985784Y-55302571D01*
X50000070Y-55331143D01*
X50014356Y-55345429D01*
X50042927Y-55359714D01*
X50100070Y-55359714D01*
X50128641Y-55345429D01*
X49728641Y-55159714D02*
X49728641Y-55359714D01*
X49857212Y-55159714D02*
X49857212Y-55316857D01*
X49842927Y-55345429D01*
X49814355Y-55359714D01*
X49771498Y-55359714D01*
X49742927Y-55345429D01*
X49728641Y-55331143D01*
X49600069Y-55345429D02*
X49571498Y-55359714D01*
X49514355Y-55359714D01*
X49485783Y-55345429D01*
X49471498Y-55316857D01*
X49471498Y-55302571D01*
X49485783Y-55274000D01*
X49514355Y-55259714D01*
X49557212Y-55259714D01*
X49585783Y-55245429D01*
X49600069Y-55216857D01*
X49600069Y-55202571D01*
X49585783Y-55174000D01*
X49557212Y-55159714D01*
X49514355Y-55159714D01*
X49485783Y-55174000D01*
X49342926Y-55245429D02*
X49114355Y-55245429D01*
X48971497Y-55359714D02*
X48971497Y-55059714D01*
X48971497Y-55174000D02*
X48942926Y-55159714D01*
X48885783Y-55159714D01*
X48857212Y-55174000D01*
X48842926Y-55188286D01*
X48828640Y-55216857D01*
X48828640Y-55302571D01*
X48842926Y-55331143D01*
X48857212Y-55345429D01*
X48885783Y-55359714D01*
X48942926Y-55359714D01*
X48971497Y-55345429D01*
X48657211Y-55359714D02*
X48685783Y-55345429D01*
X48700068Y-55331143D01*
X48714354Y-55302571D01*
X48714354Y-55216857D01*
X48700068Y-55188286D01*
X48685783Y-55174000D01*
X48657211Y-55159714D01*
X48614354Y-55159714D01*
X48585783Y-55174000D01*
X48571497Y-55188286D01*
X48557211Y-55216857D01*
X48557211Y-55302571D01*
X48571497Y-55331143D01*
X48585783Y-55345429D01*
X48614354Y-55359714D01*
X48657211Y-55359714D01*
X48300068Y-55359714D02*
X48300068Y-55202571D01*
X48314354Y-55174000D01*
X48342925Y-55159714D01*
X48400068Y-55159714D01*
X48428639Y-55174000D01*
X48300068Y-55345429D02*
X48328639Y-55359714D01*
X48400068Y-55359714D01*
X48428639Y-55345429D01*
X48442925Y-55316857D01*
X48442925Y-55288286D01*
X48428639Y-55259714D01*
X48400068Y-55245429D01*
X48328639Y-55245429D01*
X48300068Y-55231143D01*
X48157210Y-55359714D02*
X48157210Y-55159714D01*
X48157210Y-55216857D02*
X48142925Y-55188286D01*
X48128639Y-55174000D01*
X48100068Y-55159714D01*
X48071496Y-55159714D01*
X47842925Y-55359714D02*
X47842925Y-55059714D01*
X47842925Y-55345429D02*
X47871496Y-55359714D01*
X47928639Y-55359714D01*
X47957211Y-55345429D01*
X47971496Y-55331143D01*
X47985782Y-55302571D01*
X47985782Y-55216857D01*
X47971496Y-55188286D01*
X47957211Y-55174000D01*
X47928639Y-55159714D01*
X47871496Y-55159714D01*
X47842925Y-55174000D01*
X47700067Y-55245429D02*
X47471496Y-55245429D01*
X47371496Y-55159714D02*
X47257210Y-55159714D01*
X47328638Y-55359714D02*
X47328638Y-55102571D01*
X47314353Y-55074000D01*
X47285781Y-55059714D01*
X47257210Y-55059714D01*
X47114352Y-55359714D02*
X47142924Y-55345429D01*
X47157209Y-55331143D01*
X47171495Y-55302571D01*
X47171495Y-55216857D01*
X47157209Y-55188286D01*
X47142924Y-55174000D01*
X47114352Y-55159714D01*
X47071495Y-55159714D01*
X47042924Y-55174000D01*
X47028638Y-55188286D01*
X47014352Y-55216857D01*
X47014352Y-55302571D01*
X47028638Y-55331143D01*
X47042924Y-55345429D01*
X47071495Y-55359714D01*
X47114352Y-55359714D01*
X46885780Y-55359714D02*
X46885780Y-55159714D01*
X46885780Y-55216857D02*
X46871495Y-55188286D01*
X46857209Y-55174000D01*
X46828638Y-55159714D01*
X46800066Y-55159714D01*
X46700066Y-55245429D02*
X46471495Y-55245429D01*
X46328637Y-55359714D02*
X46328637Y-55159714D01*
X46328637Y-55216857D02*
X46314352Y-55188286D01*
X46300066Y-55174000D01*
X46271495Y-55159714D01*
X46242923Y-55159714D01*
X46014352Y-55359714D02*
X46014352Y-55202571D01*
X46028638Y-55174000D01*
X46057209Y-55159714D01*
X46114352Y-55159714D01*
X46142923Y-55174000D01*
X46014352Y-55345429D02*
X46042923Y-55359714D01*
X46114352Y-55359714D01*
X46142923Y-55345429D01*
X46157209Y-55316857D01*
X46157209Y-55288286D01*
X46142923Y-55259714D01*
X46114352Y-55245429D01*
X46042923Y-55245429D01*
X46014352Y-55231143D01*
X45885780Y-55345429D02*
X45857209Y-55359714D01*
X45800066Y-55359714D01*
X45771494Y-55345429D01*
X45757209Y-55316857D01*
X45757209Y-55302571D01*
X45771494Y-55274000D01*
X45800066Y-55259714D01*
X45842923Y-55259714D01*
X45871494Y-55245429D01*
X45885780Y-55216857D01*
X45885780Y-55202571D01*
X45871494Y-55174000D01*
X45842923Y-55159714D01*
X45800066Y-55159714D01*
X45771494Y-55174000D01*
X45628637Y-55159714D02*
X45628637Y-55459714D01*
X45628637Y-55174000D02*
X45600066Y-55159714D01*
X45542923Y-55159714D01*
X45514352Y-55174000D01*
X45500066Y-55188286D01*
X45485780Y-55216857D01*
X45485780Y-55302571D01*
X45500066Y-55331143D01*
X45514352Y-55345429D01*
X45542923Y-55359714D01*
X45600066Y-55359714D01*
X45628637Y-55345429D01*
X45357208Y-55359714D02*
X45357208Y-55059714D01*
X45357208Y-55174000D02*
X45328637Y-55159714D01*
X45271494Y-55159714D01*
X45242923Y-55174000D01*
X45228637Y-55188286D01*
X45214351Y-55216857D01*
X45214351Y-55302571D01*
X45228637Y-55331143D01*
X45242923Y-55345429D01*
X45271494Y-55359714D01*
X45328637Y-55359714D01*
X45357208Y-55345429D01*
X44971494Y-55345429D02*
X45000065Y-55359714D01*
X45057208Y-55359714D01*
X45085779Y-55345429D01*
X45100065Y-55316857D01*
X45100065Y-55202571D01*
X45085779Y-55174000D01*
X45057208Y-55159714D01*
X45000065Y-55159714D01*
X44971494Y-55174000D01*
X44957208Y-55202571D01*
X44957208Y-55231143D01*
X45100065Y-55259714D01*
X44828636Y-55359714D02*
X44828636Y-55159714D01*
X44828636Y-55216857D02*
X44814351Y-55188286D01*
X44800065Y-55174000D01*
X44771494Y-55159714D01*
X44742922Y-55159714D01*
X44642922Y-55359714D02*
X44642922Y-55159714D01*
X44642922Y-55216857D02*
X44628637Y-55188286D01*
X44614351Y-55174000D01*
X44585780Y-55159714D01*
X44557208Y-55159714D01*
X44485780Y-55159714D02*
X44414351Y-55359714D01*
X44342923Y-55159714D02*
X44414351Y-55359714D01*
X44442923Y-55431143D01*
X44457208Y-55445429D01*
X44485780Y-55459714D01*
X44228637Y-55245429D02*
X44000066Y-55245429D01*
X43857208Y-55159714D02*
X43857208Y-55459714D01*
X43857208Y-55174000D02*
X43828637Y-55159714D01*
X43771494Y-55159714D01*
X43742923Y-55174000D01*
X43728637Y-55188286D01*
X43714351Y-55216857D01*
X43714351Y-55302571D01*
X43728637Y-55331143D01*
X43742923Y-55345429D01*
X43771494Y-55359714D01*
X43828637Y-55359714D01*
X43857208Y-55345429D01*
X43585779Y-55359714D02*
X43585779Y-55159714D01*
X43585779Y-55059714D02*
X43600065Y-55074000D01*
X43585779Y-55088286D01*
X43571494Y-55074000D01*
X43585779Y-55059714D01*
X43585779Y-55088286D01*
X43442922Y-55245429D02*
X43214351Y-55245429D01*
X43085779Y-55088286D02*
X43071493Y-55074000D01*
X43042922Y-55059714D01*
X42971493Y-55059714D01*
X42942922Y-55074000D01*
X42928636Y-55088286D01*
X42914351Y-55116857D01*
X42914351Y-55145429D01*
X42928636Y-55188286D01*
X43100065Y-55359714D01*
X42914351Y-55359714D01*
X42814351Y-55059714D02*
X42628637Y-55059714D01*
X42728637Y-55174000D01*
X42685779Y-55174000D01*
X42657208Y-55188286D01*
X42642922Y-55202571D01*
X42628637Y-55231143D01*
X42628637Y-55302571D01*
X42642922Y-55331143D01*
X42657208Y-55345429D01*
X42685779Y-55359714D01*
X42771494Y-55359714D01*
X42800065Y-55345429D01*
X42814351Y-55331143D01*
X42500065Y-55245429D02*
X42271494Y-55245429D01*
X42128636Y-55159714D02*
X42128636Y-55459714D01*
X42128636Y-55174000D02*
X42100065Y-55159714D01*
X42042922Y-55159714D01*
X42014351Y-55174000D01*
X42000065Y-55188286D01*
X41985779Y-55216857D01*
X41985779Y-55302571D01*
X42000065Y-55331143D01*
X42014351Y-55345429D01*
X42042922Y-55359714D01*
X42100065Y-55359714D01*
X42128636Y-55345429D01*
X41857207Y-55245429D02*
X41628636Y-55245429D01*
X41328636Y-55359714D02*
X41500064Y-55359714D01*
X41414350Y-55359714D02*
X41414350Y-55059714D01*
X41442921Y-55102571D01*
X41471493Y-55131143D01*
X41500064Y-55145429D01*
X41071493Y-55159714D02*
X41071493Y-55359714D01*
X41142922Y-55045429D02*
X41214350Y-55259714D01*
X41028636Y-55259714D01*
X40942922Y-55059714D02*
X40742922Y-55059714D01*
X40871493Y-55359714D01*
X40485779Y-55059714D02*
X40628636Y-55059714D01*
X40642922Y-55202571D01*
X40628636Y-55188286D01*
X40600065Y-55174000D01*
X40528636Y-55174000D01*
X40500065Y-55188286D01*
X40485779Y-55202571D01*
X40471494Y-55231143D01*
X40471494Y-55302571D01*
X40485779Y-55331143D01*
X40500065Y-55345429D01*
X40528636Y-55359714D01*
X40600065Y-55359714D01*
X40628636Y-55345429D01*
X40642922Y-55331143D01*
X40342922Y-55331143D02*
X40328637Y-55345429D01*
X40342922Y-55359714D01*
X40357208Y-55345429D01*
X40342922Y-55331143D01*
X40342922Y-55359714D01*
X40200065Y-55359714D02*
X40200065Y-55059714D01*
X40071494Y-55359714D02*
X40071494Y-55202571D01*
X40085780Y-55174000D01*
X40114351Y-55159714D01*
X40157208Y-55159714D01*
X40185780Y-55174000D01*
X40200065Y-55188286D01*
X39971494Y-55159714D02*
X39857208Y-55159714D01*
X39928636Y-55059714D02*
X39928636Y-55316857D01*
X39914351Y-55345429D01*
X39885779Y-55359714D01*
X39857208Y-55359714D01*
X39757207Y-55359714D02*
X39757207Y-55159714D01*
X39757207Y-55188286D02*
X39742922Y-55174000D01*
X39714350Y-55159714D01*
X39671493Y-55159714D01*
X39642922Y-55174000D01*
X39628636Y-55202571D01*
X39628636Y-55359714D01*
X39628636Y-55202571D02*
X39614350Y-55174000D01*
X39585779Y-55159714D01*
X39542922Y-55159714D01*
X39514350Y-55174000D01*
X39500065Y-55202571D01*
X39500065Y-55359714D01*
X39314350Y-55359714D02*
X39342922Y-55345429D01*
X39357207Y-55316857D01*
X39357207Y-55059714D01*
X51157214Y-56409714D02*
X51300071Y-56409714D01*
X51300071Y-56109714D01*
X51057214Y-56409714D02*
X51057214Y-56209714D01*
X51057214Y-56109714D02*
X51071500Y-56124000D01*
X51057214Y-56138286D01*
X51042929Y-56124000D01*
X51057214Y-56109714D01*
X51057214Y-56138286D01*
X50785786Y-56395429D02*
X50814357Y-56409714D01*
X50871500Y-56409714D01*
X50900072Y-56395429D01*
X50914357Y-56381143D01*
X50928643Y-56352571D01*
X50928643Y-56266857D01*
X50914357Y-56238286D01*
X50900072Y-56224000D01*
X50871500Y-56209714D01*
X50814357Y-56209714D01*
X50785786Y-56224000D01*
X50542929Y-56395429D02*
X50571500Y-56409714D01*
X50628643Y-56409714D01*
X50657214Y-56395429D01*
X50671500Y-56366857D01*
X50671500Y-56252571D01*
X50657214Y-56224000D01*
X50628643Y-56209714D01*
X50571500Y-56209714D01*
X50542929Y-56224000D01*
X50528643Y-56252571D01*
X50528643Y-56281143D01*
X50671500Y-56309714D01*
X50400071Y-56209714D02*
X50400071Y-56409714D01*
X50400071Y-56238286D02*
X50385786Y-56224000D01*
X50357214Y-56209714D01*
X50314357Y-56209714D01*
X50285786Y-56224000D01*
X50271500Y-56252571D01*
X50271500Y-56409714D01*
X50000071Y-56395429D02*
X50028642Y-56409714D01*
X50085785Y-56409714D01*
X50114357Y-56395429D01*
X50128642Y-56381143D01*
X50142928Y-56352571D01*
X50142928Y-56266857D01*
X50128642Y-56238286D01*
X50114357Y-56224000D01*
X50085785Y-56209714D01*
X50028642Y-56209714D01*
X50000071Y-56224000D01*
X49757214Y-56395429D02*
X49785785Y-56409714D01*
X49842928Y-56409714D01*
X49871499Y-56395429D01*
X49885785Y-56366857D01*
X49885785Y-56252571D01*
X49871499Y-56224000D01*
X49842928Y-56209714D01*
X49785785Y-56209714D01*
X49757214Y-56224000D01*
X49742928Y-56252571D01*
X49742928Y-56281143D01*
X49885785Y-56309714D01*
X49614356Y-56381143D02*
X49600071Y-56395429D01*
X49614356Y-56409714D01*
X49628642Y-56395429D01*
X49614356Y-56381143D01*
X49614356Y-56409714D01*
X49614356Y-56224000D02*
X49600071Y-56238286D01*
X49614356Y-56252571D01*
X49628642Y-56238286D01*
X49614356Y-56224000D01*
X49614356Y-56252571D01*
X49071500Y-56381143D02*
X49085786Y-56395429D01*
X49128643Y-56409714D01*
X49157214Y-56409714D01*
X49200071Y-56395429D01*
X49228643Y-56366857D01*
X49242928Y-56338286D01*
X49257214Y-56281143D01*
X49257214Y-56238286D01*
X49242928Y-56181143D01*
X49228643Y-56152571D01*
X49200071Y-56124000D01*
X49157214Y-56109714D01*
X49128643Y-56109714D01*
X49085786Y-56124000D01*
X49071500Y-56138286D01*
X48942928Y-56409714D02*
X48942928Y-56209714D01*
X48942928Y-56266857D02*
X48928643Y-56238286D01*
X48914357Y-56224000D01*
X48885786Y-56209714D01*
X48857214Y-56209714D01*
X48642929Y-56395429D02*
X48671500Y-56409714D01*
X48728643Y-56409714D01*
X48757214Y-56395429D01*
X48771500Y-56366857D01*
X48771500Y-56252571D01*
X48757214Y-56224000D01*
X48728643Y-56209714D01*
X48671500Y-56209714D01*
X48642929Y-56224000D01*
X48628643Y-56252571D01*
X48628643Y-56281143D01*
X48771500Y-56309714D01*
X48371500Y-56409714D02*
X48371500Y-56252571D01*
X48385786Y-56224000D01*
X48414357Y-56209714D01*
X48471500Y-56209714D01*
X48500071Y-56224000D01*
X48371500Y-56395429D02*
X48400071Y-56409714D01*
X48471500Y-56409714D01*
X48500071Y-56395429D01*
X48514357Y-56366857D01*
X48514357Y-56338286D01*
X48500071Y-56309714D01*
X48471500Y-56295429D01*
X48400071Y-56295429D01*
X48371500Y-56281143D01*
X48271500Y-56209714D02*
X48157214Y-56209714D01*
X48228642Y-56109714D02*
X48228642Y-56366857D01*
X48214357Y-56395429D01*
X48185785Y-56409714D01*
X48157214Y-56409714D01*
X48057213Y-56409714D02*
X48057213Y-56209714D01*
X48057213Y-56109714D02*
X48071499Y-56124000D01*
X48057213Y-56138286D01*
X48042928Y-56124000D01*
X48057213Y-56109714D01*
X48057213Y-56138286D01*
X47942928Y-56209714D02*
X47871499Y-56409714D01*
X47800071Y-56209714D01*
X47571500Y-56395429D02*
X47600071Y-56409714D01*
X47657214Y-56409714D01*
X47685785Y-56395429D01*
X47700071Y-56366857D01*
X47700071Y-56252571D01*
X47685785Y-56224000D01*
X47657214Y-56209714D01*
X47600071Y-56209714D01*
X47571500Y-56224000D01*
X47557214Y-56252571D01*
X47557214Y-56281143D01*
X47700071Y-56309714D01*
X47028643Y-56381143D02*
X47042929Y-56395429D01*
X47085786Y-56409714D01*
X47114357Y-56409714D01*
X47157214Y-56395429D01*
X47185786Y-56366857D01*
X47200071Y-56338286D01*
X47214357Y-56281143D01*
X47214357Y-56238286D01*
X47200071Y-56181143D01*
X47185786Y-56152571D01*
X47157214Y-56124000D01*
X47114357Y-56109714D01*
X47085786Y-56109714D01*
X47042929Y-56124000D01*
X47028643Y-56138286D01*
X46857214Y-56409714D02*
X46885786Y-56395429D01*
X46900071Y-56381143D01*
X46914357Y-56352571D01*
X46914357Y-56266857D01*
X46900071Y-56238286D01*
X46885786Y-56224000D01*
X46857214Y-56209714D01*
X46814357Y-56209714D01*
X46785786Y-56224000D01*
X46771500Y-56238286D01*
X46757214Y-56266857D01*
X46757214Y-56352571D01*
X46771500Y-56381143D01*
X46785786Y-56395429D01*
X46814357Y-56409714D01*
X46857214Y-56409714D01*
X46628642Y-56409714D02*
X46628642Y-56209714D01*
X46628642Y-56238286D02*
X46614357Y-56224000D01*
X46585785Y-56209714D01*
X46542928Y-56209714D01*
X46514357Y-56224000D01*
X46500071Y-56252571D01*
X46500071Y-56409714D01*
X46500071Y-56252571D02*
X46485785Y-56224000D01*
X46457214Y-56209714D01*
X46414357Y-56209714D01*
X46385785Y-56224000D01*
X46371500Y-56252571D01*
X46371500Y-56409714D01*
X46228642Y-56409714D02*
X46228642Y-56209714D01*
X46228642Y-56238286D02*
X46214357Y-56224000D01*
X46185785Y-56209714D01*
X46142928Y-56209714D01*
X46114357Y-56224000D01*
X46100071Y-56252571D01*
X46100071Y-56409714D01*
X46100071Y-56252571D02*
X46085785Y-56224000D01*
X46057214Y-56209714D01*
X46014357Y-56209714D01*
X45985785Y-56224000D01*
X45971500Y-56252571D01*
X45971500Y-56409714D01*
X45785785Y-56409714D02*
X45814357Y-56395429D01*
X45828642Y-56381143D01*
X45842928Y-56352571D01*
X45842928Y-56266857D01*
X45828642Y-56238286D01*
X45814357Y-56224000D01*
X45785785Y-56209714D01*
X45742928Y-56209714D01*
X45714357Y-56224000D01*
X45700071Y-56238286D01*
X45685785Y-56266857D01*
X45685785Y-56352571D01*
X45700071Y-56381143D01*
X45714357Y-56395429D01*
X45742928Y-56409714D01*
X45785785Y-56409714D01*
X45557213Y-56209714D02*
X45557213Y-56409714D01*
X45557213Y-56238286D02*
X45542928Y-56224000D01*
X45514356Y-56209714D01*
X45471499Y-56209714D01*
X45442928Y-56224000D01*
X45428642Y-56252571D01*
X45428642Y-56409714D01*
X45300070Y-56395429D02*
X45271499Y-56409714D01*
X45214356Y-56409714D01*
X45185784Y-56395429D01*
X45171499Y-56366857D01*
X45171499Y-56352571D01*
X45185784Y-56324000D01*
X45214356Y-56309714D01*
X45257213Y-56309714D01*
X45285784Y-56295429D01*
X45300070Y-56266857D01*
X45300070Y-56252571D01*
X45285784Y-56224000D01*
X45257213Y-56209714D01*
X45214356Y-56209714D01*
X45185784Y-56224000D01*
X44728642Y-56524000D02*
X44742928Y-56509714D01*
X44771499Y-56466857D01*
X44785785Y-56438286D01*
X44800071Y-56395429D01*
X44814356Y-56324000D01*
X44814356Y-56266857D01*
X44800071Y-56195429D01*
X44785785Y-56152571D01*
X44771499Y-56124000D01*
X44742928Y-56081143D01*
X44728642Y-56066857D01*
X44442928Y-56381143D02*
X44457214Y-56395429D01*
X44500071Y-56409714D01*
X44528642Y-56409714D01*
X44571499Y-56395429D01*
X44600071Y-56366857D01*
X44614356Y-56338286D01*
X44628642Y-56281143D01*
X44628642Y-56238286D01*
X44614356Y-56181143D01*
X44600071Y-56152571D01*
X44571499Y-56124000D01*
X44528642Y-56109714D01*
X44500071Y-56109714D01*
X44457214Y-56124000D01*
X44442928Y-56138286D01*
X44142928Y-56381143D02*
X44157214Y-56395429D01*
X44200071Y-56409714D01*
X44228642Y-56409714D01*
X44271499Y-56395429D01*
X44300071Y-56366857D01*
X44314356Y-56338286D01*
X44328642Y-56281143D01*
X44328642Y-56238286D01*
X44314356Y-56181143D01*
X44300071Y-56152571D01*
X44271499Y-56124000D01*
X44228642Y-56109714D01*
X44200071Y-56109714D01*
X44157214Y-56124000D01*
X44142928Y-56138286D01*
X43685785Y-56252571D02*
X43642928Y-56266857D01*
X43628643Y-56281143D01*
X43614357Y-56309714D01*
X43614357Y-56352571D01*
X43628643Y-56381143D01*
X43642928Y-56395429D01*
X43671500Y-56409714D01*
X43785785Y-56409714D01*
X43785785Y-56109714D01*
X43685785Y-56109714D01*
X43657214Y-56124000D01*
X43642928Y-56138286D01*
X43628643Y-56166857D01*
X43628643Y-56195429D01*
X43642928Y-56224000D01*
X43657214Y-56238286D01*
X43685785Y-56252571D01*
X43785785Y-56252571D01*
X43428643Y-56266857D02*
X43428643Y-56409714D01*
X43528643Y-56109714D02*
X43428643Y-56266857D01*
X43328643Y-56109714D01*
X43228642Y-56295429D02*
X43000071Y-56295429D01*
X42871499Y-56395429D02*
X42828642Y-56409714D01*
X42757213Y-56409714D01*
X42728642Y-56395429D01*
X42714356Y-56381143D01*
X42700071Y-56352571D01*
X42700071Y-56324000D01*
X42714356Y-56295429D01*
X42728642Y-56281143D01*
X42757213Y-56266857D01*
X42814356Y-56252571D01*
X42842928Y-56238286D01*
X42857213Y-56224000D01*
X42871499Y-56195429D01*
X42871499Y-56166857D01*
X42857213Y-56138286D01*
X42842928Y-56124000D01*
X42814356Y-56109714D01*
X42742928Y-56109714D01*
X42700071Y-56124000D01*
X42585785Y-56324000D02*
X42442928Y-56324000D01*
X42614357Y-56409714D02*
X42514357Y-56109714D01*
X42414357Y-56409714D01*
X41957214Y-56209714D02*
X41957214Y-56409714D01*
X42028643Y-56095429D02*
X42100071Y-56309714D01*
X41914357Y-56309714D01*
X41800071Y-56381143D02*
X41785786Y-56395429D01*
X41800071Y-56409714D01*
X41814357Y-56395429D01*
X41800071Y-56381143D01*
X41800071Y-56409714D01*
X41600072Y-56109714D02*
X41571500Y-56109714D01*
X41542929Y-56124000D01*
X41528643Y-56138286D01*
X41514357Y-56166857D01*
X41500072Y-56224000D01*
X41500072Y-56295429D01*
X41514357Y-56352571D01*
X41528643Y-56381143D01*
X41542929Y-56395429D01*
X41571500Y-56409714D01*
X41600072Y-56409714D01*
X41628643Y-56395429D01*
X41642929Y-56381143D01*
X41657214Y-56352571D01*
X41671500Y-56295429D01*
X41671500Y-56224000D01*
X41657214Y-56166857D01*
X41642929Y-56138286D01*
X41628643Y-56124000D01*
X41600072Y-56109714D01*
X41400072Y-56524000D02*
X41385786Y-56509714D01*
X41357215Y-56466857D01*
X41342929Y-56438286D01*
X41328643Y-56395429D01*
X41314358Y-56324000D01*
X41314358Y-56266857D01*
X41328643Y-56195429D01*
X41342929Y-56152571D01*
X41357215Y-56124000D01*
X41385786Y-56081143D01*
X41400072Y-56066857D01*
X51214357Y-57574000D02*
X51228643Y-57559714D01*
X51257214Y-57516857D01*
X51271500Y-57488286D01*
X51285786Y-57445429D01*
X51300071Y-57374000D01*
X51300071Y-57316857D01*
X51285786Y-57245429D01*
X51271500Y-57202571D01*
X51257214Y-57174000D01*
X51228643Y-57131143D01*
X51214357Y-57116857D01*
X50971500Y-57445429D02*
X51000071Y-57459714D01*
X51057214Y-57459714D01*
X51085786Y-57445429D01*
X51100071Y-57431143D01*
X51114357Y-57402571D01*
X51114357Y-57316857D01*
X51100071Y-57288286D01*
X51085786Y-57274000D01*
X51057214Y-57259714D01*
X51000071Y-57259714D01*
X50971500Y-57274000D01*
X50871500Y-57574000D02*
X50857214Y-57559714D01*
X50828643Y-57516857D01*
X50814357Y-57488286D01*
X50800071Y-57445429D01*
X50785786Y-57374000D01*
X50785786Y-57316857D01*
X50800071Y-57245429D01*
X50814357Y-57202571D01*
X50828643Y-57174000D01*
X50857214Y-57131143D01*
X50871500Y-57116857D01*
X50428643Y-57188286D02*
X50414357Y-57174000D01*
X50385786Y-57159714D01*
X50314357Y-57159714D01*
X50285786Y-57174000D01*
X50271500Y-57188286D01*
X50257215Y-57216857D01*
X50257215Y-57245429D01*
X50271500Y-57288286D01*
X50442929Y-57459714D01*
X50257215Y-57459714D01*
X50071501Y-57159714D02*
X50042929Y-57159714D01*
X50014358Y-57174000D01*
X50000072Y-57188286D01*
X49985786Y-57216857D01*
X49971501Y-57274000D01*
X49971501Y-57345429D01*
X49985786Y-57402571D01*
X50000072Y-57431143D01*
X50014358Y-57445429D01*
X50042929Y-57459714D01*
X50071501Y-57459714D01*
X50100072Y-57445429D01*
X50114358Y-57431143D01*
X50128643Y-57402571D01*
X50142929Y-57345429D01*
X50142929Y-57274000D01*
X50128643Y-57216857D01*
X50114358Y-57188286D01*
X50100072Y-57174000D01*
X50071501Y-57159714D01*
X49685787Y-57459714D02*
X49857215Y-57459714D01*
X49771501Y-57459714D02*
X49771501Y-57159714D01*
X49800072Y-57202571D01*
X49828644Y-57231143D01*
X49857215Y-57245429D01*
X49585787Y-57159714D02*
X49385787Y-57159714D01*
X49514358Y-57459714D01*
X48957216Y-57159714D02*
X48957216Y-57374000D01*
X48971502Y-57416857D01*
X49000073Y-57445429D01*
X49042930Y-57459714D01*
X49071502Y-57459714D01*
X48771502Y-57459714D02*
X48800074Y-57445429D01*
X48814359Y-57431143D01*
X48828645Y-57402571D01*
X48828645Y-57316857D01*
X48814359Y-57288286D01*
X48800074Y-57274000D01*
X48771502Y-57259714D01*
X48728645Y-57259714D01*
X48700074Y-57274000D01*
X48685788Y-57288286D01*
X48671502Y-57316857D01*
X48671502Y-57402571D01*
X48685788Y-57431143D01*
X48700074Y-57445429D01*
X48728645Y-57459714D01*
X48771502Y-57459714D01*
X48542930Y-57259714D02*
X48542930Y-57459714D01*
X48542930Y-57288286D02*
X48528645Y-57274000D01*
X48500073Y-57259714D01*
X48457216Y-57259714D01*
X48428645Y-57274000D01*
X48414359Y-57302571D01*
X48414359Y-57459714D01*
X48142930Y-57459714D02*
X48142930Y-57302571D01*
X48157216Y-57274000D01*
X48185787Y-57259714D01*
X48242930Y-57259714D01*
X48271501Y-57274000D01*
X48142930Y-57445429D02*
X48171501Y-57459714D01*
X48242930Y-57459714D01*
X48271501Y-57445429D01*
X48285787Y-57416857D01*
X48285787Y-57388286D01*
X48271501Y-57359714D01*
X48242930Y-57345429D01*
X48171501Y-57345429D01*
X48142930Y-57331143D01*
X48014358Y-57445429D02*
X47985787Y-57459714D01*
X47928644Y-57459714D01*
X47900072Y-57445429D01*
X47885787Y-57416857D01*
X47885787Y-57402571D01*
X47900072Y-57374000D01*
X47928644Y-57359714D01*
X47971501Y-57359714D01*
X48000072Y-57345429D01*
X48014358Y-57316857D01*
X48014358Y-57302571D01*
X48000072Y-57274000D01*
X47971501Y-57259714D01*
X47928644Y-57259714D01*
X47900072Y-57274000D01*
X47428644Y-57302571D02*
X47385787Y-57316857D01*
X47371502Y-57331143D01*
X47357216Y-57359714D01*
X47357216Y-57402571D01*
X47371502Y-57431143D01*
X47385787Y-57445429D01*
X47414359Y-57459714D01*
X47528644Y-57459714D01*
X47528644Y-57159714D01*
X47428644Y-57159714D01*
X47400073Y-57174000D01*
X47385787Y-57188286D01*
X47371502Y-57216857D01*
X47371502Y-57245429D01*
X47385787Y-57274000D01*
X47400073Y-57288286D01*
X47428644Y-57302571D01*
X47528644Y-57302571D01*
X47228644Y-57259714D02*
X47228644Y-57516857D01*
X47242930Y-57545429D01*
X47271502Y-57559714D01*
X47285787Y-57559714D01*
X47228644Y-57159714D02*
X47242930Y-57174000D01*
X47228644Y-57188286D01*
X47214359Y-57174000D01*
X47228644Y-57159714D01*
X47228644Y-57188286D01*
X46957216Y-57259714D02*
X46957216Y-57459714D01*
X47085787Y-57259714D02*
X47085787Y-57416857D01*
X47071502Y-57445429D01*
X47042930Y-57459714D01*
X47000073Y-57459714D01*
X46971502Y-57445429D01*
X46957216Y-57431143D01*
X46814358Y-57459714D02*
X46814358Y-57259714D01*
X46814358Y-57316857D02*
X46800073Y-57288286D01*
X46785787Y-57274000D01*
X46757216Y-57259714D01*
X46728644Y-57259714D01*
X46514359Y-57445429D02*
X46542930Y-57459714D01*
X46600073Y-57459714D01*
X46628644Y-57445429D01*
X46642930Y-57416857D01*
X46642930Y-57302571D01*
X46628644Y-57274000D01*
X46600073Y-57259714D01*
X46542930Y-57259714D01*
X46514359Y-57274000D01*
X46500073Y-57302571D01*
X46500073Y-57331143D01*
X46642930Y-57359714D01*
X46328644Y-57459714D02*
X46357216Y-57445429D01*
X46371501Y-57416857D01*
X46371501Y-57159714D01*
D11*
X51251667Y-48839381D02*
X51251667Y-47839381D01*
X50870714Y-47839381D01*
X50775476Y-47887000D01*
X50727857Y-47934619D01*
X50680238Y-48029857D01*
X50680238Y-48172714D01*
X50727857Y-48267952D01*
X50775476Y-48315571D01*
X50870714Y-48363190D01*
X51251667Y-48363190D01*
X49680238Y-48744143D02*
X49727857Y-48791762D01*
X49870714Y-48839381D01*
X49965952Y-48839381D01*
X50108810Y-48791762D01*
X50204048Y-48696524D01*
X50251667Y-48601286D01*
X50299286Y-48410810D01*
X50299286Y-48267952D01*
X50251667Y-48077476D01*
X50204048Y-47982238D01*
X50108810Y-47887000D01*
X49965952Y-47839381D01*
X49870714Y-47839381D01*
X49727857Y-47887000D01*
X49680238Y-47934619D01*
X48918333Y-48315571D02*
X48775476Y-48363190D01*
X48727857Y-48410810D01*
X48680238Y-48506048D01*
X48680238Y-48648905D01*
X48727857Y-48744143D01*
X48775476Y-48791762D01*
X48870714Y-48839381D01*
X49251667Y-48839381D01*
X49251667Y-47839381D01*
X48918333Y-47839381D01*
X48823095Y-47887000D01*
X48775476Y-47934619D01*
X48727857Y-48029857D01*
X48727857Y-48125095D01*
X48775476Y-48220333D01*
X48823095Y-48267952D01*
X48918333Y-48315571D01*
X49251667Y-48315571D01*
X47489762Y-48839381D02*
X47489762Y-47839381D01*
X47013572Y-48172714D02*
X47013572Y-48839381D01*
X47013572Y-48267952D02*
X46965953Y-48220333D01*
X46870715Y-48172714D01*
X46727857Y-48172714D01*
X46632619Y-48220333D01*
X46585000Y-48315571D01*
X46585000Y-48839381D01*
X46251667Y-48172714D02*
X45870715Y-48172714D01*
X46108810Y-48839381D02*
X46108810Y-47982238D01*
X46061191Y-47887000D01*
X45965953Y-47839381D01*
X45870715Y-47839381D01*
X45394524Y-48839381D02*
X45489762Y-48791762D01*
X45537381Y-48744143D01*
X45585000Y-48648905D01*
X45585000Y-48363190D01*
X45537381Y-48267952D01*
X45489762Y-48220333D01*
X45394524Y-48172714D01*
X45251666Y-48172714D01*
X45156428Y-48220333D01*
X45108809Y-48267952D01*
X45061190Y-48363190D01*
X45061190Y-48648905D01*
X45108809Y-48744143D01*
X45156428Y-48791762D01*
X45251666Y-48839381D01*
X45394524Y-48839381D01*
X44632619Y-48839381D02*
X44632619Y-48172714D01*
X44632619Y-48363190D02*
X44585000Y-48267952D01*
X44537381Y-48220333D01*
X44442143Y-48172714D01*
X44346904Y-48172714D01*
X44013571Y-48839381D02*
X44013571Y-48172714D01*
X44013571Y-48267952D02*
X43965952Y-48220333D01*
X43870714Y-48172714D01*
X43727856Y-48172714D01*
X43632618Y-48220333D01*
X43584999Y-48315571D01*
X43584999Y-48839381D01*
X43584999Y-48315571D02*
X43537380Y-48220333D01*
X43442142Y-48172714D01*
X43299285Y-48172714D01*
X43204047Y-48220333D01*
X43156428Y-48315571D01*
X43156428Y-48839381D01*
X42251666Y-48839381D02*
X42251666Y-48315571D01*
X42299285Y-48220333D01*
X42394523Y-48172714D01*
X42585000Y-48172714D01*
X42680238Y-48220333D01*
X42251666Y-48791762D02*
X42346904Y-48839381D01*
X42585000Y-48839381D01*
X42680238Y-48791762D01*
X42727857Y-48696524D01*
X42727857Y-48601286D01*
X42680238Y-48506048D01*
X42585000Y-48458429D01*
X42346904Y-48458429D01*
X42251666Y-48410810D01*
X41918333Y-48172714D02*
X41537381Y-48172714D01*
X41775476Y-47839381D02*
X41775476Y-48696524D01*
X41727857Y-48791762D01*
X41632619Y-48839381D01*
X41537381Y-48839381D01*
X41204047Y-48839381D02*
X41204047Y-48172714D01*
X41204047Y-47839381D02*
X41251666Y-47887000D01*
X41204047Y-47934619D01*
X41156428Y-47887000D01*
X41204047Y-47839381D01*
X41204047Y-47934619D01*
X40585000Y-48839381D02*
X40680238Y-48791762D01*
X40727857Y-48744143D01*
X40775476Y-48648905D01*
X40775476Y-48363190D01*
X40727857Y-48267952D01*
X40680238Y-48220333D01*
X40585000Y-48172714D01*
X40442142Y-48172714D01*
X40346904Y-48220333D01*
X40299285Y-48267952D01*
X40251666Y-48363190D01*
X40251666Y-48648905D01*
X40299285Y-48744143D01*
X40346904Y-48791762D01*
X40442142Y-48839381D01*
X40585000Y-48839381D01*
X39823095Y-48172714D02*
X39823095Y-48839381D01*
X39823095Y-48267952D02*
X39775476Y-48220333D01*
X39680238Y-48172714D01*
X39537380Y-48172714D01*
X39442142Y-48220333D01*
X39394523Y-48315571D01*
X39394523Y-48839381D01*
X38918333Y-48744143D02*
X38870714Y-48791762D01*
X38918333Y-48839381D01*
X38965952Y-48791762D01*
X38918333Y-48744143D01*
X38918333Y-48839381D01*
X38918333Y-48220333D02*
X38870714Y-48267952D01*
X38918333Y-48315571D01*
X38965952Y-48267952D01*
X38918333Y-48220333D01*
X38918333Y-48315571D01*
D10*
X37465000Y-58293000D02*
X37973000Y-58293000D01*
X37465000Y-47117000D02*
X37465000Y-58293000D01*
X52070000Y-58293000D02*
X37846000Y-58293000D01*
X52070000Y-47117000D02*
X52070000Y-58293000D01*
X37465000Y-47117000D02*
X52070000Y-47117000D01*
D14*
X68219652Y-64624790D02*
X68219652Y-64124790D01*
X68100605Y-64124790D01*
X68029176Y-64148600D01*
X67981557Y-64196219D01*
X67957748Y-64243838D01*
X67933938Y-64339076D01*
X67933938Y-64410505D01*
X67957748Y-64505743D01*
X67981557Y-64553362D01*
X68029176Y-64600981D01*
X68100605Y-64624790D01*
X68219652Y-64624790D01*
X67529176Y-64600981D02*
X67576795Y-64624790D01*
X67672033Y-64624790D01*
X67719652Y-64600981D01*
X67743462Y-64553362D01*
X67743462Y-64362886D01*
X67719652Y-64315267D01*
X67672033Y-64291457D01*
X67576795Y-64291457D01*
X67529176Y-64315267D01*
X67505367Y-64362886D01*
X67505367Y-64410505D01*
X67743462Y-64458124D01*
X67362510Y-64291457D02*
X67172034Y-64291457D01*
X67291081Y-64624790D02*
X67291081Y-64196219D01*
X67267272Y-64148600D01*
X67219653Y-64124790D01*
X67172034Y-64124790D01*
X66791082Y-64624790D02*
X66791082Y-64362886D01*
X66814891Y-64315267D01*
X66862510Y-64291457D01*
X66957748Y-64291457D01*
X67005367Y-64315267D01*
X66791082Y-64600981D02*
X66838701Y-64624790D01*
X66957748Y-64624790D01*
X67005367Y-64600981D01*
X67029177Y-64553362D01*
X67029177Y-64505743D01*
X67005367Y-64458124D01*
X66957748Y-64434314D01*
X66838701Y-64434314D01*
X66791082Y-64410505D01*
X66338701Y-64291457D02*
X66338701Y-64624790D01*
X66552986Y-64291457D02*
X66552986Y-64553362D01*
X66529177Y-64600981D01*
X66481558Y-64624790D01*
X66410129Y-64624790D01*
X66362510Y-64600981D01*
X66338701Y-64577171D01*
X66029177Y-64624790D02*
X66076796Y-64600981D01*
X66100605Y-64553362D01*
X66100605Y-64124790D01*
X65910129Y-64291457D02*
X65719653Y-64291457D01*
X65838700Y-64124790D02*
X65838700Y-64553362D01*
X65814891Y-64600981D01*
X65767272Y-64624790D01*
X65719653Y-64624790D01*
X65552986Y-64577171D02*
X65529177Y-64600981D01*
X65552986Y-64624790D01*
X65576796Y-64600981D01*
X65552986Y-64577171D01*
X65552986Y-64624790D01*
X65552986Y-64315267D02*
X65529177Y-64339076D01*
X65552986Y-64362886D01*
X65576796Y-64339076D01*
X65552986Y-64315267D01*
X65552986Y-64362886D01*
X68219652Y-65237886D02*
X67838700Y-65237886D01*
X67838700Y-65380743D02*
X68219652Y-65380743D01*
X67600604Y-65237886D02*
X67219652Y-65237886D01*
X67219652Y-65380743D02*
X67600604Y-65380743D01*
X66981556Y-65237886D02*
X66600604Y-65237886D01*
X66600604Y-65380743D02*
X66981556Y-65380743D01*
X66362508Y-65237886D02*
X65981556Y-65237886D01*
X65981556Y-65380743D02*
X66362508Y-65380743D01*
X65743460Y-65237886D02*
X65362508Y-65237886D01*
X65362508Y-65380743D02*
X65743460Y-65380743D01*
X68243462Y-65922410D02*
X68219652Y-65898600D01*
X68172033Y-65874790D01*
X68052986Y-65874790D01*
X68005367Y-65898600D01*
X67981557Y-65922410D01*
X67957748Y-65970029D01*
X67957748Y-66017648D01*
X67981557Y-66089076D01*
X68267271Y-66374790D01*
X67957748Y-66374790D01*
X67743462Y-66184314D02*
X67362510Y-66184314D01*
X66838700Y-66327171D02*
X66862510Y-66350981D01*
X66933938Y-66374790D01*
X66981557Y-66374790D01*
X67052986Y-66350981D01*
X67100605Y-66303362D01*
X67124414Y-66255743D01*
X67148224Y-66160505D01*
X67148224Y-66089076D01*
X67124414Y-65993838D01*
X67100605Y-65946219D01*
X67052986Y-65898600D01*
X66981557Y-65874790D01*
X66933938Y-65874790D01*
X66862510Y-65898600D01*
X66838700Y-65922410D01*
X66648224Y-66231933D02*
X66410129Y-66231933D01*
X66695843Y-66374790D02*
X66529176Y-65874790D01*
X66362510Y-66374790D01*
X66195843Y-66374790D02*
X66195843Y-65874790D01*
X65910129Y-66374790D01*
X65910129Y-65874790D01*
X65433938Y-66374790D02*
X65672033Y-66374790D01*
X65672033Y-65874790D01*
X68267271Y-66749790D02*
X67957748Y-66749790D01*
X68124414Y-66940267D01*
X68052986Y-66940267D01*
X68005367Y-66964076D01*
X67981557Y-66987886D01*
X67957748Y-67035505D01*
X67957748Y-67154552D01*
X67981557Y-67202171D01*
X68005367Y-67225981D01*
X68052986Y-67249790D01*
X68195843Y-67249790D01*
X68243462Y-67225981D01*
X68267271Y-67202171D01*
X67743462Y-67059314D02*
X67362510Y-67059314D01*
X66862510Y-66773600D02*
X66910129Y-66749790D01*
X66981557Y-66749790D01*
X67052986Y-66773600D01*
X67100605Y-66821219D01*
X67124414Y-66868838D01*
X67148224Y-66964076D01*
X67148224Y-67035505D01*
X67124414Y-67130743D01*
X67100605Y-67178362D01*
X67052986Y-67225981D01*
X66981557Y-67249790D01*
X66933938Y-67249790D01*
X66862510Y-67225981D01*
X66838700Y-67202171D01*
X66838700Y-67035505D01*
X66933938Y-67035505D01*
X66624414Y-67249790D02*
X66624414Y-66749790D01*
X66338700Y-67249790D01*
X66338700Y-66749790D01*
X66100604Y-67249790D02*
X66100604Y-66749790D01*
X65981557Y-66749790D01*
X65910128Y-66773600D01*
X65862509Y-66821219D01*
X65838700Y-66868838D01*
X65814890Y-66964076D01*
X65814890Y-67035505D01*
X65838700Y-67130743D01*
X65862509Y-67178362D01*
X65910128Y-67225981D01*
X65981557Y-67249790D01*
X66100604Y-67249790D01*
X68267271Y-67624790D02*
X67933938Y-67624790D01*
X68148224Y-68124790D01*
X67743462Y-67934314D02*
X67362510Y-67934314D01*
X66838700Y-68077171D02*
X66862510Y-68100981D01*
X66933938Y-68124790D01*
X66981557Y-68124790D01*
X67052986Y-68100981D01*
X67100605Y-68053362D01*
X67124414Y-68005743D01*
X67148224Y-67910505D01*
X67148224Y-67839076D01*
X67124414Y-67743838D01*
X67100605Y-67696219D01*
X67052986Y-67648600D01*
X66981557Y-67624790D01*
X66933938Y-67624790D01*
X66862510Y-67648600D01*
X66838700Y-67672410D01*
X66648224Y-67981933D02*
X66410129Y-67981933D01*
X66695843Y-68124790D02*
X66529176Y-67624790D01*
X66362510Y-68124790D01*
X66195843Y-68124790D02*
X66195843Y-67624790D01*
X65910129Y-68124790D01*
X65910129Y-67624790D01*
X65672033Y-68124790D02*
X65672033Y-67624790D01*
X65672033Y-67862886D02*
X65386319Y-67862886D01*
X65386319Y-68124790D02*
X65386319Y-67624790D01*
X68195843Y-68999790D02*
X68100605Y-68999790D01*
X68052986Y-68975981D01*
X68029176Y-68952171D01*
X67981557Y-68880743D01*
X67957748Y-68785505D01*
X67957748Y-68595029D01*
X67981557Y-68547410D01*
X68005367Y-68523600D01*
X68052986Y-68499790D01*
X68148224Y-68499790D01*
X68195843Y-68523600D01*
X68219652Y-68547410D01*
X68243462Y-68595029D01*
X68243462Y-68714076D01*
X68219652Y-68761695D01*
X68195843Y-68785505D01*
X68148224Y-68809314D01*
X68052986Y-68809314D01*
X68005367Y-68785505D01*
X67981557Y-68761695D01*
X67957748Y-68714076D01*
X67743462Y-68809314D02*
X67362510Y-68809314D01*
X66862510Y-68999790D02*
X67148224Y-68999790D01*
X67005367Y-68999790D02*
X67005367Y-68499790D01*
X67052986Y-68571219D01*
X67100605Y-68618838D01*
X67148224Y-68642648D01*
X66672034Y-68547410D02*
X66648224Y-68523600D01*
X66600605Y-68499790D01*
X66481558Y-68499790D01*
X66433939Y-68523600D01*
X66410129Y-68547410D01*
X66386320Y-68595029D01*
X66386320Y-68642648D01*
X66410129Y-68714076D01*
X66695843Y-68999790D01*
X66386320Y-68999790D01*
X66243463Y-68499790D02*
X66076796Y-68999790D01*
X65910130Y-68499790D01*
X65743463Y-68809314D02*
X65362511Y-68809314D01*
X65552987Y-68999790D02*
X65552987Y-68618838D01*
X74220414Y-64124790D02*
X74125176Y-64124790D01*
X74077557Y-64148600D01*
X74029938Y-64196219D01*
X74006129Y-64291457D01*
X74006129Y-64458124D01*
X74029938Y-64553362D01*
X74077557Y-64600981D01*
X74125176Y-64624790D01*
X74220414Y-64624790D01*
X74268033Y-64600981D01*
X74315652Y-64553362D01*
X74339462Y-64458124D01*
X74339462Y-64291457D01*
X74315652Y-64196219D01*
X74268033Y-64148600D01*
X74220414Y-64124790D01*
X73791842Y-64624790D02*
X73791842Y-64124790D01*
X73672795Y-64124790D01*
X73601366Y-64148600D01*
X73553747Y-64196219D01*
X73529938Y-64243838D01*
X73506128Y-64339076D01*
X73506128Y-64410505D01*
X73529938Y-64505743D01*
X73553747Y-64553362D01*
X73601366Y-64600981D01*
X73672795Y-64624790D01*
X73791842Y-64624790D01*
X73125176Y-64362886D02*
X73053747Y-64386695D01*
X73029938Y-64410505D01*
X73006128Y-64458124D01*
X73006128Y-64529552D01*
X73029938Y-64577171D01*
X73053747Y-64600981D01*
X73101366Y-64624790D01*
X73291842Y-64624790D01*
X73291842Y-64124790D01*
X73125176Y-64124790D01*
X73077557Y-64148600D01*
X73053747Y-64172410D01*
X73029938Y-64220029D01*
X73029938Y-64267648D01*
X73053747Y-64315267D01*
X73077557Y-64339076D01*
X73125176Y-64362886D01*
X73291842Y-64362886D01*
X72791842Y-64624790D02*
X72791842Y-64124790D01*
X72553747Y-64624790D02*
X72553747Y-64124790D01*
X72315652Y-64577171D02*
X72291843Y-64600981D01*
X72315652Y-64624790D01*
X72339462Y-64600981D01*
X72315652Y-64577171D01*
X72315652Y-64624790D01*
X72315652Y-64315267D02*
X72291843Y-64339076D01*
X72315652Y-64362886D01*
X72339462Y-64339076D01*
X72315652Y-64315267D01*
X72315652Y-64362886D01*
X74315652Y-65237886D02*
X73934700Y-65237886D01*
X73934700Y-65380743D02*
X74315652Y-65380743D01*
X73696604Y-65237886D02*
X73315652Y-65237886D01*
X73315652Y-65380743D02*
X73696604Y-65380743D01*
X73077556Y-65237886D02*
X72696604Y-65237886D01*
X72696604Y-65380743D02*
X73077556Y-65380743D01*
X72458508Y-65237886D02*
X72077556Y-65237886D01*
X72077556Y-65380743D02*
X72458508Y-65380743D01*
X71839460Y-65237886D02*
X71458508Y-65237886D01*
X71458508Y-65380743D02*
X71839460Y-65380743D01*
X74339462Y-65922410D02*
X74315652Y-65898600D01*
X74268033Y-65874790D01*
X74148986Y-65874790D01*
X74101367Y-65898600D01*
X74077557Y-65922410D01*
X74053748Y-65970029D01*
X74053748Y-66017648D01*
X74077557Y-66089076D01*
X74363271Y-66374790D01*
X74053748Y-66374790D01*
X73839462Y-66184314D02*
X73458510Y-66184314D01*
X72958510Y-65898600D02*
X73006129Y-65874790D01*
X73077557Y-65874790D01*
X73148986Y-65898600D01*
X73196605Y-65946219D01*
X73220414Y-65993838D01*
X73244224Y-66089076D01*
X73244224Y-66160505D01*
X73220414Y-66255743D01*
X73196605Y-66303362D01*
X73148986Y-66350981D01*
X73077557Y-66374790D01*
X73029938Y-66374790D01*
X72958510Y-66350981D01*
X72934700Y-66327171D01*
X72934700Y-66160505D01*
X73029938Y-66160505D01*
X72720414Y-66374790D02*
X72720414Y-65874790D01*
X72434700Y-66374790D01*
X72434700Y-65874790D01*
X72196604Y-66374790D02*
X72196604Y-65874790D01*
X72077557Y-65874790D01*
X72006128Y-65898600D01*
X71958509Y-65946219D01*
X71934700Y-65993838D01*
X71910890Y-66089076D01*
X71910890Y-66160505D01*
X71934700Y-66255743D01*
X71958509Y-66303362D01*
X72006128Y-66350981D01*
X72077557Y-66374790D01*
X72196604Y-66374790D01*
X74363271Y-66749790D02*
X74053748Y-66749790D01*
X74220414Y-66940267D01*
X74148986Y-66940267D01*
X74101367Y-66964076D01*
X74077557Y-66987886D01*
X74053748Y-67035505D01*
X74053748Y-67154552D01*
X74077557Y-67202171D01*
X74101367Y-67225981D01*
X74148986Y-67249790D01*
X74291843Y-67249790D01*
X74339462Y-67225981D01*
X74363271Y-67202171D01*
X73839462Y-67059314D02*
X73458510Y-67059314D01*
X72934700Y-67202171D02*
X72958510Y-67225981D01*
X73029938Y-67249790D01*
X73077557Y-67249790D01*
X73148986Y-67225981D01*
X73196605Y-67178362D01*
X73220414Y-67130743D01*
X73244224Y-67035505D01*
X73244224Y-66964076D01*
X73220414Y-66868838D01*
X73196605Y-66821219D01*
X73148986Y-66773600D01*
X73077557Y-66749790D01*
X73029938Y-66749790D01*
X72958510Y-66773600D01*
X72934700Y-66797410D01*
X72744224Y-67106933D02*
X72506129Y-67106933D01*
X72791843Y-67249790D02*
X72625176Y-66749790D01*
X72458510Y-67249790D01*
X72291843Y-67249790D02*
X72291843Y-66749790D01*
X72006129Y-67249790D01*
X72006129Y-66749790D01*
X71768033Y-67249790D02*
X71768033Y-66749790D01*
X71768033Y-66987886D02*
X71482319Y-66987886D01*
X71482319Y-67249790D02*
X71482319Y-66749790D01*
X74077557Y-67624790D02*
X74315652Y-67624790D01*
X74339462Y-67862886D01*
X74315652Y-67839076D01*
X74268033Y-67815267D01*
X74148986Y-67815267D01*
X74101367Y-67839076D01*
X74077557Y-67862886D01*
X74053748Y-67910505D01*
X74053748Y-68029552D01*
X74077557Y-68077171D01*
X74101367Y-68100981D01*
X74148986Y-68124790D01*
X74268033Y-68124790D01*
X74315652Y-68100981D01*
X74339462Y-68077171D01*
X73839462Y-67934314D02*
X73458510Y-67934314D01*
X72934700Y-68077171D02*
X72958510Y-68100981D01*
X73029938Y-68124790D01*
X73077557Y-68124790D01*
X73148986Y-68100981D01*
X73196605Y-68053362D01*
X73220414Y-68005743D01*
X73244224Y-67910505D01*
X73244224Y-67839076D01*
X73220414Y-67743838D01*
X73196605Y-67696219D01*
X73148986Y-67648600D01*
X73077557Y-67624790D01*
X73029938Y-67624790D01*
X72958510Y-67648600D01*
X72934700Y-67672410D01*
X72744224Y-67981933D02*
X72506129Y-67981933D01*
X72791843Y-68124790D02*
X72625176Y-67624790D01*
X72458510Y-68124790D01*
X72291843Y-68124790D02*
X72291843Y-67624790D01*
X72006129Y-68124790D01*
X72006129Y-67624790D01*
X71529938Y-68124790D02*
X71768033Y-68124790D01*
X71768033Y-67624790D01*
X74291843Y-68999790D02*
X74196605Y-68999790D01*
X74148986Y-68975981D01*
X74125176Y-68952171D01*
X74077557Y-68880743D01*
X74053748Y-68785505D01*
X74053748Y-68595029D01*
X74077557Y-68547410D01*
X74101367Y-68523600D01*
X74148986Y-68499790D01*
X74244224Y-68499790D01*
X74291843Y-68523600D01*
X74315652Y-68547410D01*
X74339462Y-68595029D01*
X74339462Y-68714076D01*
X74315652Y-68761695D01*
X74291843Y-68785505D01*
X74244224Y-68809314D01*
X74148986Y-68809314D01*
X74101367Y-68785505D01*
X74077557Y-68761695D01*
X74053748Y-68714076D01*
X73839462Y-68809314D02*
X73458510Y-68809314D01*
X72958510Y-68999790D02*
X73244224Y-68999790D01*
X73101367Y-68999790D02*
X73101367Y-68499790D01*
X73148986Y-68571219D01*
X73196605Y-68618838D01*
X73244224Y-68642648D01*
X72768034Y-68547410D02*
X72744224Y-68523600D01*
X72696605Y-68499790D01*
X72577558Y-68499790D01*
X72529939Y-68523600D01*
X72506129Y-68547410D01*
X72482320Y-68595029D01*
X72482320Y-68642648D01*
X72506129Y-68714076D01*
X72791843Y-68999790D01*
X72482320Y-68999790D01*
X72339463Y-68499790D02*
X72172796Y-68999790D01*
X72006130Y-68499790D01*
X71839463Y-68809314D02*
X71458511Y-68809314D01*
X71648987Y-68999790D02*
X71648987Y-68618838D01*
D12*
X74403185Y-63483686D02*
X74403185Y-62733686D01*
X74224613Y-62733686D01*
X74117470Y-62769400D01*
X74046042Y-62840829D01*
X74010327Y-62912257D01*
X73974613Y-63055114D01*
X73974613Y-63162257D01*
X74010327Y-63305114D01*
X74046042Y-63376543D01*
X74117470Y-63447971D01*
X74224613Y-63483686D01*
X74403185Y-63483686D01*
X73403185Y-63090829D02*
X73296042Y-63126543D01*
X73260327Y-63162257D01*
X73224613Y-63233686D01*
X73224613Y-63340829D01*
X73260327Y-63412257D01*
X73296042Y-63447971D01*
X73367470Y-63483686D01*
X73653185Y-63483686D01*
X73653185Y-62733686D01*
X73403185Y-62733686D01*
X73331756Y-62769400D01*
X73296042Y-62805114D01*
X73260327Y-62876543D01*
X73260327Y-62947971D01*
X73296042Y-63019400D01*
X73331756Y-63055114D01*
X73403185Y-63090829D01*
X73653185Y-63090829D01*
X72867470Y-63483686D02*
X72724613Y-63483686D01*
X72653185Y-63447971D01*
X72617470Y-63412257D01*
X72546042Y-63305114D01*
X72510327Y-63162257D01*
X72510327Y-62876543D01*
X72546042Y-62805114D01*
X72581756Y-62769400D01*
X72653185Y-62733686D01*
X72796042Y-62733686D01*
X72867470Y-62769400D01*
X72903185Y-62805114D01*
X72938899Y-62876543D01*
X72938899Y-63055114D01*
X72903185Y-63126543D01*
X72867470Y-63162257D01*
X72796042Y-63197971D01*
X72653185Y-63197971D01*
X72581756Y-63162257D01*
X72546042Y-63126543D01*
X72510327Y-63055114D01*
X71617470Y-63483686D02*
X71617470Y-62733686D01*
X71331755Y-62733686D01*
X71260327Y-62769400D01*
X71224612Y-62805114D01*
X71188898Y-62876543D01*
X71188898Y-62983686D01*
X71224612Y-63055114D01*
X71260327Y-63090829D01*
X71331755Y-63126543D01*
X71617470Y-63126543D01*
X70867470Y-63483686D02*
X70867470Y-62983686D01*
X70867470Y-62733686D02*
X70903184Y-62769400D01*
X70867470Y-62805114D01*
X70831755Y-62769400D01*
X70867470Y-62733686D01*
X70867470Y-62805114D01*
X70510327Y-62983686D02*
X70510327Y-63483686D01*
X70510327Y-63055114D02*
X70474612Y-63019400D01*
X70403184Y-62983686D01*
X70296041Y-62983686D01*
X70224612Y-63019400D01*
X70188898Y-63090829D01*
X70188898Y-63483686D01*
X69831756Y-63197971D02*
X69260327Y-63197971D01*
X68796042Y-63483686D02*
X68867470Y-63447971D01*
X68903185Y-63376543D01*
X68903185Y-62733686D01*
X68188899Y-63483686D02*
X68188899Y-63090829D01*
X68224613Y-63019400D01*
X68296042Y-62983686D01*
X68438899Y-62983686D01*
X68510328Y-63019400D01*
X68188899Y-63447971D02*
X68260328Y-63483686D01*
X68438899Y-63483686D01*
X68510328Y-63447971D01*
X68546042Y-63376543D01*
X68546042Y-63305114D01*
X68510328Y-63233686D01*
X68438899Y-63197971D01*
X68260328Y-63197971D01*
X68188899Y-63162257D01*
X67903185Y-62983686D02*
X67724614Y-63483686D01*
X67546042Y-62983686D02*
X67724614Y-63483686D01*
X67796042Y-63662257D01*
X67831757Y-63697971D01*
X67903185Y-63733686D01*
X67153185Y-63483686D02*
X67224613Y-63447971D01*
X67260328Y-63412257D01*
X67296042Y-63340829D01*
X67296042Y-63126543D01*
X67260328Y-63055114D01*
X67224613Y-63019400D01*
X67153185Y-62983686D01*
X67046042Y-62983686D01*
X66974613Y-63019400D01*
X66938899Y-63055114D01*
X66903185Y-63126543D01*
X66903185Y-63340829D01*
X66938899Y-63412257D01*
X66974613Y-63447971D01*
X67046042Y-63483686D01*
X67153185Y-63483686D01*
X66260328Y-62983686D02*
X66260328Y-63483686D01*
X66581757Y-62983686D02*
X66581757Y-63376543D01*
X66546042Y-63447971D01*
X66474614Y-63483686D01*
X66367471Y-63483686D01*
X66296042Y-63447971D01*
X66260328Y-63412257D01*
X66010328Y-62983686D02*
X65724614Y-62983686D01*
X65903186Y-62733686D02*
X65903186Y-63376543D01*
X65867471Y-63447971D01*
X65796043Y-63483686D01*
X65724614Y-63483686D01*
X65474615Y-63412257D02*
X65438900Y-63447971D01*
X65474615Y-63483686D01*
X65510329Y-63447971D01*
X65474615Y-63412257D01*
X65474615Y-63483686D01*
X65474615Y-63019400D02*
X65438900Y-63055114D01*
X65474615Y-63090829D01*
X65510329Y-63055114D01*
X65474615Y-63019400D01*
X65474615Y-63090829D01*
D15*
X75120500Y-17995900D02*
X24320500Y-17995900D01*
X26860500Y-23075900D02*
X75120500Y-23075900D01*
X75120500Y-17995900D02*
X75120500Y-23075900D01*
X24320500Y-17995900D02*
X24320500Y-20535900D01*
X25590500Y-23355900D02*
X24040500Y-23355900D01*
X24320500Y-20535900D02*
X26860500Y-20535900D01*
X26860500Y-20535900D02*
X26860500Y-23075900D01*
X24040500Y-23355900D02*
X24040500Y-21805900D01*
X74398166Y-17718043D02*
X74445785Y-17765662D01*
X74588642Y-17813281D01*
X74683880Y-17813281D01*
X74826738Y-17765662D01*
X74921976Y-17670424D01*
X74969595Y-17575186D01*
X75017214Y-17384710D01*
X75017214Y-17241852D01*
X74969595Y-17051376D01*
X74921976Y-16956138D01*
X74826738Y-16860900D01*
X74683880Y-16813281D01*
X74588642Y-16813281D01*
X74445785Y-16860900D01*
X74398166Y-16908519D01*
X73445785Y-17813281D02*
X74017214Y-17813281D01*
X73731500Y-17813281D02*
X73731500Y-16813281D01*
X73826738Y-16956138D01*
X73921976Y-17051376D01*
X74017214Y-17098995D01*
M02*
