G04 #@! TF.FileFunction,Soldermask,Bot*
%FSLAX46Y46*%
G04 Gerber Fmt 4.6, Leading zero omitted, Abs format (unit mm)*
G04 Created by KiCad (PCBNEW 4.0.5) date 01/25/17 19:42:50*
%MOMM*%
%LPD*%
G01*
G04 APERTURE LIST*
%ADD10C,0.200000*%
%ADD11O,2.540000X2.032000*%
%ADD12R,2.600000X2.600000*%
%ADD13O,2.600000X2.600000*%
%ADD14R,1.600000X1.600000*%
%ADD15C,1.600000*%
%ADD16C,2.500000*%
%ADD17R,2.500000X2.500000*%
%ADD18R,1.727200X1.727200*%
%ADD19O,1.727200X1.727200*%
%ADD20R,1.800000X1.800000*%
%ADD21C,1.800000*%
%ADD22C,3.810000*%
%ADD23R,1.524000X1.524000*%
%ADD24C,1.524000*%
%ADD25R,1.700000X1.700000*%
%ADD26O,1.700000X1.700000*%
%ADD27O,1.600000X1.600000*%
%ADD28C,1.500000*%
G04 APERTURE END LIST*
D10*
D11*
X32981900Y-52273200D03*
X32981900Y-54813200D03*
X32981900Y-49733200D03*
D12*
X45402500Y-37426900D03*
D13*
X32702500Y-37426900D03*
D12*
X45402500Y-43141900D03*
D13*
X32702500Y-43141900D03*
D14*
X49974500Y-33616900D03*
D15*
X51974500Y-33616900D03*
D14*
X32702500Y-29552900D03*
D15*
X36202500Y-29552900D03*
D16*
X58878500Y-64122300D03*
X53878500Y-64122300D03*
D17*
X43878500Y-64122300D03*
D16*
X48878500Y-64122300D03*
D18*
X25590500Y-21805900D03*
D19*
X25590500Y-19265900D03*
X28130500Y-21805900D03*
X28130500Y-19265900D03*
X30670500Y-21805900D03*
X30670500Y-19265900D03*
X33210500Y-21805900D03*
X33210500Y-19265900D03*
X35750500Y-21805900D03*
X35750500Y-19265900D03*
X38290500Y-21805900D03*
X38290500Y-19265900D03*
X40830500Y-21805900D03*
X40830500Y-19265900D03*
X43370500Y-21805900D03*
X43370500Y-19265900D03*
X45910500Y-21805900D03*
X45910500Y-19265900D03*
X48450500Y-21805900D03*
X48450500Y-19265900D03*
X50990500Y-21805900D03*
X50990500Y-19265900D03*
X53530500Y-21805900D03*
X53530500Y-19265900D03*
X56070500Y-21805900D03*
X56070500Y-19265900D03*
X58610500Y-21805900D03*
X58610500Y-19265900D03*
X61150500Y-21805900D03*
X61150500Y-19265900D03*
X63690500Y-21805900D03*
X63690500Y-19265900D03*
X66230500Y-21805900D03*
X66230500Y-19265900D03*
X68770500Y-21805900D03*
X68770500Y-19265900D03*
X71310500Y-21805900D03*
X71310500Y-19265900D03*
X73850500Y-21805900D03*
X73850500Y-19265900D03*
D14*
X49974500Y-28155900D03*
D15*
X51974500Y-28155900D03*
X22910800Y-57111900D03*
X27910800Y-57111900D03*
X26352500Y-63207900D03*
X21352500Y-63207900D03*
X72326500Y-42633900D03*
X77326500Y-42633900D03*
X72326500Y-45808900D03*
X77326500Y-45808900D03*
D20*
X75374500Y-58508900D03*
D21*
X77914500Y-58508900D03*
D20*
X75247500Y-54444900D03*
D21*
X77787500Y-54444900D03*
D20*
X75374500Y-50380900D03*
D21*
X77914500Y-50380900D03*
D22*
X21780500Y-27774900D03*
X21780500Y-52793900D03*
D23*
X23177500Y-45681900D03*
D24*
X23177500Y-43014900D03*
X23177500Y-40220900D03*
X23177500Y-37553900D03*
X23177500Y-34759900D03*
X20383500Y-44411900D03*
X20383500Y-41617900D03*
X20383500Y-38950900D03*
X20383500Y-36156900D03*
D25*
X26606500Y-32473900D03*
D26*
X26606500Y-35013900D03*
X26606500Y-37553900D03*
D25*
X26606500Y-26758900D03*
D26*
X26606500Y-29298900D03*
D25*
X26606500Y-40728900D03*
D26*
X26606500Y-43268900D03*
X26606500Y-45808900D03*
D25*
X26606500Y-53809900D03*
D26*
X26606500Y-51269900D03*
X26606500Y-48729900D03*
D15*
X58737500Y-40220900D03*
X63817500Y-40220900D03*
X63817500Y-43522900D03*
X58737500Y-43522900D03*
X49720500Y-40220900D03*
X54800500Y-40220900D03*
X49720500Y-43522900D03*
X54800500Y-43522900D03*
X66865500Y-58508900D03*
X71945500Y-58508900D03*
X35369500Y-60159900D03*
X30289500Y-60159900D03*
X21399500Y-60159900D03*
X26479500Y-60159900D03*
X66865500Y-54444900D03*
X71945500Y-54444900D03*
X30289500Y-63207900D03*
X35369500Y-63207900D03*
X66865500Y-50380900D03*
X71945500Y-50380900D03*
D14*
X57467500Y-33616900D03*
D27*
X77787500Y-25996900D03*
X60007500Y-33616900D03*
X75247500Y-25996900D03*
X62547500Y-33616900D03*
X72707500Y-25996900D03*
X65087500Y-33616900D03*
X70167500Y-25996900D03*
X67627500Y-33616900D03*
X67627500Y-25996900D03*
X70167500Y-33616900D03*
X65087500Y-25996900D03*
X72707500Y-33616900D03*
X62547500Y-25996900D03*
X75247500Y-33616900D03*
X60007500Y-25996900D03*
X77787500Y-33616900D03*
X57467500Y-25996900D03*
D14*
X62471300Y-48615600D03*
D27*
X54851300Y-56235600D03*
X59931300Y-48615600D03*
X57391300Y-56235600D03*
X57391300Y-48615600D03*
X59931300Y-56235600D03*
X54851300Y-48615600D03*
X62471300Y-56235600D03*
D28*
X75869800Y-37985700D03*
X70989800Y-37985700D03*
D14*
X45529500Y-29552900D03*
D15*
X42029500Y-29552900D03*
M02*
