G04 #@! TF.FileFunction,Copper,L1,Top,Signal*
%FSLAX46Y46*%
G04 Gerber Fmt 4.6, Leading zero omitted, Abs format (unit mm)*
G04 Created by KiCad (PCBNEW 4.0.5) date 01/25/17 19:42:47*
%MOMM*%
%LPD*%
G01*
G04 APERTURE LIST*
%ADD10C,0.200000*%
%ADD11O,2.540000X2.032000*%
%ADD12R,2.600000X2.600000*%
%ADD13O,2.600000X2.600000*%
%ADD14R,1.600000X1.600000*%
%ADD15C,1.600000*%
%ADD16C,2.500000*%
%ADD17R,2.500000X2.500000*%
%ADD18C,2.750000*%
%ADD19R,1.727200X1.727200*%
%ADD20O,1.727200X1.727200*%
%ADD21R,1.800000X1.800000*%
%ADD22C,1.800000*%
%ADD23C,3.810000*%
%ADD24R,1.524000X1.524000*%
%ADD25C,1.524000*%
%ADD26R,1.700000X1.700000*%
%ADD27O,1.700000X1.700000*%
%ADD28O,1.600000X1.600000*%
%ADD29C,1.500000*%
%ADD30C,0.400000*%
%ADD31C,0.254000*%
G04 APERTURE END LIST*
D10*
D11*
X32981900Y-52273200D03*
X32981900Y-54813200D03*
X32981900Y-49733200D03*
D12*
X45402500Y-37426900D03*
D13*
X32702500Y-37426900D03*
D12*
X45402500Y-43141900D03*
D13*
X32702500Y-43141900D03*
D14*
X49974500Y-33616900D03*
D15*
X51974500Y-33616900D03*
D14*
X32702500Y-29552900D03*
D15*
X36202500Y-29552900D03*
D16*
X58878500Y-64122300D03*
X53878500Y-64122300D03*
D17*
X43878500Y-64122300D03*
D16*
X48878500Y-64122300D03*
D18*
X20752500Y-69516900D03*
X78752500Y-69516900D03*
X78752500Y-20516900D03*
X20752500Y-20516900D03*
D19*
X25590500Y-21805900D03*
D20*
X25590500Y-19265900D03*
X28130500Y-21805900D03*
X28130500Y-19265900D03*
X30670500Y-21805900D03*
X30670500Y-19265900D03*
X33210500Y-21805900D03*
X33210500Y-19265900D03*
X35750500Y-21805900D03*
X35750500Y-19265900D03*
X38290500Y-21805900D03*
X38290500Y-19265900D03*
X40830500Y-21805900D03*
X40830500Y-19265900D03*
X43370500Y-21805900D03*
X43370500Y-19265900D03*
X45910500Y-21805900D03*
X45910500Y-19265900D03*
X48450500Y-21805900D03*
X48450500Y-19265900D03*
X50990500Y-21805900D03*
X50990500Y-19265900D03*
X53530500Y-21805900D03*
X53530500Y-19265900D03*
X56070500Y-21805900D03*
X56070500Y-19265900D03*
X58610500Y-21805900D03*
X58610500Y-19265900D03*
X61150500Y-21805900D03*
X61150500Y-19265900D03*
X63690500Y-21805900D03*
X63690500Y-19265900D03*
X66230500Y-21805900D03*
X66230500Y-19265900D03*
X68770500Y-21805900D03*
X68770500Y-19265900D03*
X71310500Y-21805900D03*
X71310500Y-19265900D03*
X73850500Y-21805900D03*
X73850500Y-19265900D03*
D14*
X49974500Y-28155900D03*
D15*
X51974500Y-28155900D03*
X22910800Y-57111900D03*
X27910800Y-57111900D03*
X26352500Y-63207900D03*
X21352500Y-63207900D03*
X72326500Y-42633900D03*
X77326500Y-42633900D03*
X72326500Y-45808900D03*
X77326500Y-45808900D03*
D21*
X75374500Y-58508900D03*
D22*
X77914500Y-58508900D03*
D21*
X75247500Y-54444900D03*
D22*
X77787500Y-54444900D03*
D21*
X75374500Y-50380900D03*
D22*
X77914500Y-50380900D03*
D23*
X21780500Y-27774900D03*
X21780500Y-52793900D03*
D24*
X23177500Y-45681900D03*
D25*
X23177500Y-43014900D03*
X23177500Y-40220900D03*
X23177500Y-37553900D03*
X23177500Y-34759900D03*
X20383500Y-44411900D03*
X20383500Y-41617900D03*
X20383500Y-38950900D03*
X20383500Y-36156900D03*
D26*
X26606500Y-32473900D03*
D27*
X26606500Y-35013900D03*
X26606500Y-37553900D03*
D26*
X26606500Y-26758900D03*
D27*
X26606500Y-29298900D03*
D26*
X26606500Y-40728900D03*
D27*
X26606500Y-43268900D03*
X26606500Y-45808900D03*
D26*
X26606500Y-53809900D03*
D27*
X26606500Y-51269900D03*
X26606500Y-48729900D03*
D15*
X58737500Y-40220900D03*
X63817500Y-40220900D03*
X63817500Y-43522900D03*
X58737500Y-43522900D03*
X49720500Y-40220900D03*
X54800500Y-40220900D03*
X49720500Y-43522900D03*
X54800500Y-43522900D03*
X66865500Y-58508900D03*
X71945500Y-58508900D03*
X35369500Y-60159900D03*
X30289500Y-60159900D03*
X21399500Y-60159900D03*
X26479500Y-60159900D03*
X66865500Y-54444900D03*
X71945500Y-54444900D03*
X30289500Y-63207900D03*
X35369500Y-63207900D03*
X66865500Y-50380900D03*
X71945500Y-50380900D03*
D14*
X57467500Y-33616900D03*
D28*
X77787500Y-25996900D03*
X60007500Y-33616900D03*
X75247500Y-25996900D03*
X62547500Y-33616900D03*
X72707500Y-25996900D03*
X65087500Y-33616900D03*
X70167500Y-25996900D03*
X67627500Y-33616900D03*
X67627500Y-25996900D03*
X70167500Y-33616900D03*
X65087500Y-25996900D03*
X72707500Y-33616900D03*
X62547500Y-25996900D03*
X75247500Y-33616900D03*
X60007500Y-25996900D03*
X77787500Y-33616900D03*
X57467500Y-25996900D03*
D14*
X62471300Y-48615600D03*
D28*
X54851300Y-56235600D03*
X59931300Y-48615600D03*
X57391300Y-56235600D03*
X57391300Y-48615600D03*
X59931300Y-56235600D03*
X54851300Y-48615600D03*
X62471300Y-56235600D03*
D29*
X75869800Y-37985700D03*
X70989800Y-37985700D03*
D14*
X45529500Y-29552900D03*
D15*
X42029500Y-29552900D03*
D30*
X43878500Y-71882000D02*
X25501600Y-71882000D01*
X18224500Y-64858900D02*
X18224500Y-63207900D01*
X24320500Y-67652900D02*
X24320500Y-70700900D01*
X22542500Y-65874900D02*
X24320500Y-67652900D01*
X19240500Y-65874900D02*
X22542500Y-65874900D01*
X18224500Y-64858900D02*
X19240500Y-65874900D01*
X25501600Y-71882000D02*
X24320500Y-70700900D01*
X43878500Y-64122300D02*
X43878500Y-71882000D01*
X43878500Y-71882000D02*
X43878500Y-71970900D01*
X43942000Y-72009000D02*
X43942000Y-71970900D01*
X43916600Y-72009000D02*
X43942000Y-72009000D01*
X43878500Y-71970900D02*
X43916600Y-72009000D01*
X66865500Y-46659800D02*
X61887100Y-46659800D01*
X61887100Y-46659800D02*
X59931300Y-48615600D01*
X54800500Y-43522900D02*
X54762400Y-43522900D01*
X54762400Y-43522900D02*
X51974500Y-40735000D01*
X51974500Y-40735000D02*
X51974500Y-33616900D01*
X32981900Y-52273200D02*
X28257500Y-52273200D01*
X28257500Y-52273200D02*
X28041600Y-52489100D01*
X26606500Y-51269900D02*
X26822400Y-51269900D01*
X26822400Y-51269900D02*
X28041600Y-52489100D01*
X28041600Y-52489100D02*
X28981400Y-53428900D01*
X28981400Y-56041300D02*
X27910800Y-57111900D01*
X28981400Y-53428900D02*
X28981400Y-56041300D01*
X43942000Y-71970900D02*
X74104500Y-71970900D01*
X81470500Y-65112900D02*
X81470500Y-61302900D01*
X80708500Y-65874900D02*
X81470500Y-65112900D01*
X77152500Y-65874900D02*
X80708500Y-65874900D01*
X75120500Y-67906900D02*
X77152500Y-65874900D01*
X75120500Y-70954900D02*
X75120500Y-67906900D01*
X74104500Y-71970900D02*
X75120500Y-70954900D01*
X47688500Y-30060900D02*
X47688500Y-24345900D01*
X50577500Y-31203900D02*
X48831500Y-31203900D01*
X48831500Y-31203900D02*
X47688500Y-30060900D01*
X51974500Y-32600900D02*
X50577500Y-31203900D01*
X47688500Y-24345900D02*
X47815500Y-24345900D01*
X21352500Y-63207900D02*
X18224500Y-63207900D01*
X26606500Y-51269900D02*
X25336500Y-49999900D01*
X25336500Y-49999900D02*
X18224500Y-49999900D01*
X66865500Y-50380900D02*
X66865500Y-46659800D01*
X66865500Y-46659800D02*
X66865500Y-43268900D01*
X66865500Y-43268900D02*
X63817500Y-40220900D01*
X66865500Y-58508900D02*
X66865500Y-54444900D01*
X66865500Y-54444900D02*
X66865500Y-50380900D01*
X81470500Y-61302900D02*
X81216500Y-61556900D01*
X69913500Y-61556900D02*
X66865500Y-58508900D01*
X81216500Y-61556900D02*
X69913500Y-61556900D01*
X77326500Y-45808900D02*
X81470500Y-45808900D01*
X77326500Y-42633900D02*
X81470500Y-42633900D01*
X81470500Y-42633900D02*
X81470500Y-42506900D01*
X77787500Y-33616900D02*
X77914500Y-33489900D01*
X77914500Y-33489900D02*
X81470500Y-33489900D01*
X51974500Y-28155900D02*
X51974500Y-32600900D01*
X51974500Y-32600900D02*
X51974500Y-33616900D01*
X51974500Y-28155900D02*
X52006500Y-28123900D01*
X38227000Y-24282400D02*
X42029500Y-28084900D01*
X42029500Y-28084900D02*
X42029500Y-29552900D01*
X33083500Y-24472900D02*
X36202500Y-27591900D01*
X36202500Y-27591900D02*
X36202500Y-29552900D01*
X48450500Y-19265900D02*
X47180500Y-20535900D01*
X47180500Y-20535900D02*
X47180500Y-24345900D01*
X30670500Y-19265900D02*
X29400500Y-20535900D01*
X29400500Y-20535900D02*
X29400500Y-24472900D01*
X66230500Y-19265900D02*
X67500500Y-20535900D01*
X67500500Y-20535900D02*
X67500500Y-24345900D01*
X61150500Y-19265900D02*
X59880500Y-20535900D01*
X59880500Y-20535900D02*
X59880500Y-24345900D01*
X35750500Y-21805900D02*
X37020500Y-20535900D01*
X39560500Y-20535900D02*
X40830500Y-19265900D01*
X37020500Y-20535900D02*
X39560500Y-20535900D01*
X35750500Y-21805900D02*
X34480500Y-20535900D01*
X31940500Y-20535900D02*
X30670500Y-19265900D01*
X34480500Y-20535900D02*
X31940500Y-20535900D01*
X40830500Y-19265900D02*
X39179500Y-17614900D01*
X39179500Y-17614900D02*
X32321500Y-17614900D01*
X32321500Y-17614900D02*
X30670500Y-19265900D01*
X48450500Y-19265900D02*
X46799500Y-17614900D01*
X46799500Y-17614900D02*
X42481500Y-17614900D01*
X42481500Y-17614900D02*
X40830500Y-19265900D01*
X61150500Y-19265900D02*
X59499500Y-17614900D01*
X50101500Y-17614900D02*
X48450500Y-19265900D01*
X59499500Y-17614900D02*
X50101500Y-17614900D01*
X66230500Y-19265900D02*
X64579500Y-17614900D01*
X62801500Y-17614900D02*
X61150500Y-19265900D01*
X64579500Y-17614900D02*
X62801500Y-17614900D01*
X38290500Y-24345900D02*
X38227000Y-24282400D01*
X38227000Y-24282400D02*
X35750500Y-21805900D01*
X47180500Y-24345900D02*
X38290500Y-24345900D01*
X59880500Y-24345900D02*
X47815500Y-24345900D01*
X47815500Y-24345900D02*
X47180500Y-24345900D01*
X71310500Y-24345900D02*
X67500500Y-24345900D01*
X73850500Y-21805900D02*
X71310500Y-24345900D01*
X67500500Y-24345900D02*
X59880500Y-24345900D01*
X35750500Y-21805900D02*
X33083500Y-24472900D01*
X73850500Y-21805900D02*
X76517500Y-24472900D01*
X79692500Y-24472900D02*
X81470500Y-26250900D01*
X18224500Y-63207900D02*
X18224500Y-49999900D01*
X20764500Y-24472900D02*
X18224500Y-27012900D01*
X29400500Y-24472900D02*
X20764500Y-24472900D01*
X81470500Y-61302900D02*
X81470500Y-45808900D01*
X81470500Y-45808900D02*
X81470500Y-42506900D01*
X81470500Y-42506900D02*
X81470500Y-33489900D01*
X81470500Y-33489900D02*
X81470500Y-26250900D01*
X76517500Y-24472900D02*
X79692500Y-24472900D01*
X33083500Y-24472900D02*
X29400500Y-24472900D01*
D31*
X30702500Y-19246900D02*
X30778500Y-19246900D01*
X30702500Y-19246900D02*
X30702500Y-18598900D01*
X48482500Y-19246900D02*
X48482500Y-19424900D01*
X66262500Y-19246900D02*
X66262500Y-19678900D01*
X73882500Y-21786900D02*
X73958500Y-21786900D01*
D30*
X18224500Y-49999900D02*
X18224500Y-27012900D01*
D10*
X59880500Y-48221900D02*
X60007500Y-48094900D01*
D30*
X45402500Y-37426900D02*
X49212500Y-37426900D01*
X49212500Y-37426900D02*
X49974500Y-36664900D01*
X49974500Y-33616900D02*
X49974500Y-36664900D01*
X49974500Y-36664900D02*
X49974500Y-37795200D01*
X57391300Y-47256700D02*
X57391300Y-48615600D01*
X56261000Y-46126400D02*
X57391300Y-47256700D01*
X54292500Y-46126400D02*
X56261000Y-46126400D01*
X53251100Y-45085000D02*
X54292500Y-46126400D01*
X53251100Y-43281600D02*
X53251100Y-45085000D01*
X51181000Y-41211500D02*
X53251100Y-43281600D01*
X51181000Y-39001700D02*
X51181000Y-41211500D01*
X49974500Y-37795200D02*
X51181000Y-39001700D01*
X57467500Y-25996900D02*
X57467500Y-30657800D01*
X56997600Y-41783000D02*
X58737500Y-43522900D01*
X56997600Y-38277800D02*
X56997600Y-41783000D01*
X55829200Y-37109400D02*
X56997600Y-38277800D01*
X55829200Y-32296100D02*
X55829200Y-37109400D01*
X57467500Y-30657800D02*
X55829200Y-32296100D01*
X57467500Y-25996900D02*
X52133500Y-25996900D01*
X52133500Y-25996900D02*
X49974500Y-28155900D01*
X41656000Y-43180000D02*
X32766000Y-43180000D01*
X32766000Y-43180000D02*
X32702500Y-43141900D01*
X20383500Y-36156900D02*
X20383500Y-33464500D01*
X41656000Y-32512000D02*
X41656000Y-43180000D01*
X40640000Y-31496000D02*
X41656000Y-32512000D01*
X31750000Y-31496000D02*
X40640000Y-31496000D01*
X31115000Y-30861000D02*
X31750000Y-31496000D01*
X22987000Y-30861000D02*
X31115000Y-30861000D01*
X20383500Y-33464500D02*
X22987000Y-30861000D01*
X58878500Y-64122300D02*
X58878500Y-63704500D01*
X58878500Y-63704500D02*
X53213000Y-58039000D01*
X44323000Y-45720000D02*
X41656000Y-43180000D01*
X49784000Y-45720000D02*
X44323000Y-45720000D01*
X50800000Y-46736000D02*
X49784000Y-45720000D01*
X51943000Y-46736000D02*
X50800000Y-46736000D01*
X53213000Y-48006000D02*
X51943000Y-46736000D01*
X53213000Y-58039000D02*
X53213000Y-48006000D01*
D10*
X20510500Y-36283900D02*
X20383500Y-36156900D01*
X57391300Y-56235600D02*
X57391300Y-59931300D01*
X51532800Y-66776600D02*
X48878500Y-64122300D01*
X59855100Y-66776600D02*
X51532800Y-66776600D01*
X61417200Y-65214500D02*
X59855100Y-66776600D01*
X61417200Y-62915800D02*
X61417200Y-65214500D01*
X60109100Y-61607700D02*
X61417200Y-62915800D01*
X59067700Y-61607700D02*
X60109100Y-61607700D01*
X57391300Y-59931300D02*
X59067700Y-61607700D01*
X63817500Y-43522900D02*
X61404500Y-41109900D01*
X61404500Y-27393900D02*
X60007500Y-25996900D01*
X61404500Y-41109900D02*
X61404500Y-27393900D01*
X54851300Y-48615600D02*
X54851300Y-48602900D01*
X54851300Y-48602900D02*
X52273200Y-46024800D01*
X52273200Y-46024800D02*
X51206400Y-46024800D01*
X51206400Y-46024800D02*
X50215800Y-45034200D01*
X50215800Y-45034200D02*
X49072800Y-45034200D01*
X49072800Y-45034200D02*
X48120300Y-44081700D01*
X48120300Y-44081700D02*
X48120300Y-41821100D01*
X48120300Y-41821100D02*
X49720500Y-40220900D01*
X62471300Y-56235600D02*
X62471300Y-56070500D01*
X62471300Y-56070500D02*
X56007000Y-49606200D01*
X56007000Y-49606200D02*
X56134000Y-47752000D01*
X56134000Y-47752000D02*
X55397400Y-46977300D01*
X55397400Y-46977300D02*
X54102000Y-46977300D01*
X54102000Y-46977300D02*
X52463700Y-45339000D01*
X52463700Y-45339000D02*
X51536600Y-45339000D01*
X51536600Y-45339000D02*
X49720500Y-43522900D01*
M02*
